<mxfile host="app.diagrams.net" modified="2023-10-13T06:59:15.615Z" agent="Mozilla/5.0 (Macintosh; Intel Mac OS X 10_15_7) AppleWebKit/537.36 (KHTML, like Gecko) Chrome/117.0.0.0 Safari/537.36" etag="QJiRxl2yUHz-8uJijOG_" version="22.0.4" type="github">
  <diagram id="aNVpte6YASGwXYMamXEe" name="Generali">
    <mxGraphModel dx="992" dy="583" grid="1" gridSize="10" guides="1" tooltips="1" connect="1" arrows="1" fold="1" page="1" pageScale="1" pageWidth="1169" pageHeight="827" math="0" shadow="0">
      <root>
        <mxCell id="0" />
        <mxCell id="1" parent="0" />
        <mxCell id="9Qc__nXVEQ7TxUbxgHj--36" value="" style="shape=image;verticalLabelPosition=bottom;labelBackgroundColor=default;verticalAlign=top;aspect=fixed;imageAspect=0;image=data:image/png,iVBORw0KGgoAAAANSUhEUgAAAtAAAADTCAIAAAAnPrNMAAAACXBIWXMAAAsTAAALEwEAmpwYAAAgAElEQVR4nOydd3gUVdvG71Nmdjc9oXepAtIRgYAgSJGmWEDsqCj6il3xBQv2Xj7rq4AdsYuCqNgoCooKogioFOkYIL3s7swp3x8TIiJCstlNdsj8LvWCmJk5M3PmnPs85ylEKQUPjyMOpRQhxPmz1ppSWvZXDw8PD4+qh1Z3Azw8PDw8PDyOfDzB4eHh4eHh4RFzPMHh4eHh4eHhEXM8weHh4eHh4eERczzB4eHh4eHh4RFzeHU3wMUIIaJ+TkoppZ4K9PDw8PA40vAER4QQQgzDiNHJtdYxOrOHh4eHh0e14AmOSFBKMcYmT55q2zYQBXFACNEaiYmByy67tHHjxlJKxljlT+vh4eHh4REneIIjcho1ajRp0mVCyMqfyrbtpKTEGTNeWLfut8aNG3sGDg8PDw+PIwxPcESCk7MyISHAGIuKKYJzBiAQ8Ff+VB4eHh4eHnGI558YCY4FQgg7eifUZaf18PDw8PA48vAER2Q4+iD6USoeHh4eHh5HJJ7giBylom6R8KqLeXh4eHgcmXiCI3KiHrzKWKl3iFfW1MPDw8PjCKNGCA6tVOkfqrcd1Ycq00aen4iHh4eHR3VwhAsOrVRICIvSsBCkRu5YaKVk2CZSC9sGIZ7xxMPDw8OjWjjCw2IpYwHGoAEnK2hU1/e2HWWn0ajrAU0IZQyMFQPJYNA118bj4eHh4VG9HIkWDq2htVKKEIKw3WvS1SlLP7v5nvsBWFGtfhKLBORRFBxaKQpsL8q9o+GgL9JHPfrK8yCwoxfK6+Hh4eHhUX6OQMGhAEKpk4+r6eOPLL/mwsJjO73SrnnR8pU+w5AyColBYwQhNFrbPlprylgYeHHao5fsKhqdZ9S54OFlH3xuGiYhhNTEzSUPDw8Pj+rkiBIcWimpFKMUwIuPPWV8NGfbJWehZQvDn7i9a/vJoggAeDzvIkXHz0Rr7US7SOg+jy5ojPbgKeeh09GjH7u+/fDvd28GAdFQ+3xpPTw8PDw8Ys2RIziU1qCUMwag71VXXdSrrRh2IvwBFBTaeXlo3up/JTl3z36dA4oQHNFzLSGEELIH1uOk40AcJWBZwlbEzEDKI+tS36jX6+c1a0AJYwzySH4OHh4eHh7xwxEiOISUjFJSUIg9OT3ee3PpDZeidyYKi2ALUApKkbMXg0ffun3jB7PfYkAoGoIj6j4cUXMalRLAeH/7KWgN+DQBBZTWAkyCPYKT/ugwZsX8LzcFcwlnEFLpfU/D8yn18PDw8IgNrhccWmtLSoNzAJOnzyBvvfzDaSNQpy4K8oB9TpiEgDNe9CdunPR8s7rIzg4Yhqy0XBBWlN1BGGOMVVZxCNsmnH/80WdvhTsDiTbRgKNlQAg0tA37FPRoMvKOmxK6bdy+jRicEiptUbqf4yXq8PDw8PCIAe4WHBqQlPo4R37hhXPefbhTC+OKa2leLqx/5JwgREhJbT0vI2HysmUQklNaWSeGaHteal3Z6V5rbZjmj1s2khF3+qAlJTigmYQQwIKsa7R+Gz0+ajJ8x7o/sojmpqGE9BJ1eHh4eHjECPcJjrIZ2RKCEmJI+fzMl/r9sOylDi3Z0JF29hZFGejB7osSVVTI2h37kJXz9HMvQCEqleXjAq0BSC0ppd/s2fJuh9NPQDqnKVJp8k8JQwiBtuygooEr0eGP9uM+uPj2r9auYpyHi4OVN/x4eHh4eHj8E5cJDr0vkENI6TMMAFe99toEUfDViX1Ys8Yy90/4fP++RicwTZmzDadfMEkWy6JC4EiJ1CAEhMigBeCH/zwyoaiWn9W1lEWgD/o0CCEUEMoOUdbX6Dz4hY8XZV6+/Y+t/sQAEfLI9qj18PDw8KgWXCY4HLWhAIPzlW/OGfPNkidbNsRlV/GCQhkMg/FDbUs4/4sbNG8HrrrwpM8+Aipl5NDRn5gjP6G2bF9iwtcffzHina1Hob6twwSEHGJ/hBAKypUOi5IW/h6X56fk9rthxt1P/C7yCWPxnK3Ew8PDw8ONuExwaCmlUpSQG++4uzsLvtOiAenTGznbBDQoLfVW+LdZdp8DqWJA0P68Y6sR116PUq+GSFDRDuqglFMaiQCStk1N463PP/1x+JUtQBU1tFKHvysCgDCtQ6G8DNqw43Z1wq3vTW91+paCvZxzaXuaw8PDw8MjarhJcBBCKOeMsWs/nPtwn044fSSvVUfn5YKzCro6UoRDaHPMRycPfOfJ6Yh0Y0XrKFs4CCERhNpKKblpbkS48MG3LkQj+GvZyqIoX5p0AhDCQYQKC5bYmra+dZdvab2xv+VmcZNHLMU8PDw8PDwOwB2CQynlzMPzZryU/H+P/l9mZ5zQj4TCorgYlEYSWEEpivLQL3NCizqIdGMlTtwrGQiA4Ltfd/lsVZLRPBQqZqhgsAkhFARShFVxBmt8WijByLhs+DF9sc/8c4R4unh4lAO1H+X8zappmIeH24lvweFM6QSMMUrIzA/nn8yKi66ZiEACgkFdmXrrTrJRS+Uf26HjIw/CmVkrOHBE3cLBGGGsYm+ESE04W7RoyXdnTOyOjmFRwiuqNkpPREAIA7Gk5ScZLRB4dW3CzbX6ANCEMMZiUanOwyN+kFI60oHux6EP2f/XPPHh4XFY4rmwCDRACQEQWr/xmp9/fK55XYy8iBTlabUvmVUlsUKo1/CXAb2HT/zPR889E5QycLghJq6QUnLOf9i28bUBZ8zAqDANM6UrlR6EEKK1rRWhtJZqcE9O7tukv5p3/ckjTw5QWlqAtyYhpWSM7dq16/7777csyzTNcgovSmlxcXFKSspDDz1EKVVKHXb2qkaEEJzzpUuXvvLKK4ZhlL+pjLHdu3dnZva94orLAcT5bR4Uxz+aMXaAmdO27Y0bN27cuDEvLy8nJ8eyrLLOX69eA9P0tW/fpkmTpikpKc4Py27cOSEhxHWPwnl9zz777IoVKwKBQPkP5Jxv3779+utv6NnzuNg1b3/KetqMGTMWL15ct25dEdVK4Ec2zmfbu3fvSZMmOUNclV06fgVHWQWyTz5fOGz+e3jkbtg2CnI1olTEnRAAtLBAden4zZUJG7/5vmXvHmHLMg0jCiePnHLNZxqaKMI5l0DxK4ueQVeYilgaqGwhWOKkI1XahmRIGYO0ZaNuvrHTs4/89JGPUikkraANxtU48qK4uHj69OmhUCiCMzz88EPRblT0cZTr5s2bp0+fHsHhO3fuuOKKy123uJdS0n1lpQEIIdavX79y5crFi5csXPjlhg0bynOSOnXqDB06tE+fPscdd1zr1q2Tk5P3P2F5zCTxxpIlS15//fUIDhw+fFiVCY4y5s+f/8EHH1TxRY8Mtm7dOmnSJEe6VdlKMn4Fh1OBDCWhJ5csxd1TmZQyFD54Rq9KXEMpRS2RVyfltK1rftrdwle3ljMMlefoGOwykHJvchHCCIAv3pqbcstjBrqHrTCrtNooawUBgYaE1oxkymNyfl7/8jtvXXrGWCGFycxoXMNNGIaRkpISCoVM0yznQooQIqVMSEggxAXzjdPh/X6/89fy76AZhhEOhxMSEhGpy3O1IKUkhDjKQGu9fPny+fPnv/HGGweIDM65c0cH3FfZ6KyU2rNnz6xZs2bNmgUgLS3t3HPPHTVqVN++fRMSEjjn2Gc9qpr7igqJiYnYz2BzWLTWPp8vFAoFAgmxbNfBSUhIAOD3+8PhcE2zv0aM89lWyIgVLeL6S5BKsQT//MnX9f70429PPYnpEqkPnskqcihVoRCr1/Dn5jkD/vf0wsv/w+rWVkISRg+7OWFZ0V/SHX7E1rpswJvz7eJ1Z06cipFhlFTYUfSw14EGJUyKPxHGyzddesZYJaRp1ji1gf3s7WXb/IfFeUXuSmdS9nKVUuWUDs4NWpYVw2ZFFSml1tpRAEqp99577+GHH16+fLnzfxljnHMhhNZaa10ecVnmxqGUysvLe+qpp5566qn27duPHTt28uTJgUCAc+48T7fkNfb5fKign7jzy5GZACuJlBr7eqxb9G6143y21fK44nr5RQmxhUBSwqxOXTHjRZrWGFY4+sEhlMqcvUa7not6dnr+228BhLQi5XCFiLqxlBBK6eEu6yQVhQSwcvjNUzHURglDlLaZytBaAwY19yJ3emcy8vyxdkkJ4e4YMaOIoxt8Pp+zkKooWutgMIhq+rYrSmJiYkUnRef52LaN/db9cYtt246kADB37twePXqMGTNm+fLlhBCfz8cYk1KGw2FHVpbzlSmlhBCWZTkbKKZpMsbWrl17++23d+/e/f7773d+zhgTQrhi1yk1NTWyA6tFcHgVriOgGj/VuBYc2Oc02rJhwyuzg/aX83jtJoi6cxAh4IbK246ThtySEdj1x+YEw7DLMTRIaUe3IeXeStOc8Dl3PTM1N13DJiTaagMAIQbhEPnPYFOvN28HQEwzCsXl3En8T6VR4Qi+TWemNwwDwPfff9+rV68xY8asXLnS+aHW2tEZlb+KZVmOF55hGOvWrZsyZUrv3r1nz34dAOecVr5gpMffOXL77JFJ3AsO5xMN+J+YdMWZQSX+WMuSkqJf7IMQSQgpLvyzY5ver7xYsPEPg7HDljHTOsrSh5DDG1aUlATkljvuSrztmQBSZTkOibAxOvg9sof/PmfI0Z2UUqVr3xr2fTvL3JKSksLCwggOp5Q6G6WumMsLCgoim3Qd54+4teJorR1j5I8//tSrV6++ffsuX77csizH1OGYZ6KLlNKxpgD44Ycfzjvv3NatW7/99tsAKKVx+6AcsrOzIzswKSkpui0pD1q74MvyKCPeBQcAQohl20hKmNGqQ6ddOdJkjNJYbKxoyzJTa205d/QNr81GTl456tdHv68f2u1TasU4/z64u829C4bgGE2ZjoFFUQNckxDsH+8efWzrdsKyXTFfxg7TNJ2N7YpSTj+AOCGye0R8b6mUxXK/+eZbgwYNLJMalNJYvxrHNZUQopTasGHD2LFj77vvPtuO968pYt1QLa48hMS1evM4ABcIDgAG58W2nXx0yzFffY833pXJ9aFU9DUHY1ZONmnZecZxR+cZFIi7BT1XBEDW2Y+OtlJAArYSUf/cNDTVAKxxWH7WzdcAYEZcexbHFGduoJQaEQVLa62dyTjOF7UOpmlG5pYUz3fn3NHUqVPHjTszJyfHcfCsMncKx5OxLPh26tSp//nPf/78M6sKLh0xkXV1uMp32KO6cIfgABCgVAO33HTjOUUSq75GWlr0XQoIAWfI24WTTkp/aSYKChilCnGTw1xIcPrMdXc2fv+LFNSxtSCIvq8oNGHAk/jl6ZJ1yfE9l7gCt8QmHKkUFRcPHz7yvvvuc/5aLclAlVJlwfYzZ84888yxP/64qux/VXFjDkvEn3ycW2484gHXCA5CqZNLfNaESwbkhZGTzfz+6EsBQjQlKC7GpAnswgsRDLGIs6dXHI1/9bm2QiFi8HuffDLhsdld0EFQCegof+FaC2iDJyzDmgtylzUKpCpXRXXGDq11HE4MUSfie4xbVbp69S/Dhw/7+OP51d0QYL/NnSVLlgwZMnj+/Pko81GLJzzB4RE7XCM4HKRtA3hgZz4WLpM+k3AeC80BKSFsNf3RmfM+BCD/ZUSw7SiPFJxRyg/y0UopfYHAXmD4gt0XoDlMopSOUpKvfWgtof1mYr7Y+MagNlZaEryAs32DbygUKi4ujuBwJ04SLhmLi4qKIpv84tNp9PsVK3v06P7Vkq+quyF/UfaI9u7dO3LkyMceewzx50aal5cX2YGe06jHYXGZ4OCcC6V6nH36Vat+xdLl2jRiFKOBkIWEwCUNUvZs2sIZU9U3IiilOOcCWDhhmn/+h4Q1DFshiqjet4YCGOWwsh5NLbz6radqgylR3oyrRzCOUEhISEhOTo7gcKWUi/JwpKamRrYB5CRgiBNR5WimtWvXnX/uOeGwFSetOijXXXfda6/Ndv4cPz2kdu3akR1YUFAQ3ZaUB89p1F24b0ZhhGitH7/rjgt27IWwQElMjBxaAwQ9utZ9dcaelT8xSrWTnS3KVzoMal/1+acfelw8/0JbX5+QjH5SUUBrRrgiX5rqvJVvtkyvI4UgNalmyqGpzJaKi0RbxP4N8TOpO4Uh8vMLLrvsP7/++iviaSI/AOehTZw4cdmyb52s8HGytxJxPpJq6QaehcNduGY03B8CKKVeGjsOTz6PpNpAbPw6LYsYJq669ITZrwIoUQemH9U65i4OWggwunbrFt/kd87C0JCVy0Gj7ihqQ/l8tT7B8vz/G9uqRXMZtKjn6hgl4mcyPuIpy7dxzjnnfPXVoupuzmFwWltcXHTVVZM2bdrsxjJv8YBn4XAX7uviGtD7xvF30xvh5eeRkhYTIwchKCpCYtLaay97Z/GSJNMMHxi4H+UVyQFhN1ppbhglwMZrnp6IJGUIrhHlLSStJXTASNpVsnJZl+btzh8JQBvu6xWxJuLJIG5X2P+ktFyiOykrLn3TTVPnz/+wuptTLpy+sWLFiltvvdnZj4iH3uKuPhAHD8yjArhvain9GrQGcNol459t2By/roXPF4v0o5oQYllITx6zd9vnHy3wGYbY7ypRj+HgnO1fS4UyGgZuHnVuqzlfENrYsi0gyq4bGvBxM2xvX9e2xUXfvtE2MUMJ4UVy/pM4MXd7HJSyAJDnnpvx4INOBKwLZs0ykTR79ux7770XgJMlrNpbVb0NqCAueNHxRjW+YtfmdCJEas0ImXj8CV9+8N5bbdsyYUsV7VqyhGgpuRkQwwaOf/ql5f6ERgOPF0I4w0QU35pzwn8uMVf++kv/D79tZwwO2wU8NvVgIcQG5s95bNxAX2o4GDIDPi86pWbi3nqbjuvGqlWrbr55yr6fRe1Gyr7Nsp8ctGZ9ZDgbK0qpBx54oHnz5hMnTvQ2VioEYxQA57y6KjOXv87fAdByl86KOk5J5GrpaS7u3BQQSsFvPnRUa1x9k0xqAClisbciSkqMhLQdowa/ksABqMNXdI3KZQmA9b1uGI1Myy6Iej1YrbUGMeD7HRue7I0zThqmQpbp95VuWXnsByGkJmypROxGUL2L8rJy81deeVV2dnbUh1FHh6n9iK4yc8LQALz44ov5+fmo7ufprq7uPLGSkhJZTUR81046uGrBCSurll0811o4AACMEAU07dl9nlU86s2XceZZyM0CY9GcmwkBpXZuNtoeM3XBp91W/Di0e1dbqVgotbJ37wxAN7QafFc+09DOEiu6VwKISWiR2v5li/pPfjUHgDZZ6TU8I+U+Kl+8zclR4Yp98dzcXBnRMtEpUFdd0sq2bdM0Z82a9fXXX1WyGU60yAE/HDRoUMOGDVu3bp2amlpYWLRz544tW7YsXLgwstQsB0UIwRhbvnz5M888M2XKlOo1cuzZsyeyA1NSUqLbkvIwZcqUM888My0t2bZBqWN5Io4nqfOHA/5adqAT3nKAz+k/DwE0IX/9ctkvABpQKSkZd911x5IlixljFf12Jk6cePbZZ2dlZTmjfVmTHPa7lvPXvzVy/1846K3905e2rOVag1JaUJDbokULAJzzqhyd3C04gNJYkZHH95u1qcG5634y27W18vIRXS8EQsAo8nMw9OSTbrp+ZU5e18EDAAgRZSMeY6zMf+KMUWc8ttEKoJkgKurdQTvrGFWyOjHx0o3vUUBJL+vGQSjLw5GUlBTBQOzUKzdN0xV2jpSUlMgSX5bl4aj625RSmqaplHKSaDm24gjO4zS+rP39TjjhtNGn9enT99hju/7bIevWrfvmm28++OCDuXPnRtb4/XEuPX369HHjzmre/KjKnzBiMjIyIjuwqKgoui05BGWDVd++ffr27VNl1/0ns2a9XCHBUfaZ9OvXr1+/fjFu3eGp4mHf9XMMAZwM3EP3lLScv8SSFg8EYuFACoAH9+Kem2/bvhlZexCbJZ0UAkA+cMcXpAnqKupcJcpZNwgIU+RH7Jx5QSMK2LZNPLXx77jXuaFCRKwYqst+o5RyBPobb7y5atUqRLoZsf+Njx49eunSpYsXLrz66isPoTYAtGvX7qKLLvrggw9+/fW3CRMu2f9sEbTBafnmzZtnzpwZweFRxF1bKtVFWdKaiEvWOTLdKe5YczgSphnOmCVF7Z6dH2/XHi+9JXzmvsxdUYVSYVmUGh92af3eniwAPNKyiv+GljopIRHA7LSBRwULQQP/llW9EteA1mAgBdj+RmbD559+Evt2cDz+DUJIxJE7kW1SVAuuC4t1Zrj8/PxHHnnY8YSIQHCUZRbv1q3b+++/P2fOnMzMzAqd4eij28yYMX3lyhU9e/bEfrEnFcU56vHH/89JWVZdeJZOj9hxhPQtgzJLyhEjhr3atjPW/YaUJBKL+vWEqPx8dO1x+jeLli9Zmh7tedoALa6XcusJZw/ODyWyxpYS0a/QBg0KAsxtnvHA0ndQw9YlkSGljMxQX+bP6IqJXAjhos5QZt54+eVXVq5ciYi0XdkW0tixYxcsWHDKKaeg4l+Ec4auXbstXrx42u23Y78UZBXCuW5xcfGdd95Z0WOjSMRLdi+c3uOwVKngsIUMCxH1fFkOBqUlUp7bJ3PUkh+wZRtPS4/JxgpjyN2NSyb1+nx+SaTeVf9Gevujnp/ywOVLdSu0tHSIINorTq0FlMHSnsfiTt88giirjb+dyrItKyRctL4/KM7zCQaDjjN8ReGcG9E2g8UCZ8rMy8uLrD8kJCSgym05TlMLCwunP/ccAMZYRRtfpjYuvnjCG2/Mrl27tpSyLKVHhc4Dp8Kiz3f7tGl33XUXKhdp8vrrr+/YsbOSJ4mY7OzsyA6sFqdR9+KKRUjUqVLBYRrcbxiKsGLbtiNaMh4aQykA9zRtYbwzzy4pJD4zVpqjYBfuvH1Nzy5RO63WAKRU587PaihCkhMag3qwAtrPElfaSzZcdHLbek2B6EbAEoAIYYVDFrGJz/T5AoazvtcuD7T1+XxOIEZFqfYkTuXEmTId3RAB4XAYVe99RimAhQu/WLN2TQQxAmUptq655pqZM2cQwqSUjLGI76KsDbfccssDDzzg8/kiO4/D+++/V5nDK0PERV9LSkqi25IjGxdZE6NIFY0RUmtCyOcr17z6yqsMdpJpmoZhaxKyRGTG6oPCORdadxw2ZHm/wfjld60UYSwmWc+hIUs+9ptrvlqGaHQdCgpg9euf+HbtBqllKQlEOakoAB83g3JzzkVnTnv+KdNxto3SJaSU4ZClbRiGzx/wwcQLHz47fdprYZQQQqKsnKoQZxXi8/kiG4WllM4o7IrBJSUlJTJ7jCM4qnLFVmaH+PzzhYjImO+8kTFjxj7yyKMAbNuu/I4AY8wRMZMnT54yZcphf/8QPPbY/2E/G0xVkpaWFtmBUYwTrgl4Fo5YIaXklG5et2bYc/PPF11P+2LrqQ+8uOTtWSZFwGcYhmGDhIWUMgqfFgdCltW1R/fbftoI29YGB2KWcL+wsF7t2qFwuJJdR2tNOC2CvfDrJQUIglEoFfXIFMEoEeSNRNLgrvP8gIhGZIrSsCyhpOac+wM+auLleS9cdd7kr2/+3X9LR3l3k9vGPwBARjt+uMoo21aPeEvFMRu4YnDJzc2NzGe+6vNw7HMXLXj++RcARLZoadWq1VtvvUkpUUpFa+erzAX11ltvnTBhAipu+HG6ysaNG7/99jtUh1R1Vx4O9+KKRUjUqRLBAQBYnlUo0loZfTvMyUt5P9DpxHDX7u+v7X/Dvcvefd0k8BuccwZCpFJqXyBiRV+JkyTTZxgCuOPss3DDbTAYjJiFYPj8tdu2njl9xr6LR4KzVvt60VeffvrZiOEjgigpfSnRNG9oAeWnyS9gQfi+049p2Ay2YBX3eP3rpWhIKbXSjBKfz2CcfrPu6+F9T//4spXpd/fsNX8ceaXBkIQ+I7r0Y8vrAED0M4lUEc7ob5qmk7+romito2jAizUR7wI4WwlVKaqca3333fKSkiLDMCIzAzz88MMAZLQz0DibNZTSadOmNWrUyPlz+Q8vG/RWrVqJ6piWIt5Zq2kRnh4RUBWCgzIOIL1DNxzbz9hexNICpHs30bTdSl1vyTGn90HfJq983/m8q7/9eC4BOGOMkNIsy39l4ynXV1c24DGtkegvvPUOPPcqTAOIgZGDApYFQjIzMx988DEgkqpLjjd7dnb21q1bThsyPBwOa6jovhOttYT2s8Rf7G8yJl112ZWXAZAVTs7uvAXnvRBCCeecMhpCUY82/Z4Z/o6c2OryDQ+lfdq2izpmQNduDVomZ3FVKDG22UVh5HEfU9od3gwHhTEW2QpYa+2Mwq5Yzfj9frekNnfa+dNPqyI+w9lnn+3EpMROJzVu3Pi8885DpN4ts2e/hupIp2aaZmQHRhzeUjNxhdUz6sRccEipDIL1K78fet09aFk7GApJIXVhPg0W0BQ/adkC6fW2p7f6+eSbetu9Ao9/edTJ5+7+7efSxu1THgpEKV2hcU0pldSsadYpY/DTaiQno9yqpSIoAN26dxs9esTy5d9FsOHqjCZ7snNOGX0KgGAoFHVHUQ34fP4S+UdwzKknPflfAEpVYEnnpLch+6SG02oAI/qMuab5PSszQ4+Jub02j65XVL9ruxZ1miQU+3R2UIUsBYGkZGSvy5s4aioAYblYcJQl+YkAFw0rEYeZVPGMWPYuVqz4GZHKneuuuw6Rxq8eFkqp8zD/+98pHTt2EhWswOz0mRUrVobD4TK/kCrDLZ7OHm4k5oLDSQ9flNEQDTqZwskCQUCpAlVC6GAxESUkwFE7AwnJoaN7bJn4TL3fG5ObXjpq2NmQFgDYIUYIY5QxJrWW5fsgnI+2bq1aff73FgpziT8AFfVhsXQuadOmTVpa+t692WUDTflZt27dgo8/TUxJBsAIi+ZWioYGGKUI229iz8IRjfxAOBgi5PAvXUmlpCIgjDHGCAjyrFwAt1x19zBy8eIuWW97mDUAACAASURBVA/kvT0x9ebaVu1GTdKSanORgPywsmxoRRgoIZSA2hTJRtrxahQAVo6LxiHOVBoKhSJL2+yuWip5eXmRTTbOPVax7JBSvvHGLEQ0QWZmZnbv3h2xfC/OmVNTU8aOHYOI3FpDoZCTAayKH2xOTk5kB3o+HB6HJebTAGcMwA5B0WcIKSr+q8oJAQgBoVpTLRWsMJRFqIaPIuDDSedsuelVMieXXPBgt0unAtibtQslhZxSzhglREgtDje1S6XgMxc/cBe753HtY0AM0o8CUigA2dl7X3jhZeznqV4e9uzZ8+6771999RVWKIxShRC1FjrV55nS3+G34lvOnXzBxdIWpv9Q+/RSSikkAWGcMc5AsCVrM4AFby46yXfxnBZrx395y7M9nm8UqOdLB0mG9CEoIAS0AgUlBIT8JZlshdRAQg+j7x5sc+muijNtBAKB5OTkCA5XSjkJjF2xpZKRkRFZpEZZLZVot+jgODaJzZs3Yz8nzQoxceLlUW/VAVBKHfedYcOG+f1+y7IqakpRSm3atAlV3nnq1KkT2YFO9VEPj0MQW8GhlCLAjo3rR028A02Sw8HQQeq4lioPAhCtNaSEFLBKYBWSjGRcNvnHCY+SFzfUmfDEuOnvh4GfflxJRInBqcG5JiQslSXEQfNtUEKkUiwj/c/JU/HJQqTWgYh+/XrGqVIqM7N3//59FixYgIps2X733Q+33joVAPmrVdEZtUurz2tWgPyss4ZOumuysiXlB59OhBAiLKAJ55wbHARrNv+yZ8fe37/ecnH922amLW1564C5x7/XpXF7KxUlhrIobA0lofX+b+9v5ySAUiq5Dn5ZtOHaoXcDEGHXuE8eQGVyfrtCajhE3NRquUdnMo7svfTu3TPazTkITtvatWvfqVMnAISUV8yVPU8ng2oV73G4whrn4VJibeGgAFIaN8PQs4ygxmFnYmfucv7RVNs28vNIQa7Roimm3fdm1/P8T/3YZcqrdy7+ddXuwsULF1EoP2c+w9CMlVjC/kf4JSVEALVr1XqbJ2PhJ/6Mpoi6K7XWhBApZc+ePevVq+eMg+UZI95//4Njj+2GGI3XBCZl0CWzE/e2nX0rAM0OHEeEEFZYEEEMwzD8BqFYtWnFykU/7/ou79Hub77Y+FvrrGbv9n9lWLc+oj6ypAgKBQ2Akv1V4r83gGiEFFqkt7mo/ZUAOHVBzs0DcF6NbdtOqomKQghxQj9cMYiHw+HI3DiqpRaP86FVCOct9OvXr3Xr1jFo0cEvl5AQaNu2LQD2jw/wEOxLa7YQkVpxIiYYDEZ2YCVzndU0XLQUiSIxHCm01oxRQL3x+VJ0ykRJ0eEFx/4QAASEaMAOBVFcyDjl3TqF+zw2bY+Y9vJ3+GHR4/XapxZlN87dcuLQIYk+A4AAwmHbpISXreaFAOfDmjbv8vLMVW1as7r1ZXFRlOvX76Nly+Zz3p+XkJBUv37df6vh5Px85cqVGzZsGD36lFg0AwABgbLn4pfCB69sDVPaosy8IYRQQpnUZ/gMGACw5LcFwRW+o1M6fHLr6uAq4+T6HR9pf5cVQJ6NLZZFNGegHLzixhcaUrp+SuKWdcnfbV16XNM+whbsX6ws8YxSKrKQP0KIi0phVbKIRpW7GuRW9KKOj3abNkfHrFF/g1IaDod9Pl+bNm0qeqwzdESW/aWSRCw4vBqQFcIVi5CoE/MuEs7NufThV/HAAHtvEXika1xCwA2pIQsKkWubhkn7ZoYGZ169oRg/r0H+rtsa5dlrlo9OU8cNHcF9BoCw1sISJgXnXCiV2KbF4suv6Llp3a8Z6YxyqdUhl+cVQwOUUtuWycmpTZs0+/LLL8aNO/PfZhpCSHFx0a5dWddfX+onH61m7N8iqnURcn3/u/XGy87W0MzgQgphSZOYhr9UZ8xd8V7+Uruj2WPNq8XZywrS6idPaDqeDEWuja1hmxRRBmbAjHiThwDCVgl12eovNvwxdfFxs/pIoZmrBiVnUPD7/UlJSVlZWRU9XCkVDAYDgYArVjOpqakR5AjHfplGq/I2I/YYaNasSXRbUo4rNgNgWVZFH5EQNqq8KFpGRkZkB3qZRj0OS8yGf621kxY6vTZOv5yGpKKV/mwIQCioz9IaeTnI0b5Enx40wOK4c2MB1uKpdGNc2s7w8i9uODql49BTfI7yUIAQYWWlNG5098qfzli5Wvbpj9w/wVgUNQcAzqmU8oQTjl+zZt2ePVn16jX45+845o2vvlrav//xzkZM9FfATsIMsNuPIg9fdraQQgnFwLiP8wAHMO+Hd1a/s3lA8sm5H6flLQ/nZaSd0eQ0OgR5ArvCQhXAAC+VJJV8PAQMpEji2Aa9B3Q7BoDJjBgEJ3tEB3fFQ0a8EK9dO0KnyAhwvu4WLVo4MfMVFRzhsAWAUqJU1KtGe3hUA7Gy92qAEQLgxvsfR9suOlwUzdmdEDAOwwgLaeXm0t3ZZjJlw4cV9hwyY7vvlWDTfllNh3702ym3Pbpq/rs+Cp9pJPr9JcDpJw0ZPPcLrPyWp9dFDOrXU0otK3zMMe3mvPdhUdGBel8IQQh59tnpgUBiUlJSTHIAaK0ADv+t+HjI/PsBcMZNn8l87Ou1S845Y/yCG39Q17ds8Gyf4FMZQ4MDzzlhWNOOGVkJcmehCAcVV9wEL/UAjcbrIqDFlmreIOHrl35668s3iQlhu8l11JkeSkpKCgsLIzicUuqk/XbFbFFYWBiZD0e1hMXu2bO7ooc4b6FFixYxaM6h4JxH9qXvO6pKO0/E1WITExOj2xKPI4+YbzA/vGwTfFxLHV1zQimEgDHFDcuWMjuH5uUY6X7Wr39e866fBtPn1hvQu7hzx1e+HXT5f3/78uMEACb/dNptbX5eL7b9QRID0Lr0n+jBGAdw9tlj7777/v2HYKUU5/yHH1Y0btykf/++iPaC0knJKqFN+Bbgq1O+mjekfScAuXrvgL7DXj7ro/CkJicvujbwZsuuRV1HdOvdvF3t7IDaVSyCJYoJxsEJodHSGX9BAKl4GopXq7xvLADKhWVVTNOMzCGuhqQ2d+6xikVVxJ9PtMqmlAdnBAgEAhWtNqxLy0fL/f9aNUSsGyJzrPaoUcR+R/3US2GHY6I29ocQcK4AZduwcgkITU9U9bqEhPwlN+2X4ye2LfanP/FZs6/eWPjAf38bf1G731b8KtOpYWiloFTp9xyNRjou5SmpqTfeeM1HH308YsRwAE49haKiovT0dCfjUHQ2U8rGIVKKwYwCe1ODj/6vU99egzJH9g0OOTF17M1bX0jOSstICrTviKBGsdIFIUVACCgHjfXyiRGaK9C3/olNWwKAabhpV8WZRCmllUltzjl3hQ+HaZqRlSetFlEVsYtiVe4cOd+4YRiR+WFUS7eJOLV5xJlqayauGBOiTqwEh/M0x028HKc/CimqzihIKAg0IG0BK59QkJSASk+BULnNj8tt1jX9Jzv9tbfNRR/ipf+qJg1QFIJpghFiCQihcdhwz3KhlKpVq1aHDh23bt3WtGkTZ9z59NPPMjIyWrZs4UxCkZ9dazhp1QFKKQMlSgFhqQEVfiIB629ecf60Tg/mv2uYpllA/M1hawiFnLAioABhYFX2RghoSchu39b87/gHuxu1Lzz9IjssuOkq39FKzFIuilKJmJpwj5VBSumi2cVFTfVwHbEaKZyl4ZuiEUhM8nuWpwWgVGuqhEA4CBUmfoqkAJJScnuNzJr2cmDGmvSxF9X9eS1KirHzTy0snZiA5GTGOBECUla+2Y0bN3zwwYed9d9HHy0IBsMnnNBfShmh2tCA1kprCWjGTWaa1OCqpFDt2YvdJclpj2WsH9ckZXDPRfeYtzRWjVLq+HxpRCegSChLKHWwZKBVAQHRNGignerWmnUo/ZGHh4dHDcYVfl1RJ1aCg1IKUYSh54Cofavx6qAsQZWGVgpCQEtoG1Zh8KQz6gXaZWUO/Pm79bUfeLrtjt1sVxZW/yLtsE5PZ2npBuewBUSEykNrzRi7//57Z8x4cdu2bRkZqeecMy4SR1Fd6qAhoTSjpun3kURDFuXJbb+qDbkN6rzbyJg6vG5JwfSUZ6cdX3x2W45cKqQPloaQUApUU0JoVeuM/aAgeRKZdQel5NQHhOFzmXmjMrhoWNlXmdkduKicnmcB8vgnLvrWokhMvgSnysm4K26CmeRM9tW/qC1LYOogFYpLfh0z+fm5H3U8adCeZ55Z177750t/Ofq1OUMlwTfL5bfL7XAIGY15eobBGGwb/5JA/V+uRuBUrE1KPO+8cevWrevVq1fFetg+e4YNKRgxfAEfTzVkKNfauFgv292i/s99Ojwx6qjgzmcv3P7B9Pmvrl/9dXCaGNt64PagYuB/SwZa3c+eghaXhNu1x20XP/jux3MAyH/khD1SqZnDSjxT9W/EXfHGEeMibe1RXcRkrelk4Pi0fi9QSmJQpDUKEAItwOiEjak9f1rVoXOXsMYJ4874ddwZAGZ88978AE8+ut2sWc+Llk3RoSMymvpQIovyRTgMykBZeSJHnbD7xMSkIUOGVKBtGgAEpCIkwZcAZcIqype/LcS2Vi36pww5a+62pWkf3tsPqf32HVGCwt0vok/RyXl1AavaBcY/IGDgeRrDk87s1qAFABL78CiPiuL4HbtFIXlmgxhRE8oGeVQX0RccWimTMezYaPcYBF8CZLRrl0QRk6Fd164zn98xIVi3c2/LCgkwbhqXXHfVJQCAzn/sKWnc6ve9ha/9b2Y48zj06IGkBj4U6fw8K2yVP8TTycBRjiGSSEhA+0w/JX6EZWFo3SfYIv0tR9815bffFqVfe16H9h0fwUQAKhi2tPInBIpRcM95z3SaM6xRb3NvkeAkghzkMYeB5VkYUP/4H+Z+UrtLQrKRHpOkZzHDRU2tIbjIbBBx5/FsBkcwNfPlRl9wWEr5GTvvoZlFPSagUW0dDoPE5WCtNWyLJCaJE88a/9mHH3XuLTRNMDm0tiwhoLjPd8OtUwCgoKiPmZbRpPW73/z89pJF4YG90Pd4IBFpaX+d6pC9p5xBcX6DpyEVKi1PLv8W25cidPP0l1nJFnJMY/+gITdhOACErLCSzGcwv2kqAmDFt6vZrLqjR3T+ba8waDyqDQAECFnhNkf5rpr2TtNT03p27OWe2FjAVdNbxLjLh6MmjNfV8jpc1AdcTc18zjHYUiEMwPctMsEDVAsVnxMg9mXdKC5CSvLHTQe8/uU3Zw3sHRbSZNQwuQFA66BlaUrNlKTLr7kSwKnwXZRX7GvXbcbbH73+2xqs/x0XXhKVMBxnNvtzy45v8e3HctPZjz3dtmvzgnBWwpATT3N+I2yHpWCGwfyGqZ3WgTKEUPL71Nyrel+0PlcZlMfvIOzsqgBjki9qW7cDnPJyHvGEu7ZUPGJETVByHtVFlAWHlNLPOf74pahlV5gZsCOsP1lFEKIBKsMqrf7Zn32dVLx31KhRYSHMfQYJv2kC0EqGbAVOfc0andSsEYABvTKntD660GcCUNEYoLlhADhn6qS8M0fvTkDrLl19QAsAtrClBKXc5KbzsjS01qTUTqumDnr4vE03ZzcBlTTOBwoGlhfWg5tlPnHbo9c8Nz6ZZ7hrVyUyvOE7RrhIGLnLPOaiB+tqaubIEOXh3pYSwCXPz92xdTcSfEpFsyhrTCBESWX4gONH3/pzbui3n32cH5AyjxDqM7mPUi1lWIiwlGjSqGOXTpnt2qI0GKSy90gZBVC3Xp02mV37dunqk1patm3ZmjPuM7lxoC4klAIYd/r4Ib+Mr30Uk0LG/7xNACFkcm38PH1bSUEce/ZEFRcN3+7aUjnipWp1EfFoVjNnUI8KEeWPVlEOYH3b45FWz1CCEEAraB3XG/aE2CUlRmriT/V6vpxvAsC/FLYllJqMmZQKKW0hbCGiOEBrraVzXiEkVdTg/9QZZb8JwEZw6A8TOrZsWmCDkKrLHFphNLSG0koRzSgrYRiddEG6kQ6AerEqHpHiLrOBi3CR6HQ1NfM5R3PE10r5DIb8XYUNWsEM2PnFmnD4EqnJCVFQCkrFo/IgBJTaBTk45ujL5v3+/uJlnJJDu54wSjljPKL6CIeAOudl7NAzMWMM0A92mZ2Z2q8QILGpi1dZ/tIZijAkmDQgCS0ku3fZnVO6zHvnSxthwkh8S1GP+MWzcMQbNXMG9agQ0fxoCaVMK6TUX3Fig9OXPMIXvZFCbGzZrPKKNfxITmM+HyUKSlRPsvNDQAgoQ342Tjv51Oe+WPv9t4yUpi+LOxQBcHqnCQPzx5qpUNEpORc99ukMQSTlSPLRVEJ1Lrb+kZ0dLNpRb8O9uVdvmvnB6eedZMCnlac34gjHabS6W+HhUSOomd9a1KNUiAYI8M7j9wAAik8499HsAeP2JLbL+n6VbNgM9epSH+PBEhEKKQCUxcuESQjAjexC+8Kpj234ckaXIsNIijevxnDI8gd8d91958WhqY0bJhcpDR0f0R6lykFJKG6wREYDGnt3YX3Bn0FfQbM+9d7+5anWl2dcPfHKQXjGOUIpBeKaWJW46gYxwl0+HC7aUqkJncfDozzEICxWaw1IKSWojycumvU/AAXb14964+3anSct3L42d8seq3UHNK1rALSkJBwMlhoYql15EGILCb89M69B5ldrLhzYkzGmlQbiYtNCSu0P+PZYu7ouOb2Z0TLIoEV1q2Tt/EfZUJzTRIOmcpq9Db9l//lH8a/Hn9Pt97zF21qsHnXfnU9hmnOECAvCCaW0upteMVw0vdUQXJRNy12dx3Ma9YgdscjDQQAwx9FA67AlwGhK49aLX3gEwNIvP39i45qGx/T8vw/m2bYf7buhVS1fGCgsCIdtUAZKq3PRSyhCIXTrcNHrr9XK2XHyGaeBkngw+zs1ZtfnrZtxwiejc8YntkSxpaozQbiGghaQhCI5wBtyGtyFtTtzl+75dPD4PrTV7t93fjrh6e7tcSZwJgA7aIMTzhkzo+z4UjV4i9R4I+JZ3EVWHHfhPdgKUTMfV8zrdvpMDkAqGbYEMXx9Bg7qM3AQgP4/Ff1EiNWO3vv4E+EWndG5Jxql+INaFOYJW4AZINWhPAgAgpwcjD/nlKcf1GdYRBk6DoQ7ERQcb079rPvGPm37pu/IU4xUR+INDQWtIBVRCX6zgclpAVb9WDA9+91jhjYfeHuPpd9sbnpbj0aJ3QahGwAraGuiTB/nfndXiHXXIrUm4K2n4w3vjXgcliqaBiihAZ9JoG0hbampaYw+66zRAIBuJ9RBx6bf5G595IE3QscNQ9djUZf4ioQoKpASYBSoWuXh7O9k5ePMqy95bdGMc4aQ6lajUmjup98vX9Xx+349u3TZUVDlakMDgIRSkD7TSDN4qsLqX6w3dr+f12j7nR9et+XHQLv+gYbtE28bfRMAEZJCC9PHDZfrjDJqgoWjhmQa9crTx4gjvudEl5qpz6puPnA6I2eMMwDasoUEGDdOP/ssAKeXFA4f36tOZtd7Xp/z5oKV4cFnodMxMGEUh2QwqLQGoVVXk4UQKAVtzcyrVfvhp+67YZKUspz1UKKOFJIbfN0faxZesma4dU5uQFNdhV1VQzmuoJylcppG6PZNeHPn5x9as1/7+omRqm2+v05iD1zQaxwAZWlbWoaPMx9lMKusjR4e5cebFw9NxM+nZs6gHhWi6gTHAZ3R4NwA9ikP6ktIHjh0CIBZp/a5pVeruh2POePGO7/607QHj0Obo6BAQyXKtv7mvBnd/l32mWlNCIE/oBN9aN/9/vd/vg+QToWY6oARBmDr3KKmq4/pMBx/FJAwhdR/c+CI4oPQf/uzIoQmcJoKmrsXi3b/+Mze++5/ZfLE0f27bTDrdE2qg04AIGBLmzDCDGYaR6bOqAlbKu6KUnER7uo8Xnl6j9hR/RZvR3loKcNag1BfnXod6tQDsHDKxCD3hajR+YILdzbrr/qNRK1aEDaUvS97aVn/jjS4Upf+6+QnB6UAAzc04di4DgtmX9a59iOPXw3AZNVnFGUQ2hp6dc+3fR9mXn7nhHo3HF87MzmJhigkgQL0/vcRqfQofZYEAChAAKbh01QH8XPupse3Tut3RZdbn7r+uC13tmzWksPo27UfJISSIJoxxln1d6T4xEXLvhqypVL1uGtLxesAHrEjXuYJQqmzNJZSaoAQymrVSwKSgB2zn4A/ecO6tcdPvvHPHqPRvT8oA6EwOaCJFFBSawCkAvOt1oAmhIBSzQxIBVtCUgRz8dlbp9Bd7z90My66CzIMAFpVb1wsgwFgzGXDh1ySmcoyrr3ihs0vFY9venVr2paYYAzcD8EgpVbQRFOUW3nofXGthBBOiUEggxAC0sJOsuv1rf/b3nbtR1veOUE/k0D8AI5u1hYaSioFzRhlrhpJK4O75ozIcJeFw0VNdZeFI2JcpK3jARd14CgSL4KjjLKR3amgRiil/mQArdq13zXvRQAL57131stf7Bl0vmrQEmFbBxKQlEy1hAhpobRj7fi3rq8VNAhAONemT9saJYUIFSHBwHefn7j923nTrgycds1fv898UurqDdSFk1VLglCayjIAPPb0w3gaAIb0H9Fud++Tk89P3p3BqJmSaPqTSFgjLJXSjqGCAv/YcdknMhRAiPZx5ifUKkFBsSwOFdFaaqH+4K2i6T9sWTgAdzpHJJFkAFJqQFFKCYvn2i0eNYKaIAGrBW9LpWqomfos7gRHGWUDirM+KMu7PGDUaX+OOg3Ah6+8eM3STSX9z9hVkKQsjTr1kZLCIBAskVIAFGSfzUNraAVoxk0dSFSK6JwcbNtBM5Lq7drQdMW8dy8d3eiOccC40itqEJSu9ihFVH0kIoGAgEJBQQEglJa259PF8wHsEX9eOPL8IfLMzuE+wU0q1ajVuHYiS0QQCNpKK001KSvOUlrPhiLAWQKBKsGurPDeYJa/Aclq9ceTa+96/LV7prYePxXjy66uldbQIKCURL3a3xGPNwp7uAuvx1YNNfM5x6/gKMPRGaX2XkK0UhrgjI08/8KR5wPAc488PLM4NVxn8Oq1v0tloEVrZKSYttAlxcIWIDAMrhPSbErkngKsXcHSA11SqPnLB9OHHNPhslFAfwBKa6UUAzSl0Bok7hSokwdca+cBgBAipaSE1uH1P/zkPQALf/7slVteP6v2xL2rk0O/6EaBpq0aJyMRhRIlYQFNQLXf5MkMRgh/bAmvKtrEG4iUAfzVTQ8NmZQ5/tQJ4/AZAK20VJIxVvZJxNuj8PCoIfsUHh5HEi4QHA5lcx6hFIDWWkgpNUyDT7z+hokAwnn/e27ugkCLvUhc+tFaK6k+2nZGhgHA2hPG8mXgJScd15qHf7mC0ZNOOR+ntANga0ghDApKGSuzZsTx/Lr/3O9E6kollVCU8AGdBg+YOxjA9A+e3fphTr200+a+v02sSGyf0alFsyTlBwlh6+bg4r2/iDrZnca0+b1kAe9tTb5g8kC8AEAJ2Mo2OCWEOmf2dEaNwl1Oo96WSozwvvqqoWY+Z9cIjn/CGeMAtLaEECABX9rlV111OYAd294O0T86NfhWb5sz73f42bkjWndsU7/bH+sH9UrHgPEALEBYto8Szhjnrky2XQYllBoUgJBCWsrk5qWnXIZTAGBlj08zRZ92OUXfz1iMXU1Yyq4u17ZPaZz8cWhR5gWDM3ENANgICYtzwjg3vWCTf8FbT3tUPdUyJ7lFcbqdmvmcj4QJhlGiLaWVJj4CAI2apK9f1fbLtRduqTf0vUDAj5OzC36rvdXokY5AaukhYQWliJMK5EiBU6a4DsLWNk00GIBrxl41b+GH77fLe6F4Gy9OI8k7T+1rDw1jcr/rAAag2BKEaM4J57wmdv9yUxPW0+6KUqkJErBaXkfNXHlXPTXzObtYcCithKUMypjJWQAAPvnmw08f/+4/Pa9f/Sh+2s5OOKrTmLpQCuum44vN25p0RfL5OU8ue/CiJ07tUr8ngw+ADEuhFTeoq2cUKaUtNTcN0yhNvPX4I4+vSGuR36r73Hez0a4Hjj8RiUCoz5Mrf39yzbKB4R1H/bm21daVU26e6pzBBkTYNhhl1ZhxJI6pCdObu6iZ43UV4CLR6eE63Cc4lFJaaQrKDMb8DMDa/J/uG/W//3S/kf3Q4ZgfMrKX+s9tPArtkRvGdiEB1GnGLm8zwsrB5oeDHbNHFRc3/qTJqre3v3DL3EnNfW0YGAAlpNKaUOIi5aGUUlrzUgDgnVmvPrBiZ+0zL/mEd0UoBflJuPACIyRUfp7OVaCEdWhhH9fmy6xiFDWEz/xieV7h3FfPa2xMuvwyw2cAUIAUghI3PYcqwEXF0CPGXT4cHjHCRT3Ww3XEv+D4K1QCAKWEMUchIAtbr+5/+4ikc9uFu49eew3b0aRNutmpz1GFCrstqQs1BTfAAFgWdlqCBmidNoFTaJ/C7aBr00cWX5E/suGT4bdXJS+5YfZ/2iW0K5tStHJSd5YmIY00j2m0+ftUQCll++q7/LBg3qhXFtY5d9JqIxNtS5BF0KMf15oEi+ysHJsSMArGAa2Ki1CsDNNQnTpIRr/IysNRJ34XYDM/2ZL18mPvjx/cc+gIykt7xf7L+jj3pY1bvPnbw114tVQ8Ykf8Cg6lFJyKbexv/XiT9cedox9uvqnz6PrnXrH1oQQzJTVg1O+YGtIoErqgRDEwArZ/+gwCcM0hYAlkQfJkWic9oYk+ungnepaM7KYGFQ817s1+eW2rxbe+du3RyR0JdarUEwBaak1Kw1Cr+An8hdaKEEoOLBG78bulx97/ihw5obBeHww75k+RgbqJpCGl4ZAqyBEgIBR8/1dMQAlAbalQmE+gaYKpjm6jNX4qKMKIq3rZKRkv/xB6+5nVt1/a4the+y/rNaCkpCjNTFLT8LZUPDwOjaetK0TNfFxxJzgUFCQIKNsXPCJhMZh7wllTzr47cWGThEx53gAAIABJREFUc5tfcX3oKZgwi0hKkwQJ2ArhsAJAQSn+JQcmKf0P10wrWJYKE9AkmpESYCpgBTGKXzBq4wV7j8+dvvextY0Xvrb4+QxfHRuWwUyC6rYzE8IcqSEtMPOPn1f0vOelPR0G4dgTccF98JkwOBonUWFpq1iHIQkBPeSbJQSEaSeda7CIaJAErpIbQ6qcum1xyYMtswO476P07z7Y/PiUlKZHAYKAO/YUJ2EJqRl+lDUKdzmNugh3fSmeocIjdsSL4FBaaakJKDOY06h8ncMUZ9KYeMqVfFGDcY0uuTnxSdESoNBpUBRKISgVNAVAUe7046UbJJRoaA1LAUQRHzUCYAp+mX55w2t58NoV7ba9sXva9parF/z0noYCCKCrK+Uo0QqErfx1/Zn3PLOhdlcMOg2XPgpIaAnTR5SCCGkB5Zg0KtRGQgCiAS0kRAkhAGM6KQCpcdzA3OMGpa628NCMDsW/fXHv9RnpGdwO0qQ0yhgAWykoTaD3bex4HARv+PbwzGMeHg7VLziELahjzzAAYG9od9bOrGOadrxt3EPZ7+lTa19wf4OZujvCBGFVWjxdA5AAQCo6v+7PX64ZVGtoCUVAGMAgDDRPbnJvkzuQhfsT37u++CQuE1BNs6ollY+zmV+vvuTzfEx5DFlhSBsyWOZkogGUX28dFGcHCUQD0ApCgQBSAgQ+ijEX/kJ5vWXZmPd0Zu3wSzdckghdjwSNuk2dROeW0FpLRknNqeV2RFJDnEY9CXhojvgOECfUzH5YdYJD/73iqrAFFAxuGKYBoFjnL1r49ZBOw2bf9vGnz3wzNu2S/za9z9cP+UCe0FIrqghBqQ9D6fwYPQ549RoIKyUU3VKwHRO2G0gQEKyaFAeFBnB8qkgoXF2ypRtltlIalCJGzqwHPAspUVJEoGlqQE68bplCm0+34Mt3+zakj1w5nmdtb1/L72/cyulIJUJSrUxGCfGURykuGr7dtaUScVNddI8eHkcYVSc4nEpqti2VrX37dAaAF99+8YRmg7cu3fv0dfN2JmaManrBJSdekK2RYytlKQpKQfm/eWbEBq1BCU20sHHgV/99/CrsSyJeLXDGhFJHd+y65OKEXis2iKYdaUmu0qSKYkYIASEakMJGTg6lmjepa19x3dcCPd9bje8/G9Sp7uQxdcM/LhncvUNCw6MAJoGgZTOtfKZZFS2sEty1DV8TcNEbcVFTPaqMmil8q0hwSCmFLX3MZ5jc2Tp58c0XaxU07JjQc9G5m2xjc59GmXMGP5ujkR/Gb8U2J5yC8kruFESE1lBQTXx08rJ7pi45E3HQMzghxZbdvf3R//3+3bvXaXZsZ7UnB5RVaZwqIeBcAVYojJISRinv3M7q1fHzID5/byV+2nBKScbo9iy87JOJ545NTEyFkz8+ZFMCn/lXN6s2R5jKURO24WvIlkrVUxM6j4dHeYit4FBaibBgzOBmaWqqjxbPW/nO+ouPnbRziq9oN69b2/fsiXcVMORZWFcYZoQzMB8xqm1S0pBaZfjoS4sXtH80vVmgVTW1Y/8WAYCPEgC3DOz61iNzfk+rxRrVl//f3nnHR1V0ffw3M/fe3U0PJIAQWqhKV0CKFFEUCyiiWAAboiIqih31saAgoigWHkHFBhYeXwUfpYgoCChVRJAiEmoAA0lI3917Z+b9Y8jKY8Fks5vsJvP9w49s9t47e+7MnDNnzpxTVBiuXZWTQyko5RK8oBB5jsEY69zB1+v0+dnO/K83YieWrs1pWbI16efv7r3vHsttAvBLcL9tMGLq8FJNiIgiLR5dHo6gYwtqZlCCplyExeAQQgghqGTMYszDAGw78tPUG2bd3fNh+4smSavde1LF6ObXiLY4xvFLiU0loWAu4qrixa+EgIhx0YyduR1mJfe97jaUbmxX4VhSD2aMOZy7Gqavu29I8/m7jsTGkhhDOqLK/AUEIBTUciSc/DzkcsO0WJfOvl5d/nOwCBk5KGy2ek0OX/bJ+XH2rWNGw2UCcCRsx3ZRSqJqCka06YzgiK4Yjih6I1FkG0EHx1QWNdM+C73BIaVk7HgOzCzsv+u8JwbXHdE0u23P5Vfl/RR/Rmpq97PbFXJk+h0UgoJaqDp/xv8iATCS4MPLKS/dP+RGANzhlNEI6RmMUq9tJzRo8knbfb1yiiVSCfHKP8TiVj4EIAao4UjhFOThGDfdJuncyW+c8X+HchHbaZ4p567MOvzOiy8P6X7OgIGGeTx2R8qqs5bKT3TpjODQWyphIopso4oQIfOkJpIJ9UiQoJTmI3vkFWMmdX0n68LUYVsebrCqc9KB2gO6d0tNd+d5+G9F3OuFIQwDBq3IudaQIiUc8MYWeXj1xH5TOtaPayg4aIRVMnMZRonDz+rdu9PHzyI3V1puAIgQDUEoCIVh2lz68/KQk2PGmazT6TjtjG+yjW1drjnfe3qrT7fVvvTmQ1t+BKASqGgih+jycEQRNcFahfZwaMpAKD0cnHPDMNYeXFs0us6YtS+iljD9rnYtmvoJbEdmFwuA0f9NOh4hSAlBRF2TfbD626Fz+5x7Xk9IEBqJ48dFAOCH2VNc42b4+18Hk4Hzqm7U/0IIVGYwh6MgjwA0zsVrteJ++UtJLIY9Vn+nZ2NsZsem9WT02By6eJtGowkhNXOghXLGZ4wJn+xav6uTWizdTu1TXDwOBY7w+4UUhIJRojzwIXxmKJDg4Ekx9Octh9tNTTn3ip4Q4PJkWlwIITgXodb0QgguBBfiJD2RUCqlBCzf1DH45UeYMUDEODn+ACGgVFLKHQfFRbCLYVGzSQP8/GN63doAi6KFX9CL1Jo5rWg0mpMTRUuREBLiJaYt/AC+9H60v3ivwSGEoLK06FhkildCSOG2mDiKT8y3Mk/bAsC2bfpXqauE5NzvCD9njDHDYIYRwk5DAMaYwZjBmARszp2/MWhKXd90urkVO3eQuITSsyyRCiEgFJTCsW0APy5kxXkAgOixOGoAektFo6k0auZYC7HBoYIeWlxVz9XIcIpAKIlwoUqAGsQswLxDC3q/2mJIr6GOLQzrf3aapJR+n1/4HEYNw2Uyl7HLe2zrjl8yNm47/ucKdx0hBAjJzc7duDtj96bNjHPLMEzDcAjxcW7/wfIo9XuPvu2m9hs+kJlZYAYi310gpWmZyLHfGT04NqUWoiqYLoqaqok0dOfRaBQhHgmGaQgbN188uij98NE8n8oeEbFICUlkDEim/1CzCZ6hl11u+xxm/N5mv9fn+PxUUpfbxdzm7uKc+YsX+zbuWTDwgU9b95xwekcAITnh6XccAM+88+7pTz2e/vHst3fuWLM7Y83ni0zAbRiWYfgIShy/w/nxXSlChJCAsWna+Na//QArjkGUbqxEqo0nOIlNwIrFPdufCph/57+JTILeUqmZjtNKoCZEYurOo6lmhN70trkN4O29Lx0rPmoRSIgI1YASEiLeRbIPZX+WNOeiUb2FH4aLgsCxfU6Jl9jS5XGbblc+ky9On5G1aN0vw59bPeDqbacPuuOr7IdxxXk4E6FS75QCSK2TgmuvwoTJN8Qb3b7/utuKrz4ozn/jiy/WLFjsBokxXaZhFAMlfr8UghA4XMByfzmkHRbNJQ1qwbEhI3bvClQKvxs4sN7KOVzVbak8aqbjtBKoCW4D3XmqMTXTmgx9Hg7lIbjtleHGGOYvBnVRKSJSBxIYlJZk46Ocj7q9nQ4wv+MltnSZpmm5YQHAU1Om9COn1N+enf/mY/vRuD8anY+r4BY+UezyH8tFUemd/gHOOSHkZFOkEAC4z4/DWRZ8NDFBXnOD7xp2TeYOZO2LYcaU4vyM6W+M6d23adfT4XIBKOEObMdg7oapSXcnHH5h0Wqzbzf7aA5Y1VcA/gukNNwe/7686Tdc0rBVOgBdWjbSiK5TKlHk4YiipmoqjWgZaKElDAYHY9KRF3Ye9O+YebVyBrnc1An5M0IE8WKXP+OyL08/s3M3+Lk7xq0+nzZzZtzynUPjWjacOdOCuwHq/4sMg4tzXlJsH2NeZZqWabtIZSlVad3L0MNUvRKX3+9HzkFI4UlJsW+4tRhizP5tSI1bgOIL92fsn/7GR7eP9TSoe9y2MOOmjr1+z+wVn+7Yz+qncL8PEajLBUdcIpbMO+3a9oDL5wiLRaIVWpOJrqDRmuDhqBJq5spbUzmEZTXsSMeE+XrGc2dY/WPiY53I68ASMAFvEV/Z/b2nOz8GABZ7Z8H8XY++O67pWV3/778WcixsvA594SISTpEv2/AyBlg4Xj21LFspUkpKaWFhwfffr+7Xr18Zp0gCAUpgGABKvF4U7aNg5in17etu2sYLtx3Yhx4dd9LC1EXran+x5P0nJyA5AZ6EORd37LL88M8kjREfr/L0o3+CSulnQN4vtXNTgHQGAURTXRWt3iIN7TaINLSlovlHwmJwqNn5s+3vHTjLEXallaQ9Gb+v3Mjx/8QDT9EJM2Y9/u6yRT+OnHJrbLu+W/d24Qc9PyzqjjSYzUFsr11EfIQALpSvNKtybFBKi4qKPvroP/36nb1u3bpu3bqVdQUZ+BaloJYAfEUl4IWMMXZKfbtxy43+PLRujFqDVzu58vU5Pbfvnf38M5NcGwetWiwuGkAOZ0tqgATuUxU13k5ECtPj8WUceWnUlW07NeYAi7YqbjVBvUXXloo2AcOErqWiCR/hMjiEEGmepq/nvjq81hhiVF1Rcvm7zqUElIBwEI5YN971fpWz9909zQ5ckpF7LmQqfjURD6MNwH2cE7uIAIbKUxZU0wkhnPOHHnr4ueeetSxrx45fPvro4yuvvJxzHsxcqWq0ArykBEVFzDDQII03Sd/tLcIF/facxxcc2e/5eVX8pvzCtl1lam0UF4EQSE4gpSiVQlUtQbiQ8TFYvCC5dgOgsW07LiPKDI6aQHRtqdQEE1CjqWaEa5WgZq5F8v+4L2zPONnjISWEFIJIxuA24BKQRfDnIP9Y8UJn0c17Lh+29sX/FnZulpGdCKs+aWywWn7K/I7PdhwmJQUhhIBUyDdw6NDhsWPvtCwLwIAB5zNGli//ljHmOBUIa6EUhsGl5MXFyDtGbU5TU5BWLzfGOHj7mIL/PBu34fXaLz6IQ7vhc+CXUjBYbmJYhBAIASErPy0pJdIPUHm0tX0UAIvQY0snoyasp5WHo6pbUVaiqKkajUYRrmlUTQdrdn99kB8yKk2/SAgpuBSCcMNAnEUTCPHlyt8y8w8V5Pxaa+P1O88peHPN7RsGTGKuBjBBPZTG2ZT5pd/hnIrQ2BkAKKX5+fmbNm1q1iwdpaux/v3PS2uYBsA0zYquzwhRPg8hpfD5UFhCBIhhmMIpuOXixc/fLK9t+8CqKTGfvWLm/4bsozLnmJQMMfHU7aGUQAhIUUmWhxRmTCy275903RWdzx/ok1AhtFFE0Et/FcQT8vaEiRri4agSSyW41lZJU4PuA9oE1PwjYZ8N39g+1QXIsCaxlpASjuQO4YZFE900hbKSLGdnxuFNh3YdafnrizH3LbnupYFLO633L+3d/ez/dBhRf/chsES/4EIIEjo7A4AQIIQUF5dMnDhlwIAB6kO1x5SYGH8kK3vx4q8QwiAG1WxKJSCFsPMLkNa487rvfti0+ZmJE4pmjPdfXv/BdS833vR5Pd9R7N4p9h8QwoWEJMMTwwiB40CEOVEKFzzWja3r/WuWAhB+O5wPCzFq8vV6vfn5+UFcbhiGaZqInrk4uHZWye5GTk4OgtKOcXFxYWjOyaCUBmd3Von9pwQbBPHx8aFtSfUmWuaE0BL2tabnAh/PBImloY/jkJCAgBAQpmXUMpjbj8MHxcZjews9Rxv0qb2yZN7BtO0zX5h5DmYAAIeP4dH+w6/9aXstdrqPFx63M0KK4/gZc73z1juPPPIAO6G6PaXUcUS3bl2mTXvV4/H07t1TBZaG8tnK7XHsGIYMP+PO23674dY6ndqDuCdNfmYSgOzM+1/8aHmdjvl1jO3rM534VDRsQlINs8QnvCWOw8GM0IeXSlAKx4fkenGDG3EARtQs+H/Htm2v14vyK4BoiTNQvyshIcE0TZ/PV/bQUfUD8/LybNs2TbMyFWRBQUFwF/or3eSNiYnxeNx5eXnlHe/FxcVHjx5NSUkJU8P+kuBsawA8qnIHa6qEMBocUkhCyZtfvLSoyd7WiY2LbEFD4lCRkAAHl+Cmy0o2aYxNszKx4tDPObGZpw5qkh//y8+1ll3x8JN9ME593/Y5ftsbGx839725/b860BYdfaKIgYQ8iFII4XK5du7cecngS/68kDIMKqUcO3bMwoWLCgsL4+LiggwgPQnK5sg/iJemDp44dVWn9g7nUkoOuGs3eHbCYwBw+Nf7f1idUb/7Xj9dP2+Tv0V7NG1Ga8Mq9NolJZwLMCN0kpHMEyv2Zg7r3KJNjyZeLlzRtp8C4MiRI0VFRSi/wREtm0eqE8bEeAzD8Pl85b28sLDw2LFjqamplWlw7NixI7gL4+Mr28PhcrlN0xXEhV6vPycnNyUlpTIFu23btuAu9Hg8oW1J9SaKti9DSBhjONTRiOzCI1P2PhZPwGXFXPcSkOBS2PDDRHIcaxxrGfuxauXWVzfMOXzRz4mP5voe29L63+7hz1886eHnTBnjL7F9Xp+EZAZi4+MyfYWnTf2mP+Ic02YSIT83wzlnjK1evWbNmvV16qT+5XfUEqdnzx7ff78GYTodqmyForzvrrn0w+XLDMYMw3AxJoTw+uwi20G95s8+dPfHl3db154/kPrb+Nak6+EfxLuzvfuzeXwyq1fb7bKI7YfjhCDIQ3LhcWHn5sKFcwFIJyrXQPv27QNgWVZ55wj1/Wjxc3g8seW1kNQPzM3Nzc7ODk+j/hb1xCBm7ZiYyjQ4CAC327Iss1yXqd9VVFR08OAhVFYXUnbn5s2by3uhmtY8nlhET2+vcvSWSlhIjkscNuHCojkwUhmCOJwhj//HgcMMGm/SZMM6tgffZ/7yXdHiy/51drOWppfylld7TkGbC3AWALuYC+qYlmm6DQCcc8MwMorz3ul1zW0/5sNoye0SFtq9A0KEEIZhlBQXbdm67YLzzzMM4+92TKSUCQkJsbExL730yp133h6WzAfqQEraKVev+h6v7bzq1lGOEIxSl2UAEJz7HEcyIyatxTN3tQDwcJ2tL9qexn2Tn5j7yc5fjvGzL0LzuqaEkV9U4vWCENDypSEp/amglPJCp1GbJi+0TgVgRlV2UfVOAfzyyy8IaoJo0KDBifeJWNRPS0xMdLmCWYhnZ2fv3bu3devWoW7X36LcG+UdO8rnn5ycCEAIUQnxvKrLxMbGx8TEBnG5EM7OnTv69u1dCcpJCSQvLy+Ia23bBpCaWgs1deEeBDVTUGEccoQQziWFde09Q9Ye3RpvEF6u0FEVCgpuU8ftRlqsUTuPbtuUdeeXT/x46YruXyed81mLNk+knDGs1bVXX3sK0p0Sx+e1heCGh1ouKzBEDco4sO79T3r9sLNuzOklTnE4NlNU79m+Y0e/vr0bNKgvhPi7OULNkj16dK9TJzUrKyu0zTixQdRxcNXg0f5CFJXIE1wphFK3ZXkYdTgv8fm8XMaknzZ++JBhaTFfXtDsgytaLR1QBzMm2u/NKcmzcUptK7mWySgcG+X2UQni8iDrcEeSl9T2jBJHRF2+L8X69etRzqWb6g99+vQJV5vCQO3atWJiYsp1iRDH3+mCBQsAMMYqZ4G7ZMkSlHPKVuZFenp6ZYZEqEnANI3k5CSU53B14HzT/PnzEZJzbWV4IoBvvvmmvBeWRsQnNmnSNAztqrbUTA9HuG18AeDXQ7/MOPpcIoWQTpkyggMCghNuWqjjYqf4jYPbisZ99eRb6TP6b6tz84oLek5ukda1zsUDB9RCPe4VttfmgjM3s1wGIf/zi6QQoCTnaHb8qHfPRS9vyVETNBzWhmEY69aty8o6mp6ejn9aPKmudtVVV27cuPH4P8Ow2BI+PziOjRgyZvkSE3D+NGExSt2W5aJwHKfEZ/uEbHJqh6vO6dkvkey644JNd/VZ1pXgwVv8ixfZfgOptZknlhIJISDLlsxDgpsuZO6Riz4AAB5N51MC7Nu37/vvv0dQMXGnn356GFoUeiilapFap06dIK4FsHHjJs5FpSUq/eKLL8p7iRp07du3D0NzTvZQJdj69esHcS2A7dt35OQcQ/gXxOpxQQv21FNPTUpKQk3Vo0GgPRxhuDulAFqnt5j8nwcO/wqX2/oLGcvj+ivwJwbEE1rbz3L3eicve/WW324661DsoxnDb3p/EEtFj7O61kY9YQu/z+GCUxcxXAYlf/FDpJCUsWOwp6cPvBDJNvUbYQjdkJxTSteuXfvNN8vOP/88oBxunA4dOkyc+AwAEo5dFUpIiQ8J8dPddMKMmSZj9t8skhhjbsuwCByH+2zHlkhv16l907Q+DRL3vXy389iAj+K2YNx1fOMGweIQlwTLhYDApfxr+0Mt0QqLG3ds9dm0RwBEXbio6r0rV648cuSIYRhBLDFbtmyJaJiCCSHq13Xs2BHl9OUoO2zFiuU//PBDea8tL+rmubl5ixYtCu4O6o2gsjK5/UGwtm2XvTOoC3ft+nXp0i8R5jMggQ2mDz/8EOXsserCJk2aRPi+YaQR+dNCOAj7qOMOB4zUtolfHlyaZIKjdNgc11NCEEEpLAZLwPDDLIZ9DJ/smX/++r4tf/ROkTe/uXMygGZN01M9p4DDsR3OOTGIabG/tDN+/22MeoEb2537UEECaKIUPBxVRShjAOLjk669dgSAch08qVev3gUXXDB9+mtuywpxswCASEjq9aNf339RsfjN9y3GfH7/SS5gjFoGMyBtx7Ed7kg0bNmaAUN7dy789Fk5ttuEX97FhFuRsQvEBHUBDIZJDIMQ8heWh2ki71jsjysQk1JicxI9KbBwguKcM2cOgl2OqLCGqJhZVCMvvfTSE/9ZFoQQKtfIjBmvIczOfzWy3nrrzSCuDSzEQ9ymsj333HPPjY2NRXkEq/ymAF57bQYAy7LCZ3Oo7v3hhx8WFhaW91r1i5o3bx76ZmmqHWHXAWqe3l+8a7X9VYwfHALHk44Lw4DboLGE8kIU5vD8Qt9GsmbIj/1yZq6868Al6+WipMQkBjPZqi2F5JxzziWVzGBl0ehqCGUeOvjoFscip/iEj4athllGxu7c3Nx69eqpgyrlurZDh/Z9+/YpKikBIGWoZ2pKhOOYjoOB53zQIR2Ay+WSZdAHBmMGowySc+5wLkBiU+oCeGT0DXLxy3Jkm1GLHsEHU3DsCIqKZZFfwoDLQy2rNI2pBKSgBooLWu1YBoBEW+y66mPTp09fsGCBKotT3js0adJEBY1GRbJR1W87deoURNyoEs6nn366YUPpFmEYUE/JyMi45557ynstIUTVE+jSpQsq9ySFEuypp55au3ZtlFM4qp0rVnyrdjrC1JEcx2GMHTuWf/PNN6unlMu89vv9AM4880yUc7mlqYGEvXOo5Fc9Tu/2xH/H7fkVbo9JDMRZtLZB/Udx+EDent+yDp6y8/4jVy8e/sLQtWdukl/37nkWAAtuKaXgQnABUu5sfZTSw6L4u/qDOqGhA5uGIVBU7c78tPmnjz76vx49zgwE0JUdKSWlpE5qyqfz5wNwuSwIEeKXQohdWEjr1X/HX/jQ/PkEIIyVxeZQUEoZpURKLgQ/Pg+ZAGY+/5x88xE5NO3q+Y8nr/nE483F4YPiaK6AC7GJzOViBCj21kmr88nMlwCoAzLRQuBQ4qxZsxCsBh0xYgSiZ6dWqZl69erFxJQ7m4Lq+Tk5Oc8+Owkn7COEECmlGlwvv/xyEJerqaNnz55t2rQJbcPK8mjOeUxMTK1atcp7rTrfZNvOpElP+/3+4AzfkxMQ7Ouvz1C51MrVY9W1rVq16tmzZ2gbVu2JlpkhtFSGNer4HIAdpZnLMxe0joUvy97+a+byHRuz2+6Z12z62/0f6r+wxZdZcx964EEAnHMppRBCCCEhCSWElnm6L32FRCIXuJ+1G4FGgCUR6pyeAAA3TA589dXXDz10L4Jaf6ipOSU1tUH9Bos/+dTjiQWhIrRp4AkBpSInm/Y495nDu9+a/T4B7LKLtBRKCJUS4jiccyEEYLz/5is5T48s7i5uXTfztANrGvgOY8uPfP9h7k6CKyb307cA+CpSrK7SCZww+te//rVhwwYEuyDu1q0HomdaCfgABg8egvI3WynCuXP/8/HHHyPUa/FAkZfPPvvsxRdfRPlNwFL/TRXE8AYEe8kllwLgnJer8Y7jUEpXrfp+2rRpCPU5ICVYQsjatWsff/xxlN+9ETA4kpOTESW7h5oqpFLcXxQA5CklvyZs/79VW4922XXgku8+v3hq77kNnl3y0NvT34SE7bMd2wkcBiPHK1eWs/sSAkJsrw+UTB8z/jW0B+JsEi73aQmcX3N/G33rrRW5iRrhZ/fudf55/b9Y+AViY8oTdVo2CIFhIPcAbrnzaRfL27XHRagTxFKJkNIXQyil6kiC7Tg+hyO14b+fn/jz3YP3nFYw+vDi81hms7zd+PbLW+pyVFInCw2BHjh9+vSpU6cGfR/GWJ8+vREl+ykK1dQ77rgzuMuVsrnttttWrPwOpSuHkDRMhTT+9NNP1113nfqkvHdWbv9zzjkHVVFRT4Vi3HjjTbGxwecce+yxxz759DOUP/vISVA7IJmZmcOHDy8uLlYHXMt1B3UGp1ev3qis1CaaqKYy+gczGAS6deo+/NNzNlz3QetZ5shXr3jvjfeIMG2f7fP7JKRhGcwIQZIG4XDL49649ech0zfHwHCoBGR4YjdEIoyD+/Z7PO4Kjn9CiCMl4uK69+6FxAQOhPwoDQgRlNDio7u6t3t413bYjmkYIhTTlsGYxagQ3OvzldjCSG87/YkHF1/Tc1Ozo3cmZr786H3qOxV/UCW/b3n/AAAeBElEQVQQWH3OmjXrwQcfrMitxo8fHxtbvpwWVY767R07tlfRBuVFjYIjR46MvvWWrVu3hmQtLqW0bZsxtnXr1uHDhx87diyIm6hV+FlnnXXRRReiKlJhqkVFo0YNmjdvhqAq8hBCSkpK7rj99lWrvlOvqYJzjhKsYRhZWVnXXHPNzp07UX7JMMaklC1bthwxYngQl2tqIJVkkAoiAXTu12Hi1AkNzGZ2ieP1+gSEYRmWGbIDGo7jMIP996e1yzpc3RIUNFYISULu0pbqnkZu/05nd+iMkDgShQAwrNMZdYu88GZT0wh97XhKhc/H0tJfNez7n3seXLDQLUcIoS7LchvEcXiJzy5yROxpXabdfZNEdFQ8Dyg2AO+///7IkSODrg2mOsMll1wSyvZVCiraAMC4ceOCvgkh5OeftwwaNHD9+vWMMUA6wW6oOY6jjsBkZGQMHDhw8+bNwQ00dYimV69eVVW5N5CNY+zYsYFPynUHFex18OD+wYMvXbRokfIyOo4T3OBSAfimaebn5w8cOPDbb78Nokko9dy0bdu2bt26CFOhBk31opIMDgJIKR2f4y3xCeEYbuY6IRloqDAdCWDvuH9f4SRTq55P+ClkiGNFpeSQBmIfxfJVbYLJA/2XqCYSKW5csSG2oETEx5LjZz1CCmM8O4v1GzglhjqZBxH6zRswRt2WEcOISiYmeRQselRUitJG991337Bhw1ABtSSlbNeu/RlnnBHKJlYWSmdUxOCQUhLCdu3K6NGjxzvvvAMQlcKkXNGOUkrHcQzDYIx9/vnnp556akZGRnBvhFLq9XoJoUOHDkVpSEQQ96kgSjffcMMNQec5FUJSyo4cOXLBBRdMmjQpcM/yClYZ1oZhrF+/vnnz5mvXrkVQ2zSEEFXnT+1zqZjWct2hhlMzxVWpY49ZzOW2CAmLIcz9NjzWN+/NO39pVhqa+J0w1IOVkgMueD7Awp5fvlGvnHmg/5Ftx/IfufLK3q+8jR07SVIyRNkSepYdQmAaIi8TY0d3WbMSAAtbp1fJxCI594bSgmobmzG2e/fuwYMHP/fccyh/6JwiMINMm/ZSiNtaubjd7kcffTToy6XkKnXp9ddf//DDj+bm5ioJK2mfxPGu3ojjOIQQwzAKCgomT548cOBAv9+v3kgQSlE97qGHx6vUW1UVZBAIj5g4cSKC3RAR4vip+/Hjx99yy+i9e/cTQpRglTfo7y/8XbCmaXq93lmzZvXo0ePIkSNKIEG0R11y7bXXDRo0CNFTGDlyiArXb8iJXH1QLoTDDZe14KuvD1z7RAvE2UxQIUMcCSGlAFymay9+bvf+zAH9+/OCklDeHzC4s9dkCx5+JH7xt+JoFnG71HND+QxCJCEoKf6xW/t+48ejhhnax08/SQl14pcxxlhefv6QIUPS09PnzZuHE3RDeVGSvPHGG88+O5pKqPwlTz75ZFxcHILtHoH4wYkTn6pXr96dd44FoKStPhd/AqVvRKmuSZMm1a5dW0XSBJfmFSfUT7nt1ltR1Vki1KNHjRrVokWLoG8S+AkzZ76Wnt7kyiuv5Fwoof2dYFWQbECwb7zxRp06dUaOHKliOCoi2Pj4+HvuGYeq8xtFNTVq4g1QHXoJdxxmGkt3bl4++P4RSIcRK3mok4pKCGXF24Vz26XFXtYdgM93sqydQcAoKy4qgmXkD7ve3H9YEknCtC3qcDRs9M3Ac5575AmEOWtyhKCGt8rmov4/MzPzww8/uuyywUmJiZ988kngO0FPwUKI5OTk22+/I6QNrzKeeeaZilweEKPf73/55ZdSUlJuueWWhQsX5uTkoPRFnAgAr7dkyZIl99xzj8fjGT9+vIp7ABBcFEgga8Xtt9+hMrBV+RSvZKK8aBW5SaCjzp07NzExYcSIEfPnzz906BD+SrAqgmTZsuWPP/5Y7dq1Ro0apeKTKKVBC1b9kJtvvkXVptHWRhDUTA9H1PvBhBQGpQAarTl4SyGBO9XnzQ9x9XkJQEpKqEMfx4qu0+c2dSUCoCzkw0xQZQLWTr7m0Y/fuXuEbNYURcWQIY1EIQRSksJCeUbHCX7nXrWClLIa29sql+K2bdtmz56dmZm5d+/eZcuW/eE7QTs2FOpQxvDhwzt1Ol6OJHpnYdX4MWPGTJ06NSMjQzntg76big/Izs6eOXPmzJkzASQkJHTs2LFt27ZNmzZ1HGf//v2ZmZlLliwtLv6fvNrBbaOceDnnPD09/ZZbbgYQRBbgkKO6xKBBg84666yVK1cG3eWUTJRgi4qKZs+ePXv2bABut7tDhw7t2rVr3rw5IeTQoUP79u1buXLlH6pSK8FW8FCJ2+0eN+5uRIZgNdFC1BscDBSMrFny7ZERd12MHj5vQRiqz0tOiEtY32LThZ/P7npWL2E71DTCqqHfnv7813fcuf/Je+FyI+SJswiRQgAkv1X6qa+8uO32uyghgkdZuZOyoyborKwstYP+B9TEXUFrw7bt5s2bq6zbUW1t4IQF64QJE4YNG1ZBzaRSS+GEJV1+fv63336rDkf8JRV/IwH3xsSJE2NiYgJegQhh8uTJPXv2VK0K2qI60exQn3i93jVr1qxZs+bvLqm4YAPPnTRpUv369QOJSjWashDF06IEwCUoWbn9pw/PG3QxzvLBy4BwHEtxueJ24WfPk3d0vegc6Xdk6H0b/4Nyde57+aX4L75CTFzoo0cVJSWol7a95xkX33YnAG91d/H5SwvX/cEaqLhvU91h2LBhjRs3ruCtIgSlk6655poLL7wwoNiCvlt5HRUVfyOqta1bt77yyivVJxFlAvbo0WPkyJE4wRoLmioRbFJS0ujRo0NywxpLRFnAlUYEDcLyQoQgBi0Avr95ygsY4LCwWBsC0mW44f3tw1ix/+LWABwiS2vShRE1kn85vQc++y9Lqg/OQ39ihRCan4tOHb4ec+2Gb1bEGIavdNe8WpKYmOjxlLtQyMkJ7KZffvkVKjl09ahfFfgJr776aq9evRBtqkUIccoppyxYsACR6nB69tlnhwwJJot81SKldLvdS5YsdblclZ+ztToRXe89VERrd5GACqjc+P5nl63YDbgEF6E+lgIJMGLAOfY5Dp320ZOXdeomHMcwjPDbG8epl54+ZOka/vMalpiIkCfyI0QAtNhbUrf2SFGEw1luy3Kqb7rAwGmIUBHwZvfp0+/f/34NpWXMQviIKqdJkybPPvtsWlpDRNXRx4SEhPfff79p06YRqxRr1ao1ceKkjh07ATAMs6qbU1YIIXPmzOnc+XTU1DW6piJE4lAsC6qnz5g7Z8+wO5uhhR8ORRjsDUqYFLkwXG+MG3zRBbbXT0KRf72McCHgtj5++qnztu7h3kLKWOg3VggRfr+ZUmdTg1r9Xp+Bg4dNxmQ1PbRS3oLD/4iyNlq2bPniC8+lpNSKWN0WNMo+69at2/PPP88YU7G3Vd2of4YQ8uKLL/bt2xeRqhSVYFu2bDFt2rRatZIcx44WY27SpImXXXZZVbdCE61E6/wopSgG9lz55LU42zlubYR4M0UCJrGO4djTjbL6jxzqFBYbbqvSfBsAKCG24yAu5p0uPTyLVon4U+A44Uh5bh89arbu+k3n0+Zs3gzAF+IHRAqh9XAo28KyrClTpnTs1AnV0UcaSHY+dOgVKrtlhG8YKfPi/vsfvOGGGxDBbyRwPqV3716vvPJvlB6kqup2/S2qbdddd/1dd92FCBZsFBGZpnC4idy54yRILihlC0c+PgntBfwgItTHUgBCTErBC2Zg54WLpwGA24IMT/Dm32MwZgP1mjSanFOEuW+5ajWCHWqbgxBYJs89gAsuvMsSh/bu9xgGr44bKyH0cAQUxpQpU1Smxern3lAEzsTed999gTM4Vd2ovyBwEGbIkMueeupJhCIeM6wEjLmrr75q6tQXUP7K9ZWDKg3NOe/WrdvUqc+7XO4IF2y0UDONtuibIqUQ1GBPP/REs1kLAUMQEvLaqqojEGGvRdZFuxb0a93h9735Sh9plHMAdwy/+hov9W1cQWsnhSWYgxJamH+0S7vOM6fn79lnMMar3XgIoYdD3eeRRx658847EfG6rYKozRQAEyZMUL8Xkbc+U9N3//7933xzlmEYUfFGAsbcXXfd8fTTTyMiO5I6RtupU6c5c+bUqlUr0g4Ya6KLKDM4HNuhjE37/ONmz3zWEc04tWR4NjkMSRz4vnv4/LbpzRzbqcIxRil1OIfbNeeyKwa5E0VBoWlZYakla9tmXNLB64c+8sFHKCgyKpYIKwIJ4UtMS0t76623JkyYgIhUEiFHqXCPxzNt2rRJkyYj8tZnhmHcddddCxYsSExMjCKlqCq8E8LGjx8/a9ZbiDzBAhgxYsRXX32Vnp5eXd14mkojynqPyRiADtNWX4xUGG4unBBXn5eB6vP+q7Hm+qfGA2CVGCj6lzBKi30+xMUM+nIlPv/Sjqmt3Mchf4ydm01anPZyl1bFkACqWR6wCk7lAR3WufMZs2fPvv7663FCnulqT+BnPvjg/bNnz05KSqra9iiU/ktMTHzppZdeeOEFVRwkupRiQLA33HD94sWLGzVqVLXtUQRKATz55JOvv/669m1oQkJUjUwBMPrurY+d8tV3cajnc/wEId/jkIISA5iOra/4diYBUsgwOVHKhceybGDk2NtuPpiNFUtkQkLoA0oIAWPy2FGc2y925ssyJ4dWr/kl6BgOQkjgBOyAARd+8MGHffr0QaQmeKgEhg0b9umn8zt0aK/+Wfl6SL0RAEKIlJQ6H344V+WhivY3ct5553322X/V+Rqc8DMrjcATpZSGYXzw0UePPvqoy+WKdsFGIDXTeouaPuR4bTAyYcLT5oz3WuE0PxyGULuypXQgLRb7LX4eenhpXStWCgES2roswWNIyYEZ99wzqMCPo0fgcYfjlCwoQWEh7r6NjhoFOxKj2ILm5CW8/xIVMRdIlHnDDTd+8snHzZs3V3+tyVNw3769P/xw7iWXXILK3QX4wxtJT0///vtVAwacp/5aDd5Ihw7t33vvvVGjRqH8GVorwh8Em5CQuHLlqqGXX47qGxBdtUTg3lklEB3dyLEd02OtP7znzLe3XY0zuGFThLSeGY6nMHe74nLsHZ+e34rXTQIgIqxPEM4BzD+1Y+zy72AYxDTCYnMIAcfBv5/7z+LFqEa1ZEtKSny+cpz5PbHGVUpKrZkzX581602Px1MzZ4o/07p1q3nz5t17772BT1QZ9PA98cQ3YhjGyJEjd+7cGbD/qg1paWkzZ858/vnnTzT3wyrYP9RYGTRo0N69+848s2vgr+F7tKZGEQUGh5TStEw/UDT+/Q4ZGTDjeciLmUkIwGQmfJnTazu3zZlWF5aIvJQDhFK/46BpozvX78CXX0u3K1ynZnx+xMUMdfED27ZHS0qifyQ+Pr6Mqc3V5K7m3+bNW7z++uuHD2eNGnUTakaIaBlRhteUKVPy8vLuvvtuj8cjhOCcm6YZcu2otsPUG3G73ffff/+ePXveeOONCtb4jUyUYMeNG1dSUjJx4sTExESUFmUN+WBUNmLAhh41atT27dvnz5+flJRQ/QQbUdTMaSSyFOqfUXuHJcDU0fcZb82ua7YvsUtCn+YLUjJCuViZ6B667r0Wtety24nMkEmTMQlMnPTkA/k+HDmqas2H+BlKtoSg15kNP3rvt9UbCCEq/Wj1XtozxlwuF0qdOmlpDSdMmLBu3YabbrpJnWDUcXMnopbFnPOEhISpU6fu2rXrqquucrlctm0r7WhZVgVNdkqpuok60ux2u4cPv3bDhh8mT57coEEDtSiPtFVBxSGEKNPN5XI99NBDe/fuveOOO+Li4jjnKj+YZVkVNOmUYFWMLeccIJdccsl3362eOXNmq1at1GutfoKNKGqmozTSuxQRAsCOHb94Xpvd092/xM4zQUO+mWJDuFzJC7F23+PntWza1Cn20qo+mXISiJRCiGeGXtX8/c8QlxKWdGQS8NvEdOGOm69Y/hWAEs5Dn/CkcvF6vfafqtOpVaPb7VYmhdpzadGixQMPPLB27dpHHnkkKSlezb+MMT0F/wFCiMrSoYqlffDBB5s2bRo+fHidOnU4536/XwhhGIbL5TIMo4zSY4yZpmlZlmVZQgh1k/j4+GHDrvn662/ee++d0047FYDjONU4tkA5HjjnnHN1Bmfr1q2jR49OS0tTguWcBwRbRuODUqoE63a7lWAdx6GUXnrppQsXLpw3b1737meiVLCRnPY0Aim79RD4Zs00OCLaWy6FpKZZAJlx3XNj0dfv5ITD2uCQHiNuf/EPq09vfv2YYQBgRa5YjiclIwTAZ21PP23Ck3j0SeQegEFDaQ8QAASFhUiIXzH04nlff3Npv7MdKaN0ElJj2+fzKbmZpql2Rnw+n3JmqMRW9erV69+//0UXXXT++QOSkhLVtY7jlH1Or5moLB1KUK1atXrvvff27dv36aeffv3110uXLi0qKnJK90CVJP9uqiWEKFUaCBsyDOOcc845//zzL754YIsWx2M1lJqsNjt9J0HJSgm2YcOG06dPf+KJJ+bPn//ll19+8803R48eDQhWeSz+bhOEEOI4jnLRBT7s06dP//79Bw0a1K5dO/VJzRFsCFHiUp7Rsrg/VSevsSZd5PYtCVBGiyCe6HXFc2tywZrA8YbYJSOlAFzMKnH2ZpzWcvSGGfVgcYdHclc4sUef2r/ve8X5I5bMwzlnI78AoW02IVJK5rd50yaDN2//+uPPzr58kM+2raidjwoKCpSH48TQ0datW3fs2LFDhw5du3Zt06ZN3bp11efKh6/n3zJCCFFmh23blmU1atRo7NixY8eO3b179+bNm9evX79+/fotW7bs37/f+acArJSUlM6du3bq1KFTp05nnHFGenp64E81UCP+QbCpqak33XTTTTfddODAgc2bN//www/r1q3bsmXLrl27vF7vyW8VGxvbvXuPDh06dOrUsUuXLi1atAgoSMdx1IPC/4OqG/n5+QAKCwvLe2FOTg4itVBA+IjgHiYlgFhCe952zYMrRz3D61iw/OBEhizcRgKEMnD/LjPh2PQR9WD5vF7L5QrJzcOKWiMSQoYPHHRk/dpx+XmGK8axfSAhMsikBCGglMcmYvlXHb5dffaEpwGw6PRgq5m0Xbv2kydPFkLUr1/fNM2GDRs2bdo0OTk5JibmxC+ryVfPv0FACLEsS+1ASSlN02zatGnTpk1VuZmCgoKsrKxff/01JyenoKAgL69A5TdRUSAJCQnJycktWrRITU1VYZIBlPEXjpDJaOHPgk1LS0tLS7vgggsAFBUVHT16dNeuXVlZWQUFBUoFSkmFcOLiYhMTExMTE5s3b163bt2kpKQTJ08hhOM4pmnWWMFWBLWdd+ONI9u0aZuSkiqEI6XKDHWyvRIpCcD9ft6nT1+UTk01BxKxFpYEULpHuy4z48ebnzt3waamaMnhCIiKZ8eQUkoQi1jb5dZJveu+s3y+U+xlnjJZG2r6u+22O6dPf6lCjShFhQgsW7Y8MTG5U6f2ZSwdqfZxf/t5e703puOFl5B7ACwUW07K2nC54Nj44qvVqY07t2/LaiVFV8jkia39RwemmsoRhhL2NZlA8ZrgZlWlXJXxp1/KiQghVMIMxlgQQzIgWEppFI1oTTUgcoexiiKQUkohujRIH/XF9K2vjv4Q3zIQgxABVChYUkqAWIQVyoMLm9d9Z/l8AMRtha75lQFjzJGybpvWiwdehtemIbkeOK9QAKmUEAKMweVCXm7sY1PkFcPO7HNW1Fkbf+bPcQO8FDV9G4ZR9sBGTVlQ2x/qKIQ6DfGHMII/cOIbCbg0dKzun1EhpYZhBM6znFywJ37nRMFG9YjWRCMRPZKPOzEI4ZxLIS66bfi+GfdNxhYhiy1IQpkINtZXKoeYLFkdY969cz4Aznk0ZvJmAIc8r1/fD/qch42raXJtcBGkzSEEEYLEx8OxkbGnz90TCqc8B0BCRmbh7ArCStFejXCjJByQ9t99Tb+RICiLYE/8jhaspgqJjs5H6fGdgvtvvvVu+cP8Gzusx3YmuGW4BAjKW+1ESoAwYazH3kUPdUFpMFp42h5+uABwVa06l/2yX2RnWYkJwdSvF4JQiqRkefQIPvnCn9Rg2ey3UWrPRbFwNBqNRhMZRJMikVIKxzEgLnvzsc9v7/8JMoqdAy5qcQKBMm+vSADEBPkNv77ft/Fzj/wLYU4bHG4opX7HRt3at0kT73zol4KYJmSZbQ4p4djU45Imlb/uqvfUtJw+55n16jqcy3Bk+NBoNBpNjSSaDA4AhDEpieD88Zef2fWfMT9f3OUnsdmFeGYwjjJWbJeCSsD/ddfmz38zF9UiAYvJDL8Q51x1+bzO3bFlm3RZRJZNGlLCcazkeqKgJHnT1hfWbz907wPJ6U0558cPpFS7nRSNRqPRVAlRZnAAoABhlDv8vsuHd/nv0xuu6/+hXMQcbpkujn8KX5CSQ1o0eRrWnbXqZQLI6lKZzCKkyO+/pHefm7bsRtZRJMZD/JN/QggiJatV17/9J/eMt1amNLrrqqH++nV59U3gqNFoNJqqIgr1igQkKKM+rw/AiLcn7pswZlFz55C902Uk2Mrm+Es9q1KYm/FLnMUFD1/bwIgFgGqhWSUgAQ9lAF5q0ylx1hxZVERi/r5+vZQQghmGTEzmK5bd+uOvq7qcdVqzZkV+vz6nodFoNJpwEIXKpdTHb7ksIYThyHsfua/V5jd+urrXt853HncdySAg/mhzSAhIj+H5zf6pZMwN9z71OAVEdXFvKJEQRrkQno6nruh3IZZ+K/32X+celRJCGPHxPDYOU19e36j1vy+4+PT+/WzOY02z+p1G0Wg0Gk0kEIUGxwkQQgSV3Odr6o4f8P7EpVf3fd071+TUgCFVZq/fkdQw4BRt6Ny+w5QxbsCJ1HqwFYESYtt2ux5dl6Y2QmEhDOOP2UpUpo2kJGffvvjR92w79+IzGjeW8TF+2zYpldW9HqxGo9Foqoqo17iEEMOybL8fwO1vP9Nz/+r/ayNycMCkLoActzmkdABDxr6Mbw6N7dXYk8i9fhbB9WArgmEYfs77de+ePPZhMArT/P1vUoICSQ3w8byFfuu3cfe1bt/GLwSkNA1DWRvav6HRaDSacBD1BofCME3BeaoZc1pa4yFb5kxsH7NVbDVBDFApJYd0E8/3fFXi/feOHD4cErCqp7WhMCkFkPX8C3jmRXgskFJTgzHE1cKdd6xp0npAy5aeFs0czk1CAoEs2trQaDQaTZioJgYHAEIpF0I6DoCpmz6fMa7XV9gvkW/CcFmx2fJXesOwayffDyG5FDRURc4iErWZZKTVt8feh0XLEJ8I04TLjSNHek56IfvGW7t27iwBJ3D2VaPRaDSaMFOt9A2lFIypUNBpz085Vy6bmlJwFJnwH1wSa2becw4An+OPxhTm5YIQIlXRrNjYyQdykbETHjc++Pj9vdkrH3qoVse2qjCetjY0Go1GU2lUR5VDqZBSCgng9iNf39/cWQG+/eYzL2vT2fH5LTPKKrQFByGEcw5GR5/fP2HWRzHzFs46UnJ1nz6O4+j8oRqNRqOpfIIpGx3hKPeFhISEm5BZO5flAr0AAMwyT3Zl9UIl1Ihv2CDvqUmBD6M6ibtGo9FoopdqaHAoVD4JzqXkTjJltuCGVW1/7N8hpRRC2FKCMca5oa0NjUaj0VQR1VwHUwpQg0thMAM18twnpdQFSCGItjY0Go1GU3VUxxiOP/H7mZQaZm0EqH4pzjQajUYTXWg9pNFoNBqNJuxog0Oj0Wg0Gk3Y0QaHRqPRaDSasKMNjuAhoUtXqs7UUMp0cXiNRqPRVEuq+SmVsOL3+9X/CCEqeCvOOaW0pKQkPj6+wu3SaDQajSbi0AZH8CQnJ7z11rtCVLyoOxGCJyUlr1q16vLLB4emcRqNRqPRRBKk4qvzmgkJZ0EWqVOPVxghROAdSSkppWF9ZRqNRqM5OdrDESRSSs55yG9LCNFhHBqNRqOpfmiDI3h0XRKNRqPRaMqIXkxrNBqNRqMJO9rg0Gg0Go1GE3a0waHRaDQajSbsaINDo9FoNBpN2NEGh0aj0Wg0mrCjDQ6NRqPRaDRhRxscGo1Go9Fowo42ODQajUaj0YQdbXBoNBqNRqMJO9rg0Gg0Go1GE3a0waHRaDQajSbsaINDo9FoNBpN2NEGh0aj0Wg0mrCjDQ6NRqPRaDRhRxscGo1Go9Fowo42ODQajUaj0YSd/wcQnZLwjOwjZwAAAABJRU5ErkJggg==;rotation=-24;direction=east;" parent="1" vertex="1">
          <mxGeometry x="295" y="290" width="79.58" height="23.32" as="geometry" />
        </mxCell>
        <mxCell id="nvAYXAVTskFNvcW9AQbS-1" style="edgeStyle=orthogonalEdgeStyle;rounded=0;orthogonalLoop=1;jettySize=auto;html=1;entryX=1;entryY=0.25;entryDx=0;entryDy=0;exitX=0;exitY=0.5;exitDx=0;exitDy=0;" parent="1" source="9Qc__nXVEQ7TxUbxgHj--9" target="9Qc__nXVEQ7TxUbxgHj--30" edge="1">
          <mxGeometry relative="1" as="geometry">
            <mxPoint x="445" y="393" as="sourcePoint" />
            <Array as="points">
              <mxPoint x="450" y="393" />
            </Array>
          </mxGeometry>
        </mxCell>
        <mxCell id="9Qc__nXVEQ7TxUbxgHj--9" value="order-service" style="rounded=0;whiteSpace=wrap;html=1;strokeWidth=2;fillColor=#dae8fc;strokeColor=#6c8ebf;" parent="1" vertex="1">
          <mxGeometry x="450" y="365.5" width="120" height="52.5" as="geometry" />
        </mxCell>
        <mxCell id="9Qc__nXVEQ7TxUbxgHj--11" value="" style="shape=image;verticalLabelPosition=bottom;labelBackgroundColor=default;verticalAlign=top;aspect=fixed;imageAspect=0;image=data:image/png,iVBORw0KGgoAAAANSUhEUgAAAtAAAADTCAIAAAAnPrNMAAAACXBIWXMAAAsTAAALEwEAmpwYAAAgAElEQVR4nOydd3gUVdvG71Nmdjc9oXepAtIRgYAgSJGmWEDsqCj6il3xBQv2Xj7rq4AdsYuCqNgoCooKogioFOkYIL3s7swp3x8TIiJCstlNdsj8LvWCmJk5M3PmnPs85ylEKQUPjyMOpRQhxPmz1ppSWvZXDw8PD4+qh1Z3Azw8PDw8PDyOfDzB4eHh4eHh4RFzPMHh4eHh4eHhEXM8weHh4eHh4eERczzB4eHh4eHh4RFzeHU3wMUIIaJ+TkoppZ4K9PDw8PA40vAER4QQQgzDiNHJtdYxOrOHh4eHh0e14AmOSFBKMcYmT55q2zYQBXFACNEaiYmByy67tHHjxlJKxljlT+vh4eHh4REneIIjcho1ajRp0mVCyMqfyrbtpKTEGTNeWLfut8aNG3sGDg8PDw+PIwxPcESCk7MyISHAGIuKKYJzBiAQ8Ff+VB4eHh4eHnGI558YCY4FQgg7eifUZaf18PDw8PA48vAER2Q4+iD6USoeHh4eHh5HJJ7giBylom6R8KqLeXh4eHgcmXiCI3KiHrzKWKl3iFfW1MPDw8PjCKNGCA6tVOkfqrcd1Ycq00aen4iHh4eHR3VwhAsOrVRICIvSsBCkRu5YaKVk2CZSC9sGIZ7xxMPDw8OjWjjCw2IpYwHGoAEnK2hU1/e2HWWn0ajrAU0IZQyMFQPJYNA118bj4eHh4VG9HIkWDq2htVKKEIKw3WvS1SlLP7v5nvsBWFGtfhKLBORRFBxaKQpsL8q9o+GgL9JHPfrK8yCwoxfK6+Hh4eHhUX6OQMGhAEKpk4+r6eOPLL/mwsJjO73SrnnR8pU+w5AyColBYwQhNFrbPlprylgYeHHao5fsKhqdZ9S54OFlH3xuGiYhhNTEzSUPDw8Pj+rkiBIcWimpFKMUwIuPPWV8NGfbJWehZQvDn7i9a/vJoggAeDzvIkXHz0Rr7US7SOg+jy5ojPbgKeeh09GjH7u+/fDvd28GAdFQ+3xpPTw8PDw8Ys2RIziU1qCUMwag71VXXdSrrRh2IvwBFBTaeXlo3up/JTl3z36dA4oQHNFzLSGEELIH1uOk40AcJWBZwlbEzEDKI+tS36jX6+c1a0AJYwzySH4OHh4eHh7xwxEiOISUjFJSUIg9OT3ee3PpDZeidyYKi2ALUApKkbMXg0ffun3jB7PfYkAoGoIj6j4cUXMalRLAeH/7KWgN+DQBBZTWAkyCPYKT/ugwZsX8LzcFcwlnEFLpfU/D8yn18PDw8IgNrhccWmtLSoNzAJOnzyBvvfzDaSNQpy4K8oB9TpiEgDNe9CdunPR8s7rIzg4Yhqy0XBBWlN1BGGOMVVZxCNsmnH/80WdvhTsDiTbRgKNlQAg0tA37FPRoMvKOmxK6bdy+jRicEiptUbqf4yXq8PDw8PCIAe4WHBqQlPo4R37hhXPefbhTC+OKa2leLqx/5JwgREhJbT0vI2HysmUQklNaWSeGaHteal3Z6V5rbZjmj1s2khF3+qAlJTigmYQQwIKsa7R+Gz0+ajJ8x7o/sojmpqGE9BJ1eHh4eHjECPcJjrIZ2RKCEmJI+fzMl/r9sOylDi3Z0JF29hZFGejB7osSVVTI2h37kJXz9HMvQCEqleXjAq0BSC0ppd/s2fJuh9NPQDqnKVJp8k8JQwiBtuygooEr0eGP9uM+uPj2r9auYpyHi4OVN/x4eHh4eHj8E5cJDr0vkENI6TMMAFe99toEUfDViX1Ys8Yy90/4fP++RicwTZmzDadfMEkWy6JC4EiJ1CAEhMigBeCH/zwyoaiWn9W1lEWgD/o0CCEUEMoOUdbX6Dz4hY8XZV6+/Y+t/sQAEfLI9qj18PDw8KgWXCY4HLWhAIPzlW/OGfPNkidbNsRlV/GCQhkMg/FDbUs4/4sbNG8HrrrwpM8+Aipl5NDRn5gjP6G2bF9iwtcffzHina1Hob6twwSEHGJ/hBAKypUOi5IW/h6X56fk9rthxt1P/C7yCWPxnK3Ew8PDw8ONuExwaCmlUpSQG++4uzsLvtOiAenTGznbBDQoLfVW+LdZdp8DqWJA0P68Y6sR116PUq+GSFDRDuqglFMaiQCStk1N463PP/1x+JUtQBU1tFKHvysCgDCtQ6G8DNqw43Z1wq3vTW91+paCvZxzaXuaw8PDw8MjarhJcBBCKOeMsWs/nPtwn044fSSvVUfn5YKzCro6UoRDaHPMRycPfOfJ6Yh0Y0XrKFs4CCERhNpKKblpbkS48MG3LkQj+GvZyqIoX5p0AhDCQYQKC5bYmra+dZdvab2xv+VmcZNHLMU8PDw8PDwOwB2CQynlzMPzZryU/H+P/l9mZ5zQj4TCorgYlEYSWEEpivLQL3NCizqIdGMlTtwrGQiA4Ltfd/lsVZLRPBQqZqhgsAkhFARShFVxBmt8WijByLhs+DF9sc/8c4R4unh4lAO1H+X8zappmIeH24lvweFM6QSMMUrIzA/nn8yKi66ZiEACgkFdmXrrTrJRS+Uf26HjIw/CmVkrOHBE3cLBGGGsYm+ESE04W7RoyXdnTOyOjmFRwiuqNkpPREAIA7Gk5ScZLRB4dW3CzbX6ANCEMMZiUanOwyN+kFI60oHux6EP2f/XPPHh4XFY4rmwCDRACQEQWr/xmp9/fK55XYy8iBTlabUvmVUlsUKo1/CXAb2HT/zPR889E5QycLghJq6QUnLOf9i28bUBZ8zAqDANM6UrlR6EEKK1rRWhtJZqcE9O7tukv5p3/ckjTw5QWlqAtyYhpWSM7dq16/7777csyzTNcgovSmlxcXFKSspDDz1EKVVKHXb2qkaEEJzzpUuXvvLKK4ZhlL+pjLHdu3dnZva94orLAcT5bR4Uxz+aMXaAmdO27Y0bN27cuDEvLy8nJ8eyrLLOX69eA9P0tW/fpkmTpikpKc4Py27cOSEhxHWPwnl9zz777IoVKwKBQPkP5Jxv3779+utv6NnzuNg1b3/KetqMGTMWL15ct25dEdVK4Ec2zmfbu3fvSZMmOUNclV06fgVHWQWyTz5fOGz+e3jkbtg2CnI1olTEnRAAtLBAden4zZUJG7/5vmXvHmHLMg0jCiePnHLNZxqaKMI5l0DxK4ueQVeYilgaqGwhWOKkI1XahmRIGYO0ZaNuvrHTs4/89JGPUikkraANxtU48qK4uHj69OmhUCiCMzz88EPRblT0cZTr5s2bp0+fHsHhO3fuuOKKy123uJdS0n1lpQEIIdavX79y5crFi5csXPjlhg0bynOSOnXqDB06tE+fPscdd1zr1q2Tk5P3P2F5zCTxxpIlS15//fUIDhw+fFiVCY4y5s+f/8EHH1TxRY8Mtm7dOmnSJEe6VdlKMn4Fh1OBDCWhJ5csxd1TmZQyFD54Rq9KXEMpRS2RVyfltK1rftrdwle3ljMMlefoGOwykHJvchHCCIAv3pqbcstjBrqHrTCrtNooawUBgYaE1oxkymNyfl7/8jtvXXrGWCGFycxoXMNNGIaRkpISCoVM0yznQooQIqVMSEggxAXzjdPh/X6/89fy76AZhhEOhxMSEhGpy3O1IKUkhDjKQGu9fPny+fPnv/HGGweIDM65c0cH3FfZ6KyU2rNnz6xZs2bNmgUgLS3t3HPPHTVqVN++fRMSEjjn2Gc9qpr7igqJiYnYz2BzWLTWPp8vFAoFAgmxbNfBSUhIAOD3+8PhcE2zv0aM89lWyIgVLeL6S5BKsQT//MnX9f70429PPYnpEqkPnskqcihVoRCr1/Dn5jkD/vf0wsv/w+rWVkISRg+7OWFZ0V/SHX7E1rpswJvz7eJ1Z06cipFhlFTYUfSw14EGJUyKPxHGyzddesZYJaRp1ji1gf3s7WXb/IfFeUXuSmdS9nKVUuWUDs4NWpYVw2ZFFSml1tpRAEqp99577+GHH16+fLnzfxljnHMhhNZaa10ecVnmxqGUysvLe+qpp5566qn27duPHTt28uTJgUCAc+48T7fkNfb5fKign7jzy5GZACuJlBr7eqxb9G6143y21fK44nr5RQmxhUBSwqxOXTHjRZrWGFY4+sEhlMqcvUa7not6dnr+228BhLQi5XCFiLqxlBBK6eEu6yQVhQSwcvjNUzHURglDlLaZytBaAwY19yJ3emcy8vyxdkkJ4e4YMaOIoxt8Pp+zkKooWutgMIhq+rYrSmJiYkUnRef52LaN/db9cYtt246kADB37twePXqMGTNm+fLlhBCfz8cYk1KGw2FHVpbzlSmlhBCWZTkbKKZpMsbWrl17++23d+/e/f7773d+zhgTQrhi1yk1NTWyA6tFcHgVriOgGj/VuBYc2Oc02rJhwyuzg/aX83jtJoi6cxAh4IbK246ThtySEdj1x+YEw7DLMTRIaUe3IeXeStOc8Dl3PTM1N13DJiTaagMAIQbhEPnPYFOvN28HQEwzCsXl3En8T6VR4Qi+TWemNwwDwPfff9+rV68xY8asXLnS+aHW2tEZlb+KZVmOF55hGOvWrZsyZUrv3r1nz34dAOecVr5gpMffOXL77JFJ3AsO5xMN+J+YdMWZQSX+WMuSkqJf7IMQSQgpLvyzY5ver7xYsPEPg7HDljHTOsrSh5DDG1aUlATkljvuSrztmQBSZTkOibAxOvg9sof/PmfI0Z2UUqVr3xr2fTvL3JKSksLCwggOp5Q6G6WumMsLCgoim3Qd54+4teJorR1j5I8//tSrV6++ffsuX77csizH1OGYZ6KLlNKxpgD44Ycfzjvv3NatW7/99tsAKKVx+6AcsrOzIzswKSkpui0pD1q74MvyKCPeBQcAQohl20hKmNGqQ6ddOdJkjNJYbKxoyzJTa205d/QNr81GTl456tdHv68f2u1TasU4/z64u829C4bgGE2ZjoFFUQNckxDsH+8efWzrdsKyXTFfxg7TNJ2N7YpSTj+AOCGye0R8b6mUxXK/+eZbgwYNLJMalNJYvxrHNZUQopTasGHD2LFj77vvPtuO968pYt1QLa48hMS1evM4ABcIDgAG58W2nXx0yzFffY833pXJ9aFU9DUHY1ZONmnZecZxR+cZFIi7BT1XBEDW2Y+OtlJAArYSUf/cNDTVAKxxWH7WzdcAYEZcexbHFGduoJQaEQVLa62dyTjOF7UOpmlG5pYUz3fn3NHUqVPHjTszJyfHcfCsMncKx5OxLPh26tSp//nPf/78M6sKLh0xkXV1uMp32KO6cIfgABCgVAO33HTjOUUSq75GWlr0XQoIAWfI24WTTkp/aSYKChilCnGTw1xIcPrMdXc2fv+LFNSxtSCIvq8oNGHAk/jl6ZJ1yfE9l7gCt8QmHKkUFRcPHz7yvvvuc/5aLclAlVJlwfYzZ84888yxP/64qux/VXFjDkvEn3ycW2484gHXCA5CqZNLfNaESwbkhZGTzfz+6EsBQjQlKC7GpAnswgsRDLGIs6dXHI1/9bm2QiFi8HuffDLhsdld0EFQCegof+FaC2iDJyzDmgtylzUKpCpXRXXGDq11HE4MUSfie4xbVbp69S/Dhw/7+OP51d0QYL/NnSVLlgwZMnj+/Pko81GLJzzB4RE7XCM4HKRtA3hgZz4WLpM+k3AeC80BKSFsNf3RmfM+BCD/ZUSw7SiPFJxRyg/y0UopfYHAXmD4gt0XoDlMopSOUpKvfWgtof1mYr7Y+MagNlZaEryAs32DbygUKi4ujuBwJ04SLhmLi4qKIpv84tNp9PsVK3v06P7Vkq+quyF/UfaI9u7dO3LkyMceewzx50aal5cX2YGe06jHYXGZ4OCcC6V6nH36Vat+xdLl2jRiFKOBkIWEwCUNUvZs2sIZU9U3IiilOOcCWDhhmn/+h4Q1DFshiqjet4YCGOWwsh5NLbz6radqgylR3oyrRzCOUEhISEhOTo7gcKWUi/JwpKamRrYB5CRgiBNR5WimtWvXnX/uOeGwFSetOijXXXfda6/Ndv4cPz2kdu3akR1YUFAQ3ZaUB89p1F24b0ZhhGitH7/rjgt27IWwQElMjBxaAwQ9utZ9dcaelT8xSrWTnS3KVzoMal/1+acfelw8/0JbX5+QjH5SUUBrRrgiX5rqvJVvtkyvI4UgNalmyqGpzJaKi0RbxP4N8TOpO4Uh8vMLLrvsP7/++iviaSI/AOehTZw4cdmyb52s8HGytxJxPpJq6QaehcNduGY03B8CKKVeGjsOTz6PpNpAbPw6LYsYJq669ITZrwIoUQemH9U65i4OWggwunbrFt/kd87C0JCVy0Gj7ihqQ/l8tT7B8vz/G9uqRXMZtKjn6hgl4mcyPuIpy7dxzjnnfPXVoupuzmFwWltcXHTVVZM2bdrsxjJv8YBn4XAX7uviGtD7xvF30xvh5eeRkhYTIwchKCpCYtLaay97Z/GSJNMMHxi4H+UVyQFhN1ppbhglwMZrnp6IJGUIrhHlLSStJXTASNpVsnJZl+btzh8JQBvu6xWxJuLJIG5X2P+ktFyiOykrLn3TTVPnz/+wuptTLpy+sWLFiltvvdnZj4iH3uKuPhAHD8yjArhvain9GrQGcNol459t2By/roXPF4v0o5oQYllITx6zd9vnHy3wGYbY7ypRj+HgnO1fS4UyGgZuHnVuqzlfENrYsi0gyq4bGvBxM2xvX9e2xUXfvtE2MUMJ4UVy/pM4MXd7HJSyAJDnnpvx4INOBKwLZs0ykTR79ux7770XgJMlrNpbVb0NqCAueNHxRjW+YtfmdCJEas0ImXj8CV9+8N5bbdsyYUsV7VqyhGgpuRkQwwaOf/ql5f6ERgOPF0I4w0QU35pzwn8uMVf++kv/D79tZwwO2wU8NvVgIcQG5s95bNxAX2o4GDIDPi86pWbi3nqbjuvGqlWrbr55yr6fRe1Gyr7Nsp8ctGZ9ZDgbK0qpBx54oHnz5hMnTvQ2VioEYxQA57y6KjOXv87fAdByl86KOk5J5GrpaS7u3BQQSsFvPnRUa1x9k0xqAClisbciSkqMhLQdowa/ksABqMNXdI3KZQmA9b1uGI1Myy6Iej1YrbUGMeD7HRue7I0zThqmQpbp95VuWXnsByGkJmypROxGUL2L8rJy81deeVV2dnbUh1FHh6n9iK4yc8LQALz44ov5+fmo7ufprq7uPLGSkhJZTUR81046uGrBCSurll0811o4AACMEAU07dl9nlU86s2XceZZyM0CY9GcmwkBpXZuNtoeM3XBp91W/Di0e1dbqVgotbJ37wxAN7QafFc+09DOEiu6VwKISWiR2v5li/pPfjUHgDZZ6TU8I+U+Kl+8zclR4Yp98dzcXBnRMtEpUFdd0sq2bdM0Z82a9fXXX1WyGU60yAE/HDRoUMOGDVu3bp2amlpYWLRz544tW7YsXLgwstQsB0UIwRhbvnz5M888M2XKlOo1cuzZsyeyA1NSUqLbkvIwZcqUM888My0t2bZBqWN5Io4nqfOHA/5adqAT3nKAz+k/DwE0IX/9ctkvABpQKSkZd911x5IlixljFf12Jk6cePbZZ2dlZTmjfVmTHPa7lvPXvzVy/1846K3905e2rOVag1JaUJDbokULAJzzqhyd3C04gNJYkZHH95u1qcG5634y27W18vIRXS8EQsAo8nMw9OSTbrp+ZU5e18EDAAgRZSMeY6zMf+KMUWc8ttEKoJkgKurdQTvrGFWyOjHx0o3vUUBJL+vGQSjLw5GUlBTBQOzUKzdN0xV2jpSUlMgSX5bl4aj625RSmqaplHKSaDm24gjO4zS+rP39TjjhtNGn9enT99hju/7bIevWrfvmm28++OCDuXPnRtb4/XEuPX369HHjzmre/KjKnzBiMjIyIjuwqKgoui05BGWDVd++ffr27VNl1/0ns2a9XCHBUfaZ9OvXr1+/fjFu3eGp4mHf9XMMAZwM3EP3lLScv8SSFg8EYuFACoAH9+Kem2/bvhlZexCbJZ0UAkA+cMcXpAnqKupcJcpZNwgIU+RH7Jx5QSMK2LZNPLXx77jXuaFCRKwYqst+o5RyBPobb7y5atUqRLoZsf+Njx49eunSpYsXLrz66isPoTYAtGvX7qKLLvrggw9+/fW3CRMu2f9sEbTBafnmzZtnzpwZweFRxF1bKtVFWdKaiEvWOTLdKe5YczgSphnOmCVF7Z6dH2/XHi+9JXzmvsxdUYVSYVmUGh92af3eniwAPNKyiv+GljopIRHA7LSBRwULQQP/llW9EteA1mAgBdj+RmbD559+Evt2cDz+DUJIxJE7kW1SVAuuC4t1Zrj8/PxHHnnY8YSIQHCUZRbv1q3b+++/P2fOnMzMzAqd4eij28yYMX3lyhU9e/bEfrEnFcU56vHH/89JWVZdeJZOj9hxhPQtgzJLyhEjhr3atjPW/YaUJBKL+vWEqPx8dO1x+jeLli9Zmh7tedoALa6XcusJZw/ODyWyxpYS0a/QBg0KAsxtnvHA0ndQw9YlkSGljMxQX+bP6IqJXAjhos5QZt54+eVXVq5ciYi0XdkW0tixYxcsWHDKKaeg4l+Ec4auXbstXrx42u23Y78UZBXCuW5xcfGdd95Z0WOjSMRLdi+c3uOwVKngsIUMCxH1fFkOBqUlUp7bJ3PUkh+wZRtPS4/JxgpjyN2NSyb1+nx+SaTeVf9Gevujnp/ywOVLdSu0tHSIINorTq0FlMHSnsfiTt88giirjb+dyrItKyRctL4/KM7zCQaDjjN8ReGcG9E2g8UCZ8rMy8uLrD8kJCSgym05TlMLCwunP/ccAMZYRRtfpjYuvnjCG2/Mrl27tpSyLKVHhc4Dp8Kiz3f7tGl33XUXKhdp8vrrr+/YsbOSJ4mY7OzsyA6sFqdR9+KKRUjUqVLBYRrcbxiKsGLbtiNaMh4aQykA9zRtYbwzzy4pJD4zVpqjYBfuvH1Nzy5RO63WAKRU587PaihCkhMag3qwAtrPElfaSzZcdHLbek2B6EbAEoAIYYVDFrGJz/T5AoazvtcuD7T1+XxOIEZFqfYkTuXEmTId3RAB4XAYVe99RimAhQu/WLN2TQQxAmUptq655pqZM2cQwqSUjLGI76KsDbfccssDDzzg8/kiO4/D+++/V5nDK0PERV9LSkqi25IjGxdZE6NIFY0RUmtCyOcr17z6yqsMdpJpmoZhaxKyRGTG6oPCORdadxw2ZHm/wfjld60UYSwmWc+hIUs+9ptrvlqGaHQdCgpg9euf+HbtBqllKQlEOakoAB83g3JzzkVnTnv+KdNxto3SJaSU4ZClbRiGzx/wwcQLHz47fdprYZQQQqKsnKoQZxXi8/kiG4WllM4o7IrBJSUlJTJ7jCM4qnLFVmaH+PzzhYjImO+8kTFjxj7yyKMAbNuu/I4AY8wRMZMnT54yZcphf/8QPPbY/2E/G0xVkpaWFtmBUYwTrgl4Fo5YIaXklG5et2bYc/PPF11P+2LrqQ+8uOTtWSZFwGcYhmGDhIWUMgqfFgdCltW1R/fbftoI29YGB2KWcL+wsF7t2qFwuJJdR2tNOC2CvfDrJQUIglEoFfXIFMEoEeSNRNLgrvP8gIhGZIrSsCyhpOac+wM+auLleS9cdd7kr2/+3X9LR3l3k9vGPwBARjt+uMoo21aPeEvFMRu4YnDJzc2NzGe+6vNw7HMXLXj++RcARLZoadWq1VtvvUkpUUpFa+erzAX11ltvnTBhAipu+HG6ysaNG7/99jtUh1R1Vx4O9+KKRUjUqRLBAQBYnlUo0loZfTvMyUt5P9DpxHDX7u+v7X/Dvcvefd0k8BuccwZCpFJqXyBiRV+JkyTTZxgCuOPss3DDbTAYjJiFYPj8tdu2njl9xr6LR4KzVvt60VeffvrZiOEjgigpfSnRNG9oAeWnyS9gQfi+049p2Ay2YBX3eP3rpWhIKbXSjBKfz2CcfrPu6+F9T//4spXpd/fsNX8ceaXBkIQ+I7r0Y8vrAED0M4lUEc7ob5qmk7+romito2jAizUR7wI4WwlVKaqca3333fKSkiLDMCIzAzz88MMAZLQz0DibNZTSadOmNWrUyPlz+Q8vG/RWrVqJ6piWIt5Zq2kRnh4RUBWCgzIOIL1DNxzbz9hexNICpHs30bTdSl1vyTGn90HfJq983/m8q7/9eC4BOGOMkNIsy39l4ynXV1c24DGtkegvvPUOPPcqTAOIgZGDApYFQjIzMx988DEgkqpLjjd7dnb21q1bThsyPBwOa6jovhOttYT2s8Rf7G8yJl112ZWXAZAVTs7uvAXnvRBCCeecMhpCUY82/Z4Z/o6c2OryDQ+lfdq2izpmQNduDVomZ3FVKDG22UVh5HEfU9od3gwHhTEW2QpYa+2Mwq5Yzfj9frekNnfa+dNPqyI+w9lnn+3EpMROJzVu3Pi8885DpN4ts2e/hupIp2aaZmQHRhzeUjNxhdUz6sRccEipDIL1K78fet09aFk7GApJIXVhPg0W0BQ/adkC6fW2p7f6+eSbetu9Ao9/edTJ5+7+7efSxu1THgpEKV2hcU0pldSsadYpY/DTaiQno9yqpSIoAN26dxs9esTy5d9FsOHqjCZ7snNOGX0KgGAoFHVHUQ34fP4S+UdwzKknPflfAEpVYEnnpLch+6SG02oAI/qMuab5PSszQ4+Jub02j65XVL9ruxZ1miQU+3R2UIUsBYGkZGSvy5s4aioAYblYcJQl+YkAFw0rEYeZVPGMWPYuVqz4GZHKneuuuw6Rxq8eFkqp8zD/+98pHTt2EhWswOz0mRUrVobD4TK/kCrDLZ7OHm4k5oLDSQ9flNEQDTqZwskCQUCpAlVC6GAxESUkwFE7AwnJoaN7bJn4TL3fG5ObXjpq2NmQFgDYIUYIY5QxJrWW5fsgnI+2bq1aff73FgpziT8AFfVhsXQuadOmTVpa+t692WUDTflZt27dgo8/TUxJBsAIi+ZWioYGGKUI229iz8IRjfxAOBgi5PAvXUmlpCIgjDHGCAjyrFwAt1x19zBy8eIuWW97mDUAACAASURBVA/kvT0x9ebaVu1GTdKSanORgPywsmxoRRgoIZSA2hTJRtrxahQAVo6LxiHOVBoKhSJL2+yuWip5eXmRTTbOPVax7JBSvvHGLEQ0QWZmZnbv3h2xfC/OmVNTU8aOHYOI3FpDoZCTAayKH2xOTk5kB3o+HB6HJebTAGcMwA5B0WcIKSr+q8oJAQgBoVpTLRWsMJRFqIaPIuDDSedsuelVMieXXPBgt0unAtibtQslhZxSzhglREgtDje1S6XgMxc/cBe753HtY0AM0o8CUigA2dl7X3jhZeznqV4e9uzZ8+6771999RVWKIxShRC1FjrV55nS3+G34lvOnXzBxdIWpv9Q+/RSSikkAWGcMc5AsCVrM4AFby46yXfxnBZrx395y7M9nm8UqOdLB0mG9CEoIAS0AgUlBIT8JZlshdRAQg+j7x5sc+muijNtBAKB5OTkCA5XSjkJjF2xpZKRkRFZpEZZLZVot+jgODaJzZs3Yz8nzQoxceLlUW/VAVBKHfedYcOG+f1+y7IqakpRSm3atAlV3nnq1KkT2YFO9VEPj0MQW8GhlCLAjo3rR028A02Sw8HQQeq4lioPAhCtNaSEFLBKYBWSjGRcNvnHCY+SFzfUmfDEuOnvh4GfflxJRInBqcG5JiQslSXEQfNtUEKkUiwj/c/JU/HJQqTWgYh+/XrGqVIqM7N3//59FixYgIps2X733Q+33joVAPmrVdEZtUurz2tWgPyss4ZOumuysiXlB59OhBAiLKAJ55wbHARrNv+yZ8fe37/ecnH922amLW1564C5x7/XpXF7KxUlhrIobA0lofX+b+9v5ySAUiq5Dn5ZtOHaoXcDEGHXuE8eQGVyfrtCajhE3NRquUdnMo7svfTu3TPazTkITtvatWvfqVMnAISUV8yVPU8ng2oV73G4whrn4VJibeGgAFIaN8PQs4ygxmFnYmfucv7RVNs28vNIQa7Roimm3fdm1/P8T/3YZcqrdy7+ddXuwsULF1EoP2c+w9CMlVjC/kf4JSVEALVr1XqbJ2PhJ/6Mpoi6K7XWhBApZc+ePevVq+eMg+UZI95//4Njj+2GGI3XBCZl0CWzE/e2nX0rAM0OHEeEEFZYEEEMwzD8BqFYtWnFykU/7/ou79Hub77Y+FvrrGbv9n9lWLc+oj6ypAgKBQ2Akv1V4r83gGiEFFqkt7mo/ZUAOHVBzs0DcF6NbdtOqomKQghxQj9cMYiHw+HI3DiqpRaP86FVCOct9OvXr3Xr1jFo0cEvl5AQaNu2LQD2jw/wEOxLa7YQkVpxIiYYDEZ2YCVzndU0XLQUiSIxHCm01oxRQL3x+VJ0ykRJ0eEFx/4QAASEaMAOBVFcyDjl3TqF+zw2bY+Y9vJ3+GHR4/XapxZlN87dcuLQIYk+A4AAwmHbpISXreaFAOfDmjbv8vLMVW1as7r1ZXFRlOvX76Nly+Zz3p+XkJBUv37df6vh5Px85cqVGzZsGD36lFg0AwABgbLn4pfCB69sDVPaosy8IYRQQpnUZ/gMGACw5LcFwRW+o1M6fHLr6uAq4+T6HR9pf5cVQJ6NLZZFNGegHLzixhcaUrp+SuKWdcnfbV16XNM+whbsX6ws8YxSKrKQP0KIi0phVbKIRpW7GuRW9KKOj3abNkfHrFF/g1IaDod9Pl+bNm0qeqwzdESW/aWSRCw4vBqQFcIVi5CoE/MuEs7NufThV/HAAHtvEXika1xCwA2pIQsKkWubhkn7ZoYGZ169oRg/r0H+rtsa5dlrlo9OU8cNHcF9BoCw1sISJgXnXCiV2KbF4suv6Llp3a8Z6YxyqdUhl+cVQwOUUtuWycmpTZs0+/LLL8aNO/PfZhpCSHFx0a5dWddfX+onH61m7N8iqnURcn3/u/XGy87W0MzgQgphSZOYhr9UZ8xd8V7+Uruj2WPNq8XZywrS6idPaDqeDEWuja1hmxRRBmbAjHiThwDCVgl12eovNvwxdfFxs/pIoZmrBiVnUPD7/UlJSVlZWRU9XCkVDAYDgYArVjOpqakR5AjHfplGq/I2I/YYaNasSXRbUo4rNgNgWVZFH5EQNqq8KFpGRkZkB3qZRj0OS8yGf621kxY6vTZOv5yGpKKV/mwIQCioz9IaeTnI0b5Enx40wOK4c2MB1uKpdGNc2s7w8i9uODql49BTfI7yUIAQYWWlNG5098qfzli5Wvbpj9w/wVgUNQcAzqmU8oQTjl+zZt2ePVn16jX45+845o2vvlrav//xzkZM9FfATsIMsNuPIg9fdraQQgnFwLiP8wAHMO+Hd1a/s3lA8sm5H6flLQ/nZaSd0eQ0OgR5ArvCQhXAAC+VJJV8PAQMpEji2Aa9B3Q7BoDJjBgEJ3tEB3fFQ0a8EK9dO0KnyAhwvu4WLVo4MfMVFRzhsAWAUqJU1KtGe3hUA7Gy92qAEQLgxvsfR9suOlwUzdmdEDAOwwgLaeXm0t3ZZjJlw4cV9hwyY7vvlWDTfllNh3702ym3Pbpq/rs+Cp9pJPr9JcDpJw0ZPPcLrPyWp9dFDOrXU0otK3zMMe3mvPdhUdGBel8IQQh59tnpgUBiUlJSTHIAaK0ADv+t+HjI/PsBcMZNn8l87Ou1S845Y/yCG39Q17ds8Gyf4FMZQ4MDzzlhWNOOGVkJcmehCAcVV9wEL/UAjcbrIqDFlmreIOHrl35668s3iQlhu8l11JkeSkpKCgsLIzicUuqk/XbFbFFYWBiZD0e1hMXu2bO7ooc4b6FFixYxaM6h4JxH9qXvO6pKO0/E1WITExOj2xKPI4+YbzA/vGwTfFxLHV1zQimEgDHFDcuWMjuH5uUY6X7Wr39e866fBtPn1hvQu7hzx1e+HXT5f3/78uMEACb/dNptbX5eL7b9QRID0Lr0n+jBGAdw9tlj7777/v2HYKUU5/yHH1Y0btykf/++iPaC0knJKqFN+Bbgq1O+mjekfScAuXrvgL7DXj7ro/CkJicvujbwZsuuRV1HdOvdvF3t7IDaVSyCJYoJxsEJodHSGX9BAKl4GopXq7xvLADKhWVVTNOMzCGuhqQ2d+6xikVVxJ9PtMqmlAdnBAgEAhWtNqxLy0fL/f9aNUSsGyJzrPaoUcR+R/3US2GHY6I29ocQcK4AZduwcgkITU9U9bqEhPwlN+2X4ye2LfanP/FZs6/eWPjAf38bf1G731b8KtOpYWiloFTp9xyNRjou5SmpqTfeeM1HH308YsRwAE49haKiovT0dCfjUHQ2U8rGIVKKwYwCe1ODj/6vU99egzJH9g0OOTF17M1bX0jOSstICrTviKBGsdIFIUVACCgHjfXyiRGaK9C3/olNWwKAabhpV8WZRCmllUltzjl3hQ+HaZqRlSetFlEVsYtiVe4cOd+4YRiR+WFUS7eJOLV5xJlqayauGBOiTqwEh/M0x028HKc/CimqzihIKAg0IG0BK59QkJSASk+BULnNj8tt1jX9Jzv9tbfNRR/ipf+qJg1QFIJpghFiCQihcdhwz3KhlKpVq1aHDh23bt3WtGkTZ9z59NPPMjIyWrZs4UxCkZ9dazhp1QFKKQMlSgFhqQEVfiIB629ecf60Tg/mv2uYpllA/M1hawiFnLAioABhYFX2RghoSchu39b87/gHuxu1Lzz9IjssuOkq39FKzFIuilKJmJpwj5VBSumi2cVFTfVwHbEaKZyl4ZuiEUhM8nuWpwWgVGuqhEA4CBUmfoqkAJJScnuNzJr2cmDGmvSxF9X9eS1KirHzTy0snZiA5GTGOBECUla+2Y0bN3zwwYed9d9HHy0IBsMnnNBfShmh2tCA1kprCWjGTWaa1OCqpFDt2YvdJclpj2WsH9ckZXDPRfeYtzRWjVLq+HxpRCegSChLKHWwZKBVAQHRNGignerWmnUo/ZGHh4dHDcYVfl1RJ1aCg1IKUYSh54Cofavx6qAsQZWGVgpCQEtoG1Zh8KQz6gXaZWUO/Pm79bUfeLrtjt1sVxZW/yLtsE5PZ2npBuewBUSEykNrzRi7//57Z8x4cdu2bRkZqeecMy4SR1Fd6qAhoTSjpun3kURDFuXJbb+qDbkN6rzbyJg6vG5JwfSUZ6cdX3x2W45cKqQPloaQUApUU0JoVeuM/aAgeRKZdQel5NQHhOFzmXmjMrhoWNlXmdkduKicnmcB8vgnLvrWokhMvgSnysm4K26CmeRM9tW/qC1LYOogFYpLfh0z+fm5H3U8adCeZ55Z177750t/Ofq1OUMlwTfL5bfL7XAIGY15eobBGGwb/5JA/V+uRuBUrE1KPO+8cevWrevVq1fFetg+e4YNKRgxfAEfTzVkKNfauFgv292i/s99Ojwx6qjgzmcv3P7B9Pmvrl/9dXCaGNt64PagYuB/SwZa3c+eghaXhNu1x20XP/jux3MAyH/khD1SqZnDSjxT9W/EXfHGEeMibe1RXcRkrelk4Pi0fi9QSmJQpDUKEAItwOiEjak9f1rVoXOXsMYJ4874ddwZAGZ88978AE8+ut2sWc+Llk3RoSMymvpQIovyRTgMykBZeSJHnbD7xMSkIUOGVKBtGgAEpCIkwZcAZcIqype/LcS2Vi36pww5a+62pWkf3tsPqf32HVGCwt0vok/RyXl1AavaBcY/IGDgeRrDk87s1qAFABL78CiPiuL4HbtFIXlmgxhRE8oGeVQX0RccWimTMezYaPcYBF8CZLRrl0QRk6Fd164zn98xIVi3c2/LCgkwbhqXXHfVJQCAzn/sKWnc6ve9ha/9b2Y48zj06IGkBj4U6fw8K2yVP8TTycBRjiGSSEhA+0w/JX6EZWFo3SfYIv0tR9815bffFqVfe16H9h0fwUQAKhi2tPInBIpRcM95z3SaM6xRb3NvkeAkghzkMYeB5VkYUP/4H+Z+UrtLQrKRHpOkZzHDRU2tIbjIbBBx5/FsBkcwNfPlRl9wWEr5GTvvoZlFPSagUW0dDoPE5WCtNWyLJCaJE88a/9mHH3XuLTRNMDm0tiwhoLjPd8OtUwCgoKiPmZbRpPW73/z89pJF4YG90Pd4IBFpaX+d6pC9p5xBcX6DpyEVKi1PLv8W25cidPP0l1nJFnJMY/+gITdhOACErLCSzGcwv2kqAmDFt6vZrLqjR3T+ba8waDyqDQAECFnhNkf5rpr2TtNT03p27OWe2FjAVdNbxLjLh6MmjNfV8jpc1AdcTc18zjHYUiEMwPctMsEDVAsVnxMg9mXdKC5CSvLHTQe8/uU3Zw3sHRbSZNQwuQFA66BlaUrNlKTLr7kSwKnwXZRX7GvXbcbbH73+2xqs/x0XXhKVMBxnNvtzy45v8e3HctPZjz3dtmvzgnBWwpATT3N+I2yHpWCGwfyGqZ3WgTKEUPL71Nyrel+0PlcZlMfvIOzsqgBjki9qW7cDnPJyHvGEu7ZUPGJETVByHtVFlAWHlNLPOf74pahlV5gZsCOsP1lFEKIBKsMqrf7Zn32dVLx31KhRYSHMfQYJv2kC0EqGbAVOfc0andSsEYABvTKntD660GcCUNEYoLlhADhn6qS8M0fvTkDrLl19QAsAtrClBKXc5KbzsjS01qTUTqumDnr4vE03ZzcBlTTOBwoGlhfWg5tlPnHbo9c8Nz6ZZ7hrVyUyvOE7RrhIGLnLPOaiB+tqaubIEOXh3pYSwCXPz92xdTcSfEpFsyhrTCBESWX4gONH3/pzbui3n32cH5AyjxDqM7mPUi1lWIiwlGjSqGOXTpnt2qI0GKSy90gZBVC3Xp02mV37dunqk1patm3ZmjPuM7lxoC4klAIYd/r4Ib+Mr30Uk0LG/7xNACFkcm38PH1bSUEce/ZEFRcN3+7aUjnipWp1EfFoVjNnUI8KEeWPVlEOYH3b45FWz1CCEEAraB3XG/aE2CUlRmriT/V6vpxvAsC/FLYllJqMmZQKKW0hbCGiOEBrraVzXiEkVdTg/9QZZb8JwEZw6A8TOrZsWmCDkKrLHFphNLSG0koRzSgrYRiddEG6kQ6AerEqHpHiLrOBi3CR6HQ1NfM5R3PE10r5DIb8XYUNWsEM2PnFmnD4EqnJCVFQCkrFo/IgBJTaBTk45ujL5v3+/uJlnJJDu54wSjljPKL6CIeAOudl7NAzMWMM0A92mZ2Z2q8QILGpi1dZ/tIZijAkmDQgCS0ku3fZnVO6zHvnSxthwkh8S1GP+MWzcMQbNXMG9agQ0fxoCaVMK6TUX3Fig9OXPMIXvZFCbGzZrPKKNfxITmM+HyUKSlRPsvNDQAgoQ342Tjv51Oe+WPv9t4yUpi+LOxQBcHqnCQPzx5qpUNEpORc99ukMQSTlSPLRVEJ1Lrb+kZ0dLNpRb8O9uVdvmvnB6eedZMCnlac34gjHabS6W+HhUSOomd9a1KNUiAYI8M7j9wAAik8499HsAeP2JLbL+n6VbNgM9epSH+PBEhEKKQCUxcuESQjAjexC+8Kpj234ckaXIsNIijevxnDI8gd8d91958WhqY0bJhcpDR0f0R6lykFJKG6wREYDGnt3YX3Bn0FfQbM+9d7+5anWl2dcPfHKQXjGOUIpBeKaWJW46gYxwl0+HC7aUqkJncfDozzEICxWaw1IKSWojycumvU/AAXb14964+3anSct3L42d8seq3UHNK1rALSkJBwMlhoYql15EGILCb89M69B5ldrLhzYkzGmlQbiYtNCSu0P+PZYu7ouOb2Z0TLIoEV1q2Tt/EfZUJzTRIOmcpq9Db9l//lH8a/Hn9Pt97zF21qsHnXfnU9hmnOECAvCCaW0upteMVw0vdUQXJRNy12dx3Ma9YgdscjDQQAwx9FA67AlwGhK49aLX3gEwNIvP39i45qGx/T8vw/m2bYf7buhVS1fGCgsCIdtUAZKq3PRSyhCIXTrcNHrr9XK2XHyGaeBkngw+zs1ZtfnrZtxwiejc8YntkSxpaozQbiGghaQhCI5wBtyGtyFtTtzl+75dPD4PrTV7t93fjrh6e7tcSZwJgA7aIMTzhkzo+z4UjV4i9R4I+JZ3EVWHHfhPdgKUTMfV8zrdvpMDkAqGbYEMXx9Bg7qM3AQgP4/Ff1EiNWO3vv4E+EWndG5Jxql+INaFOYJW4AZINWhPAgAgpwcjD/nlKcf1GdYRBk6DoQ7ERQcb079rPvGPm37pu/IU4xUR+INDQWtIBVRCX6zgclpAVb9WDA9+91jhjYfeHuPpd9sbnpbj0aJ3QahGwAraGuiTB/nfndXiHXXIrUm4K2n4w3vjXgcliqaBiihAZ9JoG0hbampaYw+66zRAIBuJ9RBx6bf5G595IE3QscNQ9djUZf4ioQoKpASYBSoWuXh7O9k5ePMqy95bdGMc4aQ6lajUmjup98vX9Xx+349u3TZUVDlakMDgIRSkD7TSDN4qsLqX6w3dr+f12j7nR9et+XHQLv+gYbtE28bfRMAEZJCC9PHDZfrjDJqgoWjhmQa9crTx4gjvudEl5qpz6puPnA6I2eMMwDasoUEGDdOP/ssAKeXFA4f36tOZtd7Xp/z5oKV4cFnodMxMGEUh2QwqLQGoVVXk4UQKAVtzcyrVfvhp+67YZKUspz1UKKOFJIbfN0faxZesma4dU5uQFNdhV1VQzmuoJylcppG6PZNeHPn5x9as1/7+omRqm2+v05iD1zQaxwAZWlbWoaPMx9lMKusjR4e5cebFw9NxM+nZs6gHhWi6gTHAZ3R4NwA9ikP6ktIHjh0CIBZp/a5pVeruh2POePGO7/607QHj0Obo6BAQyXKtv7mvBnd/l32mWlNCIE/oBN9aN/9/vd/vg+QToWY6oARBmDr3KKmq4/pMBx/FJAwhdR/c+CI4oPQf/uzIoQmcJoKmrsXi3b/+Mze++5/ZfLE0f27bTDrdE2qg04AIGBLmzDCDGYaR6bOqAlbKu6KUnER7uo8Xnl6j9hR/RZvR3loKcNag1BfnXod6tQDsHDKxCD3hajR+YILdzbrr/qNRK1aEDaUvS97aVn/jjS4Upf+6+QnB6UAAzc04di4DgtmX9a59iOPXw3AZNVnFGUQ2hp6dc+3fR9mXn7nhHo3HF87MzmJhigkgQL0/vcRqfQofZYEAChAAKbh01QH8XPupse3Tut3RZdbn7r+uC13tmzWksPo27UfJISSIJoxxln1d6T4xEXLvhqypVL1uGtLxesAHrEjXuYJQqmzNJZSaoAQymrVSwKSgB2zn4A/ecO6tcdPvvHPHqPRvT8oA6EwOaCJFFBSawCkAvOt1oAmhIBSzQxIBVtCUgRz8dlbp9Bd7z90My66CzIMAFpVb1wsgwFgzGXDh1ySmcoyrr3ihs0vFY9venVr2paYYAzcD8EgpVbQRFOUW3nofXGthBBOiUEggxAC0sJOsuv1rf/b3nbtR1veOUE/k0D8AI5u1hYaSioFzRhlrhpJK4O75ozIcJeFw0VNdZeFI2JcpK3jARd14CgSL4KjjLKR3amgRiil/mQArdq13zXvRQAL57131stf7Bl0vmrQEmFbBxKQlEy1hAhpobRj7fi3rq8VNAhAONemT9saJYUIFSHBwHefn7j923nTrgycds1fv898UurqDdSFk1VLglCayjIAPPb0w3gaAIb0H9Fud++Tk89P3p3BqJmSaPqTSFgjLJXSjqGCAv/YcdknMhRAiPZx5ifUKkFBsSwOFdFaaqH+4K2i6T9sWTgAdzpHJJFkAFJqQFFKCYvn2i0eNYKaIAGrBW9LpWqomfos7gRHGWUDirM+KMu7PGDUaX+OOg3Ah6+8eM3STSX9z9hVkKQsjTr1kZLCIBAskVIAFGSfzUNraAVoxk0dSFSK6JwcbNtBM5Lq7drQdMW8dy8d3eiOccC40itqEJSu9ihFVH0kIoGAgEJBQQEglJa259PF8wHsEX9eOPL8IfLMzuE+wU0q1ajVuHYiS0QQCNpKK001KSvOUlrPhiLAWQKBKsGurPDeYJa/Aclq9ceTa+96/LV7prYePxXjy66uldbQIKCURL3a3xGPNwp7uAuvx1YNNfM5x6/gKMPRGaX2XkK0UhrgjI08/8KR5wPAc488PLM4NVxn8Oq1v0tloEVrZKSYttAlxcIWIDAMrhPSbErkngKsXcHSA11SqPnLB9OHHNPhslFAfwBKa6UUAzSl0Bok7hSokwdca+cBgBAipaSE1uH1P/zkPQALf/7slVteP6v2xL2rk0O/6EaBpq0aJyMRhRIlYQFNQLXf5MkMRgh/bAmvKtrEG4iUAfzVTQ8NmZQ5/tQJ4/AZAK20VJIxVvZJxNuj8PCoIfsUHh5HEi4QHA5lcx6hFIDWWkgpNUyDT7z+hokAwnn/e27ugkCLvUhc+tFaK6k+2nZGhgHA2hPG8mXgJScd15qHf7mC0ZNOOR+ntANga0ghDApKGSuzZsTx/Lr/3O9E6kollVCU8AGdBg+YOxjA9A+e3fphTr200+a+v02sSGyf0alFsyTlBwlh6+bg4r2/iDrZnca0+b1kAe9tTb5g8kC8AEAJ2Mo2OCWEOmf2dEaNwl1Oo96WSozwvvqqoWY+Z9cIjn/CGeMAtLaEECABX9rlV111OYAd294O0T86NfhWb5sz73f42bkjWndsU7/bH+sH9UrHgPEALEBYto8Szhjnrky2XQYllBoUgJBCWsrk5qWnXIZTAGBlj08zRZ92OUXfz1iMXU1Yyq4u17ZPaZz8cWhR5gWDM3ENANgICYtzwjg3vWCTf8FbT3tUPdUyJ7lFcbqdmvmcj4QJhlGiLaWVJj4CAI2apK9f1fbLtRduqTf0vUDAj5OzC36rvdXokY5AaukhYQWliJMK5EiBU6a4DsLWNk00GIBrxl41b+GH77fLe6F4Gy9OI8k7T+1rDw1jcr/rAAag2BKEaM4J57wmdv9yUxPW0+6KUqkJErBaXkfNXHlXPTXzObtYcCithKUMypjJWQAAPvnmw08f/+4/Pa9f/Sh+2s5OOKrTmLpQCuum44vN25p0RfL5OU8ue/CiJ07tUr8ngw+ADEuhFTeoq2cUKaUtNTcN0yhNvPX4I4+vSGuR36r73Hez0a4Hjj8RiUCoz5Mrf39yzbKB4R1H/bm21daVU26e6pzBBkTYNhhl1ZhxJI6pCdObu6iZ43UV4CLR6eE63Cc4lFJaaQrKDMb8DMDa/J/uG/W//3S/kf3Q4ZgfMrKX+s9tPArtkRvGdiEB1GnGLm8zwsrB5oeDHbNHFRc3/qTJqre3v3DL3EnNfW0YGAAlpNKaUOIi5aGUUlrzUgDgnVmvPrBiZ+0zL/mEd0UoBflJuPACIyRUfp7OVaCEdWhhH9fmy6xiFDWEz/xieV7h3FfPa2xMuvwyw2cAUIAUghI3PYcqwEXF0CPGXT4cHjHCRT3Ww3XEv+D4K1QCAKWEMUchIAtbr+5/+4ikc9uFu49eew3b0aRNutmpz1GFCrstqQs1BTfAAFgWdlqCBmidNoFTaJ/C7aBr00cWX5E/suGT4bdXJS+5YfZ/2iW0K5tStHJSd5YmIY00j2m0+ftUQCll++q7/LBg3qhXFtY5d9JqIxNtS5BF0KMf15oEi+ysHJsSMArGAa2Ki1CsDNNQnTpIRr/IysNRJ34XYDM/2ZL18mPvjx/cc+gIykt7xf7L+jj3pY1bvPnbw114tVQ8Ykf8Cg6lFJyKbexv/XiT9cedox9uvqnz6PrnXrH1oQQzJTVg1O+YGtIoErqgRDEwArZ/+gwCcM0hYAlkQfJkWic9oYk+ungnepaM7KYGFQ817s1+eW2rxbe+du3RyR0JdarUEwBaak1Kw1Cr+An8hdaKEEoOLBG78bulx97/ihw5obBeHww75k+RgbqJpCGl4ZAqyBEgIBR8/1dMQAlAbalQmE+gaYKpjm6jNX4qKMKIq3rZKRkv/xB6+5nVt1/a4the+y/rNaCkpCjNTFLT8LZUPDwOjaetK0TNfFxxJzgUFCQIKNsXPCJhMZh7wllTzr47cWGThEx53gAAIABJREFUc5tfcX3oKZgwi0hKkwQJ2ArhsAJAQSn+JQcmKf0P10wrWJYKE9AkmpESYCpgBTGKXzBq4wV7j8+dvvextY0Xvrb4+QxfHRuWwUyC6rYzE8IcqSEtMPOPn1f0vOelPR0G4dgTccF98JkwOBonUWFpq1iHIQkBPeSbJQSEaSeda7CIaJAErpIbQ6qcum1xyYMtswO476P07z7Y/PiUlKZHAYKAO/YUJ2EJqRl+lDUKdzmNugh3fSmeocIjdsSL4FBaaakJKDOY06h8ncMUZ9KYeMqVfFGDcY0uuTnxSdESoNBpUBRKISgVNAVAUe7046UbJJRoaA1LAUQRHzUCYAp+mX55w2t58NoV7ba9sXva9parF/z0noYCCKCrK+Uo0QqErfx1/Zn3PLOhdlcMOg2XPgpIaAnTR5SCCGkB5Zg0KtRGQgCiAS0kRAkhAGM6KQCpcdzA3OMGpa628NCMDsW/fXHv9RnpGdwO0qQ0yhgAWykoTaD3bex4HARv+PbwzGMeHg7VLziELahjzzAAYG9od9bOrGOadrxt3EPZ7+lTa19wf4OZujvCBGFVWjxdA5AAQCo6v+7PX64ZVGtoCUVAGMAgDDRPbnJvkzuQhfsT37u++CQuE1BNs6ollY+zmV+vvuTzfEx5DFlhSBsyWOZkogGUX28dFGcHCUQD0ApCgQBSAgQ+ijEX/kJ5vWXZmPd0Zu3wSzdckghdjwSNuk2dROeW0FpLRknNqeV2RFJDnEY9CXhojvgOECfUzH5YdYJD/73iqrAFFAxuGKYBoFjnL1r49ZBOw2bf9vGnz3wzNu2S/za9z9cP+UCe0FIrqghBqQ9D6fwYPQ549RoIKyUU3VKwHRO2G0gQEKyaFAeFBnB8qkgoXF2ypRtltlIalCJGzqwHPAspUVJEoGlqQE68bplCm0+34Mt3+zakj1w5nmdtb1/L72/cyulIJUJSrUxGCfGURykuGr7dtaUScVNddI8eHkcYVSc4nEpqti2VrX37dAaAF99+8YRmg7cu3fv0dfN2JmaManrBJSdekK2RYytlKQpKQfm/eWbEBq1BCU20sHHgV/99/CrsSyJeLXDGhFJHd+y65OKEXis2iKYdaUmu0qSKYkYIASEakMJGTg6lmjepa19x3dcCPd9bje8/G9Sp7uQxdcM/LhncvUNCw6MAJoGgZTOtfKZZFS2sEty1DV8TcNEbcVFTPaqMmil8q0hwSCmFLX3MZ5jc2Tp58c0XaxU07JjQc9G5m2xjc59GmXMGP5ujkR/Gb8U2J5yC8kruFESE1lBQTXx08rJ7pi45E3HQMzghxZbdvf3R//3+3bvXaXZsZ7UnB5RVaZwqIeBcAVYojJISRinv3M7q1fHzID5/byV+2nBKScbo9iy87JOJ545NTEyFkz8+ZFMCn/lXN6s2R5jKURO24WvIlkrVUxM6j4dHeYit4FBaibBgzOBmaWqqjxbPW/nO+ouPnbRziq9oN69b2/fsiXcVMORZWFcYZoQzMB8xqm1S0pBaZfjoS4sXtH80vVmgVTW1Y/8WAYCPEgC3DOz61iNzfk+rxRrVl//f3nnHR1V0ffw3M/fe3U0PJIAQWqhKV0CKFFEUCyiiWAAboiIqih31saAgoigWHkHFBhYeXwUfpYgoCChVRJAiEmoAA0lI3917Z+b9Y8jKY8Fks5vsJvP9w49s9t47e+7MnDNnzpxTVBiuXZWTQyko5RK8oBB5jsEY69zB1+v0+dnO/K83YieWrs1pWbI16efv7r3vHsttAvBLcL9tMGLq8FJNiIgiLR5dHo6gYwtqZlCCplyExeAQQgghqGTMYszDAGw78tPUG2bd3fNh+4smSavde1LF6ObXiLY4xvFLiU0loWAu4qrixa+EgIhx0YyduR1mJfe97jaUbmxX4VhSD2aMOZy7Gqavu29I8/m7jsTGkhhDOqLK/AUEIBTUciSc/DzkcsO0WJfOvl5d/nOwCBk5KGy2ek0OX/bJ+XH2rWNGw2UCcCRsx3ZRSqJqCka06YzgiK4Yjih6I1FkG0EHx1QWNdM+C73BIaVk7HgOzCzsv+u8JwbXHdE0u23P5Vfl/RR/Rmpq97PbFXJk+h0UgoJaqDp/xv8iATCS4MPLKS/dP+RGANzhlNEI6RmMUq9tJzRo8knbfb1yiiVSCfHKP8TiVj4EIAao4UjhFOThGDfdJuncyW+c8X+HchHbaZ4p567MOvzOiy8P6X7OgIGGeTx2R8qqs5bKT3TpjODQWyphIopso4oQIfOkJpIJ9UiQoJTmI3vkFWMmdX0n68LUYVsebrCqc9KB2gO6d0tNd+d5+G9F3OuFIQwDBq3IudaQIiUc8MYWeXj1xH5TOtaPayg4aIRVMnMZRonDz+rdu9PHzyI3V1puAIgQDUEoCIVh2lz68/KQk2PGmazT6TjtjG+yjW1drjnfe3qrT7fVvvTmQ1t+BKASqGgih+jycEQRNcFahfZwaMpAKD0cnHPDMNYeXFs0us6YtS+iljD9rnYtmvoJbEdmFwuA0f9NOh4hSAlBRF2TfbD626Fz+5x7Xk9IEBqJ48dFAOCH2VNc42b4+18Hk4Hzqm7U/0IIVGYwh6MgjwA0zsVrteJ++UtJLIY9Vn+nZ2NsZsem9WT02By6eJtGowkhNXOghXLGZ4wJn+xav6uTWizdTu1TXDwOBY7w+4UUhIJRojzwIXxmKJDg4Ekx9Octh9tNTTn3ip4Q4PJkWlwIITgXodb0QgguBBfiJD2RUCqlBCzf1DH45UeYMUDEODn+ACGgVFLKHQfFRbCLYVGzSQP8/GN63doAi6KFX9CL1Jo5rWg0mpMTRUuREBLiJaYt/AC+9H60v3ivwSGEoLK06FhkildCSOG2mDiKT8y3Mk/bAsC2bfpXqauE5NzvCD9njDHDYIYRwk5DAMaYwZjBmARszp2/MWhKXd90urkVO3eQuITSsyyRCiEgFJTCsW0APy5kxXkAgOixOGoAektFo6k0auZYC7HBoYIeWlxVz9XIcIpAKIlwoUqAGsQswLxDC3q/2mJIr6GOLQzrf3aapJR+n1/4HEYNw2Uyl7HLe2zrjl8yNm47/ucKdx0hBAjJzc7duDtj96bNjHPLMEzDcAjxcW7/wfIo9XuPvu2m9hs+kJlZYAYi310gpWmZyLHfGT04NqUWoiqYLoqaqok0dOfRaBQhHgmGaQgbN188uij98NE8n8oeEbFICUlkDEim/1CzCZ6hl11u+xxm/N5mv9fn+PxUUpfbxdzm7uKc+YsX+zbuWTDwgU9b95xwekcAITnh6XccAM+88+7pTz2e/vHst3fuWLM7Y83ni0zAbRiWYfgIShy/w/nxXSlChJCAsWna+Na//QArjkGUbqxEqo0nOIlNwIrFPdufCph/57+JTILeUqmZjtNKoCZEYurOo6lmhN70trkN4O29Lx0rPmoRSIgI1YASEiLeRbIPZX+WNOeiUb2FH4aLgsCxfU6Jl9jS5XGbblc+ky9On5G1aN0vw59bPeDqbacPuuOr7IdxxXk4E6FS75QCSK2TgmuvwoTJN8Qb3b7/utuKrz4ozn/jiy/WLFjsBokxXaZhFAMlfr8UghA4XMByfzmkHRbNJQ1qwbEhI3bvClQKvxs4sN7KOVzVbak8aqbjtBKoCW4D3XmqMTXTmgx9Hg7lIbjtleHGGOYvBnVRKSJSBxIYlJZk46Ocj7q9nQ4wv+MltnSZpmm5YQHAU1Om9COn1N+enf/mY/vRuD8anY+r4BY+UezyH8tFUemd/gHOOSHkZFOkEAC4z4/DWRZ8NDFBXnOD7xp2TeYOZO2LYcaU4vyM6W+M6d23adfT4XIBKOEObMdg7oapSXcnHH5h0Wqzbzf7aA5Y1VcA/gukNNwe/7686Tdc0rBVOgBdWjbSiK5TKlHk4YiipmoqjWgZaKElDAYHY9KRF3Ye9O+YebVyBrnc1An5M0IE8WKXP+OyL08/s3M3+Lk7xq0+nzZzZtzynUPjWjacOdOCuwHq/4sMg4tzXlJsH2NeZZqWabtIZSlVad3L0MNUvRKX3+9HzkFI4UlJsW+4tRhizP5tSI1bgOIL92fsn/7GR7eP9TSoe9y2MOOmjr1+z+wVn+7Yz+qncL8PEajLBUdcIpbMO+3a9oDL5wiLRaIVWpOJrqDRmuDhqBJq5spbUzmEZTXsSMeE+XrGc2dY/WPiY53I68ASMAFvEV/Z/b2nOz8GABZ7Z8H8XY++O67pWV3/778WcixsvA594SISTpEv2/AyBlg4Xj21LFspUkpKaWFhwfffr+7Xr18Zp0gCAUpgGABKvF4U7aNg5in17etu2sYLtx3Yhx4dd9LC1EXran+x5P0nJyA5AZ6EORd37LL88M8kjREfr/L0o3+CSulnQN4vtXNTgHQGAURTXRWt3iIN7TaINLSlovlHwmJwqNn5s+3vHTjLEXallaQ9Gb+v3Mjx/8QDT9EJM2Y9/u6yRT+OnHJrbLu+W/d24Qc9PyzqjjSYzUFsr11EfIQALpSvNKtybFBKi4qKPvroP/36nb1u3bpu3bqVdQUZ+BaloJYAfEUl4IWMMXZKfbtxy43+PLRujFqDVzu58vU5Pbfvnf38M5NcGwetWiwuGkAOZ0tqgATuUxU13k5ECtPj8WUceWnUlW07NeYAi7YqbjVBvUXXloo2AcOErqWiCR/hMjiEEGmepq/nvjq81hhiVF1Rcvm7zqUElIBwEI5YN971fpWz9909zQ5ckpF7LmQqfjURD6MNwH2cE7uIAIbKUxZU0wkhnPOHHnr4ueeetSxrx45fPvro4yuvvJxzHsxcqWq0ArykBEVFzDDQII03Sd/tLcIF/facxxcc2e/5eVX8pvzCtl1lam0UF4EQSE4gpSiVQlUtQbiQ8TFYvCC5dgOgsW07LiPKDI6aQHRtqdQEE1CjqWaEa5WgZq5F8v+4L2zPONnjISWEFIJIxuA24BKQRfDnIP9Y8UJn0c17Lh+29sX/FnZulpGdCKs+aWywWn7K/I7PdhwmJQUhhIBUyDdw6NDhsWPvtCwLwIAB5zNGli//ljHmOBUIa6EUhsGl5MXFyDtGbU5TU5BWLzfGOHj7mIL/PBu34fXaLz6IQ7vhc+CXUjBYbmJYhBAIASErPy0pJdIPUHm0tX0UAIvQY0snoyasp5WHo6pbUVaiqKkajUYRrmlUTQdrdn99kB8yKk2/SAgpuBSCcMNAnEUTCPHlyt8y8w8V5Pxaa+P1O88peHPN7RsGTGKuBjBBPZTG2ZT5pd/hnIrQ2BkAKKX5+fmbNm1q1iwdpaux/v3PS2uYBsA0zYquzwhRPg8hpfD5UFhCBIhhmMIpuOXixc/fLK9t+8CqKTGfvWLm/4bsozLnmJQMMfHU7aGUQAhIUUmWhxRmTCy275903RWdzx/ok1AhtFFE0Et/FcQT8vaEiRri4agSSyW41lZJU4PuA9oE1PwjYZ8N39g+1QXIsCaxlpASjuQO4YZFE900hbKSLGdnxuFNh3YdafnrizH3LbnupYFLO633L+3d/ez/dBhRf/chsES/4EIIEjo7A4AQIIQUF5dMnDhlwIAB6kO1x5SYGH8kK3vx4q8QwiAG1WxKJSCFsPMLkNa487rvfti0+ZmJE4pmjPdfXv/BdS833vR5Pd9R7N4p9h8QwoWEJMMTwwiB40CEOVEKFzzWja3r/WuWAhB+O5wPCzFq8vV6vfn5+UFcbhiGaZqInrk4uHZWye5GTk4OgtKOcXFxYWjOyaCUBmd3Von9pwQbBPHx8aFtSfUmWuaE0BL2tabnAh/PBImloY/jkJCAgBAQpmXUMpjbj8MHxcZjews9Rxv0qb2yZN7BtO0zX5h5DmYAAIeP4dH+w6/9aXstdrqPFx63M0KK4/gZc73z1juPPPIAO6G6PaXUcUS3bl2mTXvV4/H07t1TBZaG8tnK7XHsGIYMP+PO23674dY6ndqDuCdNfmYSgOzM+1/8aHmdjvl1jO3rM534VDRsQlINs8QnvCWOw8GM0IeXSlAKx4fkenGDG3EARtQs+H/Htm2v14vyK4BoiTNQvyshIcE0TZ/PV/bQUfUD8/LybNs2TbMyFWRBQUFwF/or3eSNiYnxeNx5eXnlHe/FxcVHjx5NSUkJU8P+kuBsawA8qnIHa6qEMBocUkhCyZtfvLSoyd7WiY2LbEFD4lCRkAAHl+Cmy0o2aYxNszKx4tDPObGZpw5qkh//y8+1ll3x8JN9ME593/Y5ftsbGx839725/b860BYdfaKIgYQ8iFII4XK5du7cecngS/68kDIMKqUcO3bMwoWLCgsL4+LiggwgPQnK5sg/iJemDp44dVWn9g7nUkoOuGs3eHbCYwBw+Nf7f1idUb/7Xj9dP2+Tv0V7NG1Ga8Mq9NolJZwLMCN0kpHMEyv2Zg7r3KJNjyZeLlzRtp8C4MiRI0VFRSi/wREtm0eqE8bEeAzD8Pl85b28sLDw2LFjqamplWlw7NixI7gL4+Mr28PhcrlN0xXEhV6vPycnNyUlpTIFu23btuAu9Hg8oW1J9SaKti9DSBhjONTRiOzCI1P2PhZPwGXFXPcSkOBS2PDDRHIcaxxrGfuxauXWVzfMOXzRz4mP5voe29L63+7hz1886eHnTBnjL7F9Xp+EZAZi4+MyfYWnTf2mP+Ic02YSIT83wzlnjK1evWbNmvV16qT+5XfUEqdnzx7ff78GYTodqmyForzvrrn0w+XLDMYMw3AxJoTw+uwi20G95s8+dPfHl3db154/kPrb+Nak6+EfxLuzvfuzeXwyq1fb7bKI7YfjhCDIQ3LhcWHn5sKFcwFIJyrXQPv27QNgWVZ55wj1/Wjxc3g8seW1kNQPzM3Nzc7ODk+j/hb1xCBm7ZiYyjQ4CAC327Iss1yXqd9VVFR08OAhVFYXUnbn5s2by3uhmtY8nlhET2+vcvSWSlhIjkscNuHCojkwUhmCOJwhj//HgcMMGm/SZMM6tgffZ/7yXdHiy/51drOWppfylld7TkGbC3AWALuYC+qYlmm6DQCcc8MwMorz3ul1zW0/5sNoye0SFtq9A0KEEIZhlBQXbdm67YLzzzMM4+92TKSUCQkJsbExL730yp133h6WzAfqQEraKVev+h6v7bzq1lGOEIxSl2UAEJz7HEcyIyatxTN3tQDwcJ2tL9qexn2Tn5j7yc5fjvGzL0LzuqaEkV9U4vWCENDypSEp/amglPJCp1GbJi+0TgVgRlV2UfVOAfzyyy8IaoJo0KDBifeJWNRPS0xMdLmCWYhnZ2fv3bu3devWoW7X36LcG+UdO8rnn5ycCEAIUQnxvKrLxMbGx8TEBnG5EM7OnTv69u1dCcpJCSQvLy+Ia23bBpCaWgs1deEeBDVTUGEccoQQziWFde09Q9Ye3RpvEF6u0FEVCgpuU8ftRlqsUTuPbtuUdeeXT/x46YruXyed81mLNk+knDGs1bVXX3sK0p0Sx+e1heCGh1ouKzBEDco4sO79T3r9sLNuzOklTnE4NlNU79m+Y0e/vr0bNKgvhPi7OULNkj16dK9TJzUrKyu0zTixQdRxcNXg0f5CFJXIE1wphFK3ZXkYdTgv8fm8XMaknzZ++JBhaTFfXtDsgytaLR1QBzMm2u/NKcmzcUptK7mWySgcG+X2UQni8iDrcEeSl9T2jBJHRF2+L8X69etRzqWb6g99+vQJV5vCQO3atWJiYsp1iRDH3+mCBQsAMMYqZ4G7ZMkSlHPKVuZFenp6ZYZEqEnANI3k5CSU53B14HzT/PnzEZJzbWV4IoBvvvmmvBeWRsQnNmnSNAztqrbUTA9HuG18AeDXQ7/MOPpcIoWQTpkyggMCghNuWqjjYqf4jYPbisZ99eRb6TP6b6tz84oLek5ukda1zsUDB9RCPe4VttfmgjM3s1wGIf/zi6QQoCTnaHb8qHfPRS9vyVETNBzWhmEY69aty8o6mp6ejn9aPKmudtVVV27cuPH4P8Ow2BI+PziOjRgyZvkSE3D+NGExSt2W5aJwHKfEZ/uEbHJqh6vO6dkvkey644JNd/VZ1pXgwVv8ixfZfgOptZknlhIJISDLlsxDgpsuZO6Riz4AAB5N51MC7Nu37/vvv0dQMXGnn356GFoUeiilapFap06dIK4FsHHjJs5FpSUq/eKLL8p7iRp07du3D0NzTvZQJdj69esHcS2A7dt35OQcQ/gXxOpxQQv21FNPTUpKQk3Vo0GgPRxhuDulAFqnt5j8nwcO/wqX2/oLGcvj+ivwJwbEE1rbz3L3eicve/WW324661DsoxnDb3p/EEtFj7O61kY9YQu/z+GCUxcxXAYlf/FDpJCUsWOwp6cPvBDJNvUbYQjdkJxTSteuXfvNN8vOP/88oBxunA4dOkyc+AwAEo5dFUpIiQ8J8dPddMKMmSZj9t8skhhjbsuwCByH+2zHlkhv16l907Q+DRL3vXy389iAj+K2YNx1fOMGweIQlwTLhYDApfxr+0Mt0QqLG3ds9dm0RwBEXbio6r0rV648cuSIYRhBLDFbtmyJaJiCCSHq13Xs2BHl9OUoO2zFiuU//PBDea8tL+rmubl5ixYtCu4O6o2gsjK5/UGwtm2XvTOoC3ft+nXp0i8R5jMggQ2mDz/8EOXsserCJk2aRPi+YaQR+dNCOAj7qOMOB4zUtolfHlyaZIKjdNgc11NCEEEpLAZLwPDDLIZ9DJ/smX/++r4tf/ROkTe/uXMygGZN01M9p4DDsR3OOTGIabG/tDN+/22MeoEb2537UEECaKIUPBxVRShjAOLjk669dgSAch08qVev3gUXXDB9+mtuywpxswCASEjq9aNf339RsfjN9y3GfH7/SS5gjFoGMyBtx7Ed7kg0bNmaAUN7dy789Fk5ttuEX97FhFuRsQvEBHUBDIZJDIMQ8heWh2ki71jsjysQk1JicxI9KbBwguKcM2cOgl2OqLCGqJhZVCMvvfTSE/9ZFoQQKtfIjBmvIczOfzWy3nrrzSCuDSzEQ9ymsj333HPPjY2NRXkEq/ymAF57bQYAy7LCZ3Oo7v3hhx8WFhaW91r1i5o3bx76ZmmqHWHXAWqe3l+8a7X9VYwfHALHk44Lw4DboLGE8kIU5vD8Qt9GsmbIj/1yZq6868Al6+WipMQkBjPZqi2F5JxzziWVzGBl0ehqCGUeOvjoFscip/iEj4athllGxu7c3Nx69eqpgyrlurZDh/Z9+/YpKikBIGWoZ2pKhOOYjoOB53zQIR2Ay+WSZdAHBmMGowySc+5wLkBiU+oCeGT0DXLxy3Jkm1GLHsEHU3DsCIqKZZFfwoDLQy2rNI2pBKSgBooLWu1YBoBEW+y66mPTp09fsGCBKotT3js0adJEBY1GRbJR1W87deoURNyoEs6nn366YUPpFmEYUE/JyMi45557ynstIUTVE+jSpQsq9ySFEuypp55au3ZtlFM4qp0rVnyrdjrC1JEcx2GMHTuWf/PNN6unlMu89vv9AM4880yUc7mlqYGEvXOo5Fc9Tu/2xH/H7fkVbo9JDMRZtLZB/Udx+EDent+yDp6y8/4jVy8e/sLQtWdukl/37nkWAAtuKaXgQnABUu5sfZTSw6L4u/qDOqGhA5uGIVBU7c78tPmnjz76vx49zgwE0JUdKSWlpE5qyqfz5wNwuSwIEeKXQohdWEjr1X/HX/jQ/PkEIIyVxeZQUEoZpURKLgQ/Pg+ZAGY+/5x88xE5NO3q+Y8nr/nE483F4YPiaK6AC7GJzOViBCj21kmr88nMlwCoAzLRQuBQ4qxZsxCsBh0xYgSiZ6dWqZl69erFxJQ7m4Lq+Tk5Oc8+Owkn7COEECmlGlwvv/xyEJerqaNnz55t2rQJbcPK8mjOeUxMTK1atcp7rTrfZNvOpElP+/3+4AzfkxMQ7Ouvz1C51MrVY9W1rVq16tmzZ2gbVu2JlpkhtFSGNer4HIAdpZnLMxe0joUvy97+a+byHRuz2+6Z12z62/0f6r+wxZdZcx964EEAnHMppRBCCCEhCSWElnm6L32FRCIXuJ+1G4FGgCUR6pyeAAA3TA589dXXDz10L4Jaf6ipOSU1tUH9Bos/+dTjiQWhIrRp4AkBpSInm/Y495nDu9+a/T4B7LKLtBRKCJUS4jiccyEEYLz/5is5T48s7i5uXTfztANrGvgOY8uPfP9h7k6CKyb307cA+CpSrK7SCZww+te//rVhwwYEuyDu1q0HomdaCfgABg8egvI3WynCuXP/8/HHHyPUa/FAkZfPPvvsxRdfRPlNwFL/TRXE8AYEe8kllwLgnJer8Y7jUEpXrfp+2rRpCPU5ICVYQsjatWsff/xxlN+9ETA4kpOTESW7h5oqpFLcXxQA5CklvyZs/79VW4922XXgku8+v3hq77kNnl3y0NvT34SE7bMd2wkcBiPHK1eWs/sSAkJsrw+UTB8z/jW0B+JsEi73aQmcX3N/G33rrRW5iRrhZ/fudf55/b9Y+AViY8oTdVo2CIFhIPcAbrnzaRfL27XHRagTxFKJkNIXQyil6kiC7Tg+hyO14b+fn/jz3YP3nFYw+vDi81hms7zd+PbLW+pyVFInCw2BHjh9+vSpU6cGfR/GWJ8+vREl+ykK1dQ77rgzuMuVsrnttttWrPwOpSuHkDRMhTT+9NNP1113nfqkvHdWbv9zzjkHVVFRT4Vi3HjjTbGxwecce+yxxz759DOUP/vISVA7IJmZmcOHDy8uLlYHXMt1B3UGp1ev3qis1CaaqKYy+gczGAS6deo+/NNzNlz3QetZ5shXr3jvjfeIMG2f7fP7JKRhGcwIQZIG4XDL49649ech0zfHwHCoBGR4YjdEIoyD+/Z7PO4Kjn9CiCMl4uK69+6FxAQOhPwoDQgRlNDio7u6t3t413bYjmkYIhTTlsGYxagQ3OvzldjCSG87/YkHF1/Tc1Ozo3cmZr786H3qOxV/UCW/b3n/AAAeBElEQVQQWH3OmjXrwQcfrMitxo8fHxtbvpwWVY767R07tlfRBuVFjYIjR46MvvWWrVu3hmQtLqW0bZsxtnXr1uHDhx87diyIm6hV+FlnnXXRRReiKlJhqkVFo0YNmjdvhqAq8hBCSkpK7rj99lWrvlOvqYJzjhKsYRhZWVnXXHPNzp07UX7JMMaklC1bthwxYngQl2tqIJVkkAoiAXTu12Hi1AkNzGZ2ieP1+gSEYRmWGbIDGo7jMIP996e1yzpc3RIUNFYISULu0pbqnkZu/05nd+iMkDgShQAwrNMZdYu88GZT0wh97XhKhc/H0tJfNez7n3seXLDQLUcIoS7LchvEcXiJzy5yROxpXabdfZNEdFQ8Dyg2AO+///7IkSODrg2mOsMll1wSyvZVCiraAMC4ceOCvgkh5OeftwwaNHD9+vWMMUA6wW6oOY6jjsBkZGQMHDhw8+bNwQ00dYimV69eVVW5N5CNY+zYsYFPynUHFex18OD+wYMvXbRokfIyOo4T3OBSAfimaebn5w8cOPDbb78Nokko9dy0bdu2bt26CFOhBk31opIMDgJIKR2f4y3xCeEYbuY6IRloqDAdCWDvuH9f4SRTq55P+ClkiGNFpeSQBmIfxfJVbYLJA/2XqCYSKW5csSG2oETEx5LjZz1CCmM8O4v1GzglhjqZBxH6zRswRt2WEcOISiYmeRQselRUitJG991337Bhw1ABtSSlbNeu/RlnnBHKJlYWSmdUxOCQUhLCdu3K6NGjxzvvvAMQlcKkXNGOUkrHcQzDYIx9/vnnp556akZGRnBvhFLq9XoJoUOHDkVpSEQQ96kgSjffcMMNQec5FUJSyo4cOXLBBRdMmjQpcM/yClYZ1oZhrF+/vnnz5mvXrkVQ2zSEEFXnT+1zqZjWct2hhlMzxVWpY49ZzOW2CAmLIcz9NjzWN+/NO39pVhqa+J0w1IOVkgMueD7Awp5fvlGvnHmg/5Ftx/IfufLK3q+8jR07SVIyRNkSepYdQmAaIi8TY0d3WbMSAAtbp1fJxCI594bSgmobmzG2e/fuwYMHP/fccyh/6JwiMINMm/ZSiNtaubjd7kcffTToy6XkKnXp9ddf//DDj+bm5ioJK2mfxPGu3ojjOIQQwzAKCgomT548cOBAv9+v3kgQSlE97qGHx6vUW1UVZBAIj5g4cSKC3RAR4vip+/Hjx99yy+i9e/cTQpRglTfo7y/8XbCmaXq93lmzZvXo0ePIkSNKIEG0R11y7bXXDRo0CNFTGDlyiArXb8iJXH1QLoTDDZe14KuvD1z7RAvE2UxQIUMcCSGlAFymay9+bvf+zAH9+/OCklDeHzC4s9dkCx5+JH7xt+JoFnG71HND+QxCJCEoKf6xW/t+48ejhhnax08/SQl14pcxxlhefv6QIUPS09PnzZuHE3RDeVGSvPHGG88+O5pKqPwlTz75ZFxcHILtHoH4wYkTn6pXr96dd44FoKStPhd/AqVvRKmuSZMm1a5dW0XSBJfmFSfUT7nt1ltR1Vki1KNHjRrVokWLoG8S+AkzZ76Wnt7kyiuv5Fwoof2dYFWQbECwb7zxRp06dUaOHKliOCoi2Pj4+HvuGYeq8xtFNTVq4g1QHXoJdxxmGkt3bl4++P4RSIcRK3mok4pKCGXF24Vz26XFXtYdgM93sqydQcAoKy4qgmXkD7ve3H9YEknCtC3qcDRs9M3Ac5575AmEOWtyhKCGt8rmov4/MzPzww8/uuyywUmJiZ988kngO0FPwUKI5OTk22+/I6QNrzKeeeaZilweEKPf73/55ZdSUlJuueWWhQsX5uTkoPRFnAgAr7dkyZIl99xzj8fjGT9+vIp7ABBcFEgga8Xtt9+hMrBV+RSvZKK8aBW5SaCjzp07NzExYcSIEfPnzz906BD+SrAqgmTZsuWPP/5Y7dq1Ro0apeKTKKVBC1b9kJtvvkXVptHWRhDUTA9H1PvBhBQGpQAarTl4SyGBO9XnzQ9x9XkJQEpKqEMfx4qu0+c2dSUCoCzkw0xQZQLWTr7m0Y/fuXuEbNYURcWQIY1EIQRSksJCeUbHCX7nXrWClLIa29sql+K2bdtmz56dmZm5d+/eZcuW/eE7QTs2FOpQxvDhwzt1Ol6OJHpnYdX4MWPGTJ06NSMjQzntg76big/Izs6eOXPmzJkzASQkJHTs2LFt27ZNmzZ1HGf//v2ZmZlLliwtLv6fvNrBbaOceDnnPD09/ZZbbgYQRBbgkKO6xKBBg84666yVK1cG3eWUTJRgi4qKZs+ePXv2bABut7tDhw7t2rVr3rw5IeTQoUP79u1buXLlH6pSK8FW8FCJ2+0eN+5uRIZgNdFC1BscDBSMrFny7ZERd12MHj5vQRiqz0tOiEtY32LThZ/P7npWL2E71DTCqqHfnv7813fcuf/Je+FyI+SJswiRQgAkv1X6qa+8uO32uyghgkdZuZOyoyborKwstYP+B9TEXUFrw7bt5s2bq6zbUW1t4IQF64QJE4YNG1ZBzaRSS+GEJV1+fv63336rDkf8JRV/IwH3xsSJE2NiYgJegQhh8uTJPXv2VK0K2qI60exQn3i93jVr1qxZs+bvLqm4YAPPnTRpUv369QOJSjWashDF06IEwCUoWbn9pw/PG3QxzvLBy4BwHEtxueJ24WfPk3d0vegc6Xdk6H0b/4Nyde57+aX4L75CTFzoo0cVJSWol7a95xkX33YnAG91d/H5SwvX/cEaqLhvU91h2LBhjRs3ruCtIgSlk6655poLL7wwoNiCvlt5HRUVfyOqta1bt77yyivVJxFlAvbo0WPkyJE4wRoLmioRbFJS0ujRo0NywxpLRFnAlUYEDcLyQoQgBi0Avr95ygsY4LCwWBsC0mW44f3tw1ix/+LWABwiS2vShRE1kn85vQc++y9Lqg/OQ39ihRCan4tOHb4ec+2Gb1bEGIavdNe8WpKYmOjxlLtQyMkJ7KZffvkVKjl09ahfFfgJr776aq9evRBtqkUIccoppyxYsACR6nB69tlnhwwJJot81SKldLvdS5YsdblclZ+ztToRXe89VERrd5GACqjc+P5nl63YDbgEF6E+lgIJMGLAOfY5Dp320ZOXdeomHMcwjPDbG8epl54+ZOka/vMalpiIkCfyI0QAtNhbUrf2SFGEw1luy3Kqb7rAwGmIUBHwZvfp0+/f/34NpWXMQviIKqdJkybPPvtsWlpDRNXRx4SEhPfff79p06YRqxRr1ao1ceKkjh07ATAMs6qbU1YIIXPmzOnc+XTU1DW6piJE4lAsC6qnz5g7Z8+wO5uhhR8ORRjsDUqYFLkwXG+MG3zRBbbXT0KRf72McCHgtj5++qnztu7h3kLKWOg3VggRfr+ZUmdTg1r9Xp+Bg4dNxmQ1PbRS3oLD/4iyNlq2bPniC8+lpNSKWN0WNMo+69at2/PPP88YU7G3Vd2of4YQ8uKLL/bt2xeRqhSVYFu2bDFt2rRatZIcx44WY27SpImXXXZZVbdCE61E6/wopSgG9lz55LU42zlubYR4M0UCJrGO4djTjbL6jxzqFBYbbqvSfBsAKCG24yAu5p0uPTyLVon4U+A44Uh5bh89arbu+k3n0+Zs3gzAF+IHRAqh9XAo28KyrClTpnTs1AnV0UcaSHY+dOgVKrtlhG8YKfPi/vsfvOGGGxDBbyRwPqV3716vvPJvlB6kqup2/S2qbdddd/1dd92FCBZsFBGZpnC4idy54yRILihlC0c+PgntBfwgItTHUgBCTErBC2Zg54WLpwGA24IMT/Dm32MwZgP1mjSanFOEuW+5ajWCHWqbgxBYJs89gAsuvMsSh/bu9xgGr44bKyH0cAQUxpQpU1Smxern3lAEzsTed999gTM4Vd2ovyBwEGbIkMueeupJhCIeM6wEjLmrr75q6tQXUP7K9ZWDKg3NOe/WrdvUqc+7XO4IF2y0UDONtuibIqUQ1GBPP/REs1kLAUMQEvLaqqojEGGvRdZFuxb0a93h9735Sh9plHMAdwy/+hov9W1cQWsnhSWYgxJamH+0S7vOM6fn79lnMMar3XgIoYdD3eeRRx658847EfG6rYKozRQAEyZMUL8Xkbc+U9N3//7933xzlmEYUfFGAsbcXXfd8fTTTyMiO5I6RtupU6c5c+bUqlUr0g4Ya6KLKDM4HNuhjE37/ONmz3zWEc04tWR4NjkMSRz4vnv4/LbpzRzbqcIxRil1OIfbNeeyKwa5E0VBoWlZYakla9tmXNLB64c+8sFHKCgyKpYIKwIJ4UtMS0t76623JkyYgIhUEiFHqXCPxzNt2rRJkyYj8tZnhmHcddddCxYsSExMjCKlqCq8E8LGjx8/a9ZbiDzBAhgxYsRXX32Vnp5eXd14mkojynqPyRiADtNWX4xUGG4unBBXn5eB6vP+q7Hm+qfGA2CVGCj6lzBKi30+xMUM+nIlPv/Sjqmt3Mchf4ydm01anPZyl1bFkACqWR6wCk7lAR3WufMZs2fPvv7663FCnulqT+BnPvjg/bNnz05KSqra9iiU/ktMTHzppZdeeOEFVRwkupRiQLA33HD94sWLGzVqVLXtUQRKATz55JOvv/669m1oQkJUjUwBMPrurY+d8tV3cajnc/wEId/jkIISA5iOra/4diYBUsgwOVHKhceybGDk2NtuPpiNFUtkQkLoA0oIAWPy2FGc2y925ssyJ4dWr/kl6BgOQkjgBOyAARd+8MGHffr0QaQmeKgEhg0b9umn8zt0aK/+Wfl6SL0RAEKIlJQ6H344V+WhivY3ct5553322X/V+Rqc8DMrjcATpZSGYXzw0UePPvqoy+WKdsFGIDXTeouaPuR4bTAyYcLT5oz3WuE0PxyGULuypXQgLRb7LX4eenhpXStWCgES2roswWNIyYEZ99wzqMCPo0fgcYfjlCwoQWEh7r6NjhoFOxKj2ILm5CW8/xIVMRdIlHnDDTd+8snHzZs3V3+tyVNw3769P/xw7iWXXILK3QX4wxtJT0///vtVAwacp/5aDd5Ihw7t33vvvVGjRqH8GVorwh8Em5CQuHLlqqGXX47qGxBdtUTg3lklEB3dyLEd02OtP7znzLe3XY0zuGFThLSeGY6nMHe74nLsHZ+e34rXTQIgIqxPEM4BzD+1Y+zy72AYxDTCYnMIAcfBv5/7z+LFqEa1ZEtKSny+cpz5PbHGVUpKrZkzX581602Px1MzZ4o/07p1q3nz5t17772BT1QZ9PA98cQ3YhjGyJEjd+7cGbD/qg1paWkzZ858/vnnTzT3wyrYP9RYGTRo0N69+848s2vgr+F7tKZGEQUGh5TStEw/UDT+/Q4ZGTDjeciLmUkIwGQmfJnTazu3zZlWF5aIvJQDhFK/46BpozvX78CXX0u3K1ynZnx+xMUMdfED27ZHS0qifyQ+Pr6Mqc3V5K7m3+bNW7z++uuHD2eNGnUTakaIaBlRhteUKVPy8vLuvvtuj8cjhOCcm6YZcu2otsPUG3G73ffff/+ePXveeOONCtb4jUyUYMeNG1dSUjJx4sTExESUFmUN+WBUNmLAhh41atT27dvnz5+flJRQ/QQbUdTMaSSyFOqfUXuHJcDU0fcZb82ua7YvsUtCn+YLUjJCuViZ6B667r0Wtety24nMkEmTMQlMnPTkA/k+HDmqas2H+BlKtoSg15kNP3rvt9UbCCEq/Wj1XtozxlwuF0qdOmlpDSdMmLBu3YabbrpJnWDUcXMnopbFnPOEhISpU6fu2rXrqquucrlctm0r7WhZVgVNdkqpuok60ux2u4cPv3bDhh8mT57coEEDtSiPtFVBxSGEKNPN5XI99NBDe/fuveOOO+Li4jjnKj+YZVkVNOmUYFWMLeccIJdccsl3362eOXNmq1at1GutfoKNKGqmozTSuxQRAsCOHb94Xpvd092/xM4zQUO+mWJDuFzJC7F23+PntWza1Cn20qo+mXISiJRCiGeGXtX8/c8QlxKWdGQS8NvEdOGOm69Y/hWAEs5Dn/CkcvF6vfafqtOpVaPb7VYmhdpzadGixQMPPLB27dpHHnkkKSlezb+MMT0F/wFCiMrSoYqlffDBB5s2bRo+fHidOnU4536/XwhhGIbL5TIMo4zSY4yZpmlZlmVZQgh1k/j4+GHDrvn662/ee++d0047FYDjONU4tkA5HjjnnHN1Bmfr1q2jR49OS0tTguWcBwRbRuODUqoE63a7lWAdx6GUXnrppQsXLpw3b1737meiVLCRnPY0Aim79RD4Zs00OCLaWy6FpKZZAJlx3XNj0dfv5ITD2uCQHiNuf/EPq09vfv2YYQBgRa5YjiclIwTAZ21PP23Ck3j0SeQegEFDaQ8QAASFhUiIXzH04nlff3Npv7MdKaN0ElJj2+fzKbmZpql2Rnw+n3JmqMRW9erV69+//0UXXXT++QOSkhLVtY7jlH1Or5moLB1KUK1atXrvvff27dv36aeffv3110uXLi0qKnJK90CVJP9uqiWEKFUaCBsyDOOcc845//zzL754YIsWx2M1lJqsNjt9J0HJSgm2YcOG06dPf+KJJ+bPn//ll19+8803R48eDQhWeSz+bhOEEOI4jnLRBT7s06dP//79Bw0a1K5dO/VJzRFsCFHiUp7Rsrg/VSevsSZd5PYtCVBGiyCe6HXFc2tywZrA8YbYJSOlAFzMKnH2ZpzWcvSGGfVgcYdHclc4sUef2r/ve8X5I5bMwzlnI78AoW02IVJK5rd50yaDN2//+uPPzr58kM+2raidjwoKCpSH48TQ0datW3fs2LFDhw5du3Zt06ZN3bp11efKh6/n3zJCCFFmh23blmU1atRo7NixY8eO3b179+bNm9evX79+/fotW7bs37/f+acArJSUlM6du3bq1KFTp05nnHFGenp64E81UCP+QbCpqak33XTTTTfddODAgc2bN//www/r1q3bsmXLrl27vF7vyW8VGxvbvXuPDh06dOrUsUuXLi1atAgoSMdx1IPC/4OqG/n5+QAKCwvLe2FOTg4itVBA+IjgHiYlgFhCe952zYMrRz3D61iw/OBEhizcRgKEMnD/LjPh2PQR9WD5vF7L5QrJzcOKWiMSQoYPHHRk/dpx+XmGK8axfSAhMsikBCGglMcmYvlXHb5dffaEpwGw6PRgq5m0Xbv2kydPFkLUr1/fNM2GDRs2bdo0OTk5JibmxC+ryVfPv0FACLEsS+1ASSlN02zatGnTpk1VuZmCgoKsrKxff/01JyenoKAgL69A5TdRUSAJCQnJycktWrRITU1VYZIBlPEXjpDJaOHPgk1LS0tLS7vgggsAFBUVHT16dNeuXVlZWQUFBUoFSkmFcOLiYhMTExMTE5s3b163bt2kpKQTJ08hhOM4pmnWWMFWBLWdd+ONI9u0aZuSkiqEI6XKDHWyvRIpCcD9ft6nT1+UTk01BxKxFpYEULpHuy4z48ebnzt3waamaMnhCIiKZ8eQUkoQi1jb5dZJveu+s3y+U+xlnjJZG2r6u+22O6dPf6lCjShFhQgsW7Y8MTG5U6f2ZSwdqfZxf/t5e703puOFl5B7ACwUW07K2nC54Nj44qvVqY07t2/LaiVFV8jkia39RwemmsoRhhL2NZlA8ZrgZlWlXJXxp1/KiQghVMIMxlgQQzIgWEppFI1oTTUgcoexiiKQUkohujRIH/XF9K2vjv4Q3zIQgxABVChYUkqAWIQVyoMLm9d9Z/l8AMRtha75lQFjzJGybpvWiwdehtemIbkeOK9QAKmUEAKMweVCXm7sY1PkFcPO7HNW1Fkbf+bPcQO8FDV9G4ZR9sBGTVlQ2x/qKIQ6DfGHMII/cOIbCbg0dKzun1EhpYZhBM6znFywJ37nRMFG9YjWRCMRPZKPOzEI4ZxLIS66bfi+GfdNxhYhiy1IQpkINtZXKoeYLFkdY969cz4Aznk0ZvJmAIc8r1/fD/qch42raXJtcBGkzSEEEYLEx8OxkbGnz90TCqc8B0BCRmbh7ArCStFejXCjJByQ9t99Tb+RICiLYE/8jhaspgqJjs5H6fGdgvtvvvVu+cP8Gzusx3YmuGW4BAjKW+1ESoAwYazH3kUPdUFpMFp42h5+uABwVa06l/2yX2RnWYkJwdSvF4JQiqRkefQIPvnCn9Rg2ey3UWrPRbFwNBqNRhMZRJMikVIKxzEgLnvzsc9v7/8JMoqdAy5qcQKBMm+vSADEBPkNv77ft/Fzj/wLYU4bHG4opX7HRt3at0kT73zol4KYJmSZbQ4p4djU45Imlb/uqvfUtJw+55n16jqcy3Bk+NBoNBpNjSSaDA4AhDEpieD88Zef2fWfMT9f3OUnsdmFeGYwjjJWbJeCSsD/ddfmz38zF9UiAYvJDL8Q51x1+bzO3bFlm3RZRJZNGlLCcazkeqKgJHnT1hfWbz907wPJ6U0558cPpFS7nRSNRqPRVAlRZnAAoABhlDv8vsuHd/nv0xuu6/+hXMQcbpkujn8KX5CSQ1o0eRrWnbXqZQLI6lKZzCKkyO+/pHefm7bsRtZRJMZD/JN/QggiJatV17/9J/eMt1amNLrrqqH++nV59U3gqNFoNJqqIgr1igQkKKM+rw/AiLcn7pswZlFz55C902Uk2Mrm+Es9q1KYm/FLnMUFD1/bwIgFgGqhWSUgAQ9lAF5q0ylx1hxZVERi/r5+vZQQghmGTEzmK5bd+uOvq7qcdVqzZkV+vz6nodFoNJpwEIXKpdTHb7ksIYThyHsfua/V5jd+urrXt853HncdySAg/mhzSAhIj+H5zf6pZMwN9z71OAVEdXFvKJEQRrkQno6nruh3IZZ+K/32X+celRJCGPHxPDYOU19e36j1vy+4+PT+/WzOY02z+p1G0Wg0Gk0kEIUGxwkQQgSV3Odr6o4f8P7EpVf3fd071+TUgCFVZq/fkdQw4BRt6Ny+w5QxbsCJ1HqwFYESYtt2ux5dl6Y2QmEhDOOP2UpUpo2kJGffvvjR92w79+IzGjeW8TF+2zYpldW9HqxGo9Foqoqo17iEEMOybL8fwO1vP9Nz/+r/ayNycMCkLoActzmkdABDxr6Mbw6N7dXYk8i9fhbB9WArgmEYfs77de+ePPZhMArT/P1vUoICSQ3w8byFfuu3cfe1bt/GLwSkNA1DWRvav6HRaDSacBD1BofCME3BeaoZc1pa4yFb5kxsH7NVbDVBDFApJYd0E8/3fFXi/feOHD4cErCqp7WhMCkFkPX8C3jmRXgskFJTgzHE1cKdd6xp0npAy5aeFs0czk1CAoEs2trQaDQaTZioJgYHAEIpF0I6DoCpmz6fMa7XV9gvkW/CcFmx2fJXesOwayffDyG5FDRURc4iErWZZKTVt8feh0XLEJ8I04TLjSNHek56IfvGW7t27iwBJ3D2VaPRaDSaMFOt9A2lFIypUNBpz085Vy6bmlJwFJnwH1wSa2becw4An+OPxhTm5YIQIlXRrNjYyQdykbETHjc++Pj9vdkrH3qoVse2qjCetjY0Go1GU2lUR5VDqZBSCgng9iNf39/cWQG+/eYzL2vT2fH5LTPKKrQFByGEcw5GR5/fP2HWRzHzFs46UnJ1nz6O4+j8oRqNRqOpfIIpGx3hKPeFhISEm5BZO5flAr0AAMwyT3Zl9UIl1Ihv2CDvqUmBD6M6ibtGo9FoopdqaHAoVD4JzqXkTjJltuCGVW1/7N8hpRRC2FKCMca5oa0NjUaj0VQR1VwHUwpQg0thMAM18twnpdQFSCGItjY0Go1GU3VUxxiOP/H7mZQaZm0EqH4pzjQajUYTXWg9pNFoNBqNJuxog0Oj0Wg0Gk3Y0QaHRqPRaDSasKMNjuAhoUtXqs7UUMp0cXiNRqPRVEuq+SmVsOL3+9X/CCEqeCvOOaW0pKQkPj6+wu3SaDQajSbi0AZH8CQnJ7z11rtCVLyoOxGCJyUlr1q16vLLB4emcRqNRqPRRBKk4qvzmgkJZ0EWqVOPVxghROAdSSkppWF9ZRqNRqM5OdrDESRSSs55yG9LCNFhHBqNRqOpfmiDI3h0XRKNRqPRaMqIXkxrNBqNRqMJO9rg0Gg0Go1GE3a0waHRaDQajSbsaINDo9FoNBpN2NEGh0aj0Wg0mrCjDQ6NRqPRaDRhRxscGo1Go9Fowo42ODQajUaj0YQdbXBoNBqNRqMJO9rg0Gg0Go1GE3a0waHRaDQajSbsaINDo9FoNBpN2NEGh0aj0Wg0mrCjDQ6NRqPRaDRhRxscGo1Go9Fowo42ODQajUaj0YSd/wcQnZLwjOwjZwAAAABJRU5ErkJggg==;rotation=30;direction=east;" parent="1" vertex="1">
          <mxGeometry x="570" y="314.96" width="70.98" height="20.8" as="geometry" />
        </mxCell>
        <mxCell id="9Qc__nXVEQ7TxUbxgHj--17" value="" style="group" parent="1" connectable="0" vertex="1">
          <mxGeometry x="470" y="178" width="65" height="90" as="geometry" />
        </mxCell>
        <mxCell id="9Qc__nXVEQ7TxUbxgHj--15" value="" style="shape=actor;whiteSpace=wrap;html=1;fillColor=#FFCE9F;" parent="9Qc__nXVEQ7TxUbxgHj--17" vertex="1">
          <mxGeometry width="65" height="90" as="geometry" />
        </mxCell>
        <mxCell id="9Qc__nXVEQ7TxUbxgHj--16" value="USER" style="text;html=1;align=center;verticalAlign=middle;resizable=0;points=[];autosize=1;strokeColor=none;fillColor=none;" parent="9Qc__nXVEQ7TxUbxgHj--17" vertex="1">
          <mxGeometry x="2.5" y="50" width="60" height="30" as="geometry" />
        </mxCell>
        <mxCell id="9Qc__nXVEQ7TxUbxgHj--28" style="edgeStyle=orthogonalEdgeStyle;rounded=0;orthogonalLoop=1;jettySize=auto;html=1;entryX=0.5;entryY=0;entryDx=0;entryDy=0;exitX=0.5;exitY=1;exitDx=0;exitDy=0;" parent="1" edge="1">
          <mxGeometry relative="1" as="geometry">
            <mxPoint x="509.65999999999974" y="268" as="sourcePoint" />
            <mxPoint x="509.65999999999974" y="364.25" as="targetPoint" />
          </mxGeometry>
        </mxCell>
        <mxCell id="9Qc__nXVEQ7TxUbxgHj--35" value="" style="endArrow=classic;html=1;rounded=0;entryX=0.5;entryY=0;entryDx=0;entryDy=0;exitX=-0.007;exitY=0.998;exitDx=0;exitDy=0;exitPerimeter=0;" parent="1" edge="1">
          <mxGeometry width="50" height="50" relative="1" as="geometry">
            <mxPoint x="477.4950000000001" y="266.56999999999994" as="sourcePoint" />
            <mxPoint x="245.45" y="364.25" as="targetPoint" />
          </mxGeometry>
        </mxCell>
        <mxCell id="nvAYXAVTskFNvcW9AQbS-4" value="Basic Auth" style="text;html=1;strokeColor=none;fillColor=none;align=center;verticalAlign=middle;whiteSpace=wrap;rounded=0;" parent="1" vertex="1">
          <mxGeometry x="335" y="365.5" width="70" height="30" as="geometry" />
        </mxCell>
        <mxCell id="9Qc__nXVEQ7TxUbxgHj--7" value="user-auth-service" style="rounded=0;whiteSpace=wrap;html=1;strokeWidth=2;fillColor=#dae8fc;strokeColor=#6c8ebf;" parent="1" vertex="1">
          <mxGeometry x="711.86" y="369" width="120" height="45" as="geometry" />
        </mxCell>
        <mxCell id="9Qc__nXVEQ7TxUbxgHj--33" value="" style="group;fillColor=#dae8fc;strokeColor=#6c8ebf;" parent="1" connectable="0" vertex="1">
          <mxGeometry x="195" y="365.5" width="100" height="50" as="geometry" />
        </mxCell>
        <mxCell id="9Qc__nXVEQ7TxUbxgHj--29" value="" style="shape=message;html=1;html=1;outlineConnect=0;labelPosition=center;verticalLabelPosition=bottom;align=center;verticalAlign=top;strokeWidth=2;fillColor=#dae8fc;strokeColor=#6c8ebf;" parent="9Qc__nXVEQ7TxUbxgHj--33" vertex="1">
          <mxGeometry width="100" height="50" as="geometry" />
        </mxCell>
        <mxCell id="9Qc__nXVEQ7TxUbxgHj--30" value="mail-service" style="text;html=1;strokeColor=none;fillColor=none;align=center;verticalAlign=middle;whiteSpace=wrap;rounded=0;" parent="9Qc__nXVEQ7TxUbxgHj--33" vertex="1">
          <mxGeometry y="20" width="100" height="30" as="geometry" />
        </mxCell>
        <mxCell id="nvAYXAVTskFNvcW9AQbS-53" value="PDF-service" style="rounded=0;whiteSpace=wrap;html=1;strokeWidth=2;fillColor=#dae8fc;strokeColor=#6c8ebf;" parent="1" vertex="1">
          <mxGeometry x="450" y="472" width="120" height="52.5" as="geometry" />
        </mxCell>
        <mxCell id="nvAYXAVTskFNvcW9AQbS-54" style="edgeStyle=orthogonalEdgeStyle;rounded=0;orthogonalLoop=1;jettySize=auto;html=1;entryX=0.5;entryY=0;entryDx=0;entryDy=0;" parent="1" source="9Qc__nXVEQ7TxUbxgHj--9" target="nvAYXAVTskFNvcW9AQbS-53" edge="1">
          <mxGeometry relative="1" as="geometry" />
        </mxCell>
        <mxCell id="dCndHdBAUIOkn8wSkbHM-2" value="" style="endArrow=classic;html=1;rounded=0;entryX=0.25;entryY=0;entryDx=0;entryDy=0;" edge="1" parent="1" target="9Qc__nXVEQ7TxUbxgHj--7">
          <mxGeometry width="50" height="50" relative="1" as="geometry">
            <mxPoint x="535" y="248" as="sourcePoint" />
            <mxPoint x="585" y="198" as="targetPoint" />
          </mxGeometry>
        </mxCell>
        <mxCell id="dCndHdBAUIOkn8wSkbHM-3" value="" style="endArrow=classic;html=1;rounded=0;exitX=0.059;exitY=0;exitDx=0;exitDy=0;exitPerimeter=0;" edge="1" parent="1" source="9Qc__nXVEQ7TxUbxgHj--7">
          <mxGeometry width="50" height="50" relative="1" as="geometry">
            <mxPoint x="710" y="360" as="sourcePoint" />
            <mxPoint x="535" y="260" as="targetPoint" />
          </mxGeometry>
        </mxCell>
        <mxCell id="dCndHdBAUIOkn8wSkbHM-5" value="POST LoginRequest" style="text;html=1;strokeColor=none;fillColor=none;align=center;verticalAlign=middle;whiteSpace=wrap;rounded=0;rotation=30;" vertex="1" parent="1">
          <mxGeometry x="620" y="280" width="80" height="22" as="geometry" />
        </mxCell>
      </root>
    </mxGraphModel>
  </diagram>
</mxfile>
